  0
SECTION
  2
HEADER
  9
$ACADVER
  1
AC1018
  9
$ACADMAINTVER
 70
     0
  9
$DWGCODEPAGE
  3
ANSI_1252
  9
$EXTMIN
 10
794868.03811215
 20
2479456.94664367
 30
0.0
  9
$EXTMAX
 10
796247.626918834
 20
2483318.12863586
 30
0.0
  9
$LIMMIN
 10
0.0
 20
0.0
  9
$LIMMAX
 10
12.0
 20
9.0
  9
$ORTHOMODE
 70
     0
  9
$REGENMODE
 70
     1
  9
$FILLMODE
 70
     1
  9
$QTEXTMODE
 70
     0
  9
$MIRRTEXT
 70
     1
  9
$LTSCALE
 40
1.0
  9
$ATTMODE
 70
     1
  9
$TEXTSIZE
 40
0.2
  9
$TRACEWID
 40
0.05
  9
$TEXTSTYLE
  7
Standard
  9
$CLAYER
  8
0
  9
$CELTYPE
  6
ByLayer
  9
$CECOLOR
 62
   256
  9
$CELTSCALE
 40
1.0
  9
$DISPSILH
 70
     0
  9
$LUNITS
 70
     2
  9
$LUPREC
 70
     4
  9
$SKETCHINC
 40
0.1
  9
$FILLETRAD
 40
0.5
  9
$AUNITS
 70
     0
  9
$AUPREC
 70
     0
  9
$MENU
  1
.
  9
$ELEVATION
 40
0.0
  9
$PELEVATION
 40
0.0
  9
$THICKNESS
 40
0.0
  9
$LIMCHECK
 70
     0
  9
$CHAMFERA
 40
0.5
  9
$CHAMFERB
 40
0.5
  9
$CHAMFERC
 40
1.0
  9
$CHAMFERD
 40
0.0
  9
$SKPOLY
 70
     0
  9
$ANGBASE
 50
0.0
  9
$ANGDIR
 70
     0
  9
$PDMODE
 70
     0
  9
$PDSIZE
 40
0.0
  9
$PLINEWID
 40
0.0
  9
$SPLFRAME
 70
     0
  9
$SPLINETYPE
 70
     6
  9
$SPLINESEGS
 70
     8
  9
$HANDSEED
  5
00020039
  9
$SURFTAB1
 70
     6
  9
$SURFTAB2
 70
     6
  9
$SURFTYPE
 70
     6
  9
$SURFU
 70
     6
  9
$SURFV
 70
     6
  9
$UCSBASE
  2

  9
$UCSNAME
  2

  9
$UCSORG
 10
0.0
 20
0.0
 30
0.0
  9
$UCSXDIR
 10
1.0
 20
0.0
 30
0.0
  9
$UCSYDIR
 10
0.0
 20
1.0
 30
0.0
  9
$UCSORTHOREF
  2

  9
$UCSORTHOVIEW
 70
     0
  9
$UCSORGTOP
 10
0.0
 20
0.0
 30
0.0
  9
$UCSORGBOTTOM
 10
0.0
 20
0.0
 30
0.0
  9
$UCSORGLEFT
 10
0.0
 20
0.0
 30
0.0
  9
$UCSORGRIGHT
 10
0.0
 20
0.0
 30
0.0
  9
$UCSORGFRONT
 10
0.0
 20
0.0
 30
0.0
  9
$UCSORGBACK
 10
0.0
 20
0.0
 30
0.0
  9
$PUCSBASE
  2

  9
$PUCSNAME
  2

  9
$PUCSORG
 10
0.0
 20
0.0
 30
0.0
  9
$PUCSXDIR
 10
1.0
 20
0.0
 30
0.0
  9
$PUCSYDIR
 10
0.0
 20
1.0
 30
0.0
  9
$PUCSORTHOREF
  2

  9
$PUCSORTHOVIEW
 70
     0
  9
$PUCSORGTOP
 10
0.0
 20
0.0
 30
0.0
  9
$PUCSORGBOTTOM
 10
0.0
 20
0.0
 30
0.0
  9
$PUCSORGLEFT
 10
0.0
 20
0.0
 30
0.0
  9
$PUCSORGRIGHT
 10
0.0
 20
0.0
 30
0.0
  9
$PUCSORGFRONT
 10
0.0
 20
0.0
 30
0.0
  9
$PUCSORGBACK
 10
0.0
 20
0.0
 30
0.0
  9
$WORLDVIEW
 70
     1
  9
$SHADEDGE
 70
     3
  9
$SHADEDIF
 70
    70
  9
$TILEMODE
 70
     1
  9
$MAXACTVP
 70
    64
  9
$PINSBASE
 10
0.0
 20
0.0
 30
0.0
  9
$PLIMCHECK
 70
     0
  9
$PEXTMIN
 10
1.000000000000000E+20
 20
1.000000000000000E+20
 30
1.000000000000000E+20
  9
$PEXTMAX
 10
-1.000000000000000E+20
 20
-1.000000000000000E+20
 30
-1.000000000000000E+20
  9
$PLIMMIN
 10
0.0
 20
0.0
  9
$PLIMMAX
 10
12.0
 20
9.0
  9
$UNITMODE
 70
     0
  9
$VISRETAIN
 70
     1
  9
$PLINEGEN
 70
     0
  9
$PSLTSCALE
 70
     1
  9
$TREEDEPTH
 70
  3020
  9
$CMLSTYLE
  2
Standard
  9
$CMLJUST
 70
     0
  9
$CMLSCALE
 40
1.0
  9
$PROXYGRAPHICS
 70
     1
  9
$MEASUREMENT
 70
     0
  9
$CELWEIGHT
370
    -1
  9
$ENDCAPS
280
     0
  9
$JOINSTYLE
280
     0
  9
$LWDISPLAY
290
     0
  9
$INSUNITS
 70
     1
  9
$HYPERLINKBASE
  1

  9
$STYLESHEET
  1

  9
$XEDIT
290
     1
  9
$CEPSNTYPE
380
     0
  9
$PSTYLEMODE
290
     1
  9
$EXTNAMES
290
     1
  9
$PSVPSCALE
 40
0.0
  9
$OLESTARTUP
290
     0
  9
$SORTENTS
280
   127
  9
$INDEXCTL
280
     0
  9
$HIDETEXT
280
     1
  9
$XCLIPFRAME
290
     0
  9
$HALOGAP
280
     0
  9
$OBSCOLOR
 70
   257
  9
$OBSLTYPE
280
     0
  9
$INTERSECTIONDISPLAY
280
     0
  9
$INTERSECTIONCOLOR
 70
   257
  9
$DIMASSOC
280
     2
  9
$PROJECTNAME
  1

  0
ENDSEC
  0
SECTION
  2
CLASSES
  0
CLASS
  1
ACDBDICTIONARYWDFLT
  2
AcDbDictionaryWithDefault
  3
ObjectDBX Classes
 90
        0
 91
        4
280
     0
281
     0
  0
ENDSEC
  0
SECTION
  2
TABLES
  0
TABLE
  2
VPORT
  5
8
330
0
100
AcDbSymbolTable
 70
     1
  0
VPORT
  5
29
330
8
100
AcDbSymbolTableRecord
100
AcDbViewportTableRecord
  2
*Active
 70
     0
 10
0.0
 20
0.0
 11
1.0
 21
1.0
 12
80.25
 22
106.4409457059851
 13
0.0
 23
0.0
 14
0.5
 24
0.5
 15
0.5
 25
0.5
 16
0.0
 26
0.0
 36
1.0
 17
0.0
 27
0.0
 37
0.0
 40
113.3818914119703
 41
0.8863849310366128
 42
50.0
 43
0.0
 44
0.0
 50
0.0
 51
0.0
 71
     0
 72
  1000
 73
     1
 74
     3
 75
     0
 76
     0
 77
     0
 78
     0
281
     0
 65
     1
110
0.0
120
0.0
130
0.0
111
1.0
121
0.0
131
0.0
112
0.0
122
1.0
132
0.0
 79
     0
146
0.0
  0
ENDTAB
  0
TABLE
  2
LTYPE
  5
5
330
0
100
AcDbSymbolTable
 70
     1
  0
LTYPE
  5
14
330
5
100
AcDbSymbolTableRecord
100
AcDbLinetypeTableRecord
  2
ByBlock
 70
     0
  3

 72
    65
 73
     0
 40
0.0
  0
LTYPE
  5
15
330
5
100
AcDbSymbolTableRecord
100
AcDbLinetypeTableRecord
  2
ByLayer
 70
     0
  3

 72
    65
 73
     0
 40
0.0
  0
LTYPE
  5
16
330
5
100
AcDbSymbolTableRecord
100
AcDbLinetypeTableRecord
  2
Continuous
 70
     0
  3
Solid line
 72
    65
 73
     0
 40
0.0
  0
ENDTAB
  0
TABLE
  2
LAYER
  5
2
330
0
100
AcDbSymbolTable
 70
     1
  0
LAYER
  5
10
330
2
100
AcDbSymbolTableRecord
100
AcDbLayerTableRecord
  2
0
 70
     0
 62
     7
  6
Continuous
370
    -3
390
F
  0
ENDTAB
  0
TABLE
  2
STYLE
  5
3
330
0
100
AcDbSymbolTable
 70
     1
  0
STYLE
  5
11
330
3
100
AcDbSymbolTableRecord
100
AcDbTextStyleTableRecord
  2
Standard
 70
     0
 40
0.0
 41
1.0
 50
0.0
 71
     0
 42
0.2
  3
txt
  4

  0
ENDTAB
  0
TABLE
  2
VIEW
  5
6
330
0
100
AcDbSymbolTable
 70
     0
  0
ENDTAB
  0
TABLE
  2
UCS
  5
7
330
0
100
AcDbSymbolTable
 70
     0
  0
ENDTAB
  0
TABLE
  2
APPID
  5
9
330
0
100
AcDbSymbolTable
 70
     1
  0
APPID
  5
12
330
9
100
AcDbSymbolTableRecord
100
AcDbRegAppTableRecord
  2
ACAD
 70
     0
  0
ENDTAB
  0
TABLE
  2
DIMSTYLE
  5
A
330
0
100
AcDbSymbolTable
 70
     1
100
AcDbDimStyleTable
  0
DIMSTYLE
105
27
330
A
100
AcDbSymbolTableRecord
100
AcDbDimStyleTableRecord
  2
Standard
 70
     0
340
11
  0
ENDTAB
  0
TABLE
  2
BLOCK_RECORD
  5
1
330
0
100
AcDbSymbolTable
 70
     1
  0
BLOCK_RECORD
  5
1F
330
1
100
AcDbSymbolTableRecord
100
AcDbBlockTableRecord
  2
*Model_Space
340
22
  0
BLOCK_RECORD
  5
1B
330
1
100
AcDbSymbolTableRecord
100
AcDbBlockTableRecord
  2
*Paper_Space
340
1E
  0
ENDTAB
  0
ENDSEC
  0
SECTION
  2
BLOCKS
  0
BLOCK
  5
20
330
1F
100
AcDbEntity
  8
0
100
AcDbBlockBegin
  2
*Model_Space
 70
     0
 10
0.0
 20
0.0
 30
0.0
  3
*Model_Space
  1

  0
ENDBLK
  5
21
330
1F
100
AcDbEntity
  8
0
100
AcDbBlockEnd
  0
BLOCK
  5
1C
330
1B
100
AcDbEntity
 67
     1
  8
0
100
AcDbBlockBegin
  2
*Paper_Space
 70
     0
 10
0.0
 20
0.0
 30
0.0
  3
*Paper_Space
  1

  0
ENDBLK
  5
1D
330
1B
100
AcDbEntity
 67
     1
  8
0
100
AcDbBlockEnd
  0
ENDSEC
  0
SECTION
  2
ENTITIES
  0
LWPOLYLINE
  5
20000
100
AcDbEntity
  8
0
100
AcDbPolyline
 70
0
 90
6
 10
795117.942162162
 20
2481023.97108108
 10
795119.55138806
 20
2481012.09458209
 10
795110.568
 20
2481020.284
 10
795106.096256158
 20
2481037.80748768
 10
795107.457467018
 20
2481039.70332454
 10
795117.942162162
 20
2481023.97108108
  0
LWPOLYLINE
  5
20001
100
AcDbEntity
  8
0
100
AcDbPolyline
 70
0
 90
22
 10
795589.669230769
 20
2482904.33076923
 10
795593.614
 20
2482900.7325
 10
795596.346818182
 20
2482898.65318182
 10
795627.409285714
 20
2482931.54035714
 10
795668.297411765
 20
2482963.79041176
 10
795668.581401869
 20
2482963.55813084
 10
795671.326363636
 20
2482960.91272727
 10
795679.986496599
 20
2482965.88809524
 10
795678.92866426
 20
2482959.14400722
 10
795680.104357798
 20
2482959.55711009
 10
795678.272380952
 20
2482953.72761905
 10
795652.001304348
 20
2482925.97304348
 10
795611.678846154
 20
2482883.32115385
 10
795609.821923077
 20
2482884.71384615
 10
795597.48872549
 20
2482878.62078431
 10
795595.868111111
 20
2482877.70122222
 10
795593.993580247
 20
2482877.1337037
 10
795592.024109589
 20
2482876.59657534
 10
795588.91
 20
2482891.125
 10
795588.664
 20
2482892.07
 10
795590.17
 20
2482894.45
 10
795589.669230769
 20
2482904.33076923
  0
LWPOLYLINE
  5
20002
100
AcDbEntity
  8
0
100
AcDbPolyline
 70
0
 90
22
 10
794962.608625592
 20
2482111.45375987
 10
794959.530916149
 20
2482111.1371118
 10
794957.273074205
 20
2482118.98121908
 10
794955.081104816
 20
2482125.40552408
 10
794957.550959097
 20
2482150.27211566
 10
794957.275
 20
2482150.545
 10
794967.900150862
 20
2482190.74814655
 10
794969.547051546
 20
2482188.586
 10
794974.143285968
 20
2482196.16010657
 10
794980.181422414
 20
2482205.05448276
 10
794983.37254321
 20
2482198.75854321
 10
794986.353392857
 20
2482199.90122449
 10
794987.216097561
 20
2482190.74759146
 10
794994.847992565
 20
2482198.69301115
 10
794992.044294118
 20
2482173.34323529
 10
794988.878235294
 20
2482145.52029412
 10
794984.803933333
 20
2482136.214
 10
794983.681620948
 20
2482135.14022444
 10
794976.15382
 20
2482120.3726
 10
794974.869479769
 20
2482121.63242775
 10
794966.704532488
 20
2482110.92599049
 10
794962.608625592
 20
2482111.45375987
  0
LWPOLYLINE
  5
20003
100
AcDbEntity
  8
0
100
AcDbPolyline
 70
0
 90
20
 10
795411.491032258
 20
2482776.1283871
 10
795411.690616438
 20
2482783.70719178
 10
795422.096981132
 20
2482797.12877358
 10
795432.60154321
 20
2482806.48783951
 10
795433.974267516
 20
2482805.90732484
 10
795433.374277457
 20
2482804.57606936
 10
795439.846318681
 20
2482803.12258242
 10
795439.473484848
 20
2482801.47772727
 10
795439.659734043
 20
2482794.29382979
 10
795437.879
 20
2482777.59233333
 10
795437.054166667
 20
2482777.94583333
 10
795433.216118421
 20
2482777.50256579
 10
795432.973972603
 20
2482777.50123288
 10
795432.746285714
 20
2482777.49978571
 10
795432.46141791
 20
2482777.49820896
 10
795432.143730159
 20
2482777.45674603
 10
795420.012708333
 20
2482774.69423611
 10
795413.100974026
 20
2482774.74883117
 10
795412.364444445
 20
2482775.0730719
 10
795411.491032258
 20
2482776.1283871
  0
LWPOLYLINE
  5
20004
100
AcDbEntity
  8
0
100
AcDbPolyline
 70
0
 90
271
 10
795112.013308271
 20
2482522.44849624
 10
795118.410116279
 20
2482535.03976744
 10
795123.324038462
 20
2482542.8775
 10
795160.924817518
 20
2482611.24510949
 10
795164.692052119
 20
2482612.99960927
 10
795171.971621076
 20
2482613.20267809
 10
795214.965981165
 20
2482696.01919506
 10
795214.95642162
 20
2482696.02523156
 10
795215.519486647
 20
2482696.88883318
 10
795215.565015253
 20
2482696.90295091
 10
795215.598345548
 20
2482696.93508875
 10
795215.620599319
 20
2482696.9486317
 10
795215.647095319
 20
2482696.96764281
 10
795215.671175009
 20
2482696.98201907
 10
795215.687021674
 20
2482696.98371879
 10
795215.703147167
 20
2482696.98543619
 10
795215.73714477
 20
2482696.99015799
 10
795221.693669773
 20
2482693.08923914
 10
795221.733595882
 20
2482693.10208154
 10
795221.819923713
 20
2482693.09786395
 10
795226.818057143
 20
2482690.24223492
 10
795231.772931472
 20
2482687.34079949
 10
795232.016579926
 20
2482687.49714498
 10
795236.960624071
 20
2482684.61384844
 10
795237.271410019
 20
2482684.9670872
 10
795237.812465582
 20
2482685.58923655
 10
795238.949809886
 20
2482686.78558935
 10
795252.591622641
 20
2482678.84520755
 10
795264.280869565
 20
2482694.77217391
 10
795269.769655172
 20
2482692.34689655
 10
795307.935862069
 20
2482752.23848276
 10
795308.056493506
 20
2482752.36045455
 10
795312.263935897
 20
2482754.33834615
 10
795312.717108939
 20
2482754.46953911
 10
795319.311017964
 20
2482755.48766467
 10
795324.585392732
 20
2482760.11950762
 10
795328.791083203
 20
2482763.61281005
 10
795336.191722142
 20
2482766.13450072
 10
795341.774174757
 20
2482766.43622746
 10
795343.821666667
 20
2482763.23460452
 10
795345.655507246
 20
2482759.44881159
 10
795354.877922078
 20
2482769.82705628
 10
795356.387022222
 20
2482766.60817778
 10
795359.051486486
 20
2482763.99382883
 10
795399.82984127
 20
2482815.84925926
 10
795399.778709678
 20
2482816.6844086
 10
795410.364675
 20
2482823.361875
 10
795415.028582278
 20
2482818.986
 10
795421.709727047
 20
2482826.94630273
 10
795431.357613883
 20
2482831.65900217
 10
795447.540617761
 20
2482848.81660232
 10
795461.534619289
 20
2482858.53908629
 10
795479.991130435
 20
2482873.43617391
 10
795480.12
 20
2482873.66
 10
795480.00208
 20
2482873.88704
 10
795483.437322835
 20
2482875.58283465
 10
795503.9432
 20
2482887.46044
 10
795508.8384
 20
2482888.05485714
 10
795518.173678756
 20
2482893.85435233
 10
795528.067350993
 20
2482899.54463576
 10
795527.265106383
 20
2482895.70943262
 10
795523.234061135
 20
2482884.1631441
 10
795566.978156682
 20
2482926.02184332
 10
795568.222926829
 20
2482925.22134146
 10
795568.959090909
 20
2482925.04090909
 10
795610.296593674
 20
2482958.1006326
 10
795638.45568
 20
2482976.98592
 10
795650.367142857
 20
2482983.63285714
 10
795650.638367347
 20
2482983.42190476
 10
795652.894759036
 20
2482984.84138554
 10
795667.327323232
 20
2482992.43126263
 10
795679.069821429
 20
2483000.46767857
 10
795700.985409836
 20
2483016.62442623
 10
795710.854909091
 20
2483021.15272727
 10
795717.775263158
 20
2483025.83552632
 10
795725.905263158
 20
2483027.76105263
 10
795737.565714286
 20
2483036.43428571
 10
795761.412847682
 20
2483056.03350993
 10
795760.537407407
 20
2483053.95888889
 10
795760.518579882
 20
2483052.30035503
 10
795760.736896552
 20
2483050.96655172
 10
795747.216390977
 20
2483031.99609023
 10
795758.123087248
 20
2483035.56322148
 10
795757.580617284
 20
2483034.44567901
 10
795757.493485714
 20
2483033.11942857
 10
795777.655
 20
2483040.96833333
 10
795780.149339207
 20
2483038.0538326
 10
795781.189699571
 20
2483036.1406867
 10
795782.291950207
 20
2483033.53369295
 10
795782.171764706
 20
2483031.24776471
 10
795781.978666667
 20
2483028.86622222
 10
795771.435405405
 20
2483016.22216216
 10
795764.722105263
 20
2483005.59736842
 10
795761.330769231
 20
2483000.01558974
 10
795761.6903
 20
2482999.8724
 10
795759.928571429
 20
2482991.40571429
 10
795753.026254826
 20
2482978.79436293
 10
795747.437905759
 20
2482970.04513089
 10
795747.179888268
 20
2482966.7824581
 10
795748.855164835
 20
2482963.7067033
 10
795752.801590909
 20
2482961.99613636
 10
795752.440242424
 20
2482958.744
 10
795751.824836601
 20
2482954.8248366
 10
795754.061290323
 20
2482951.58645161
 10
795752.173093525
 20
2482945.67769784
 10
795747.135826087
 20
2482935.86643478
 10
795747.992033898
 20
2482933.61186441
 10
795749.512711864
 20
2482931.71101695
 10
795733.044050633
 20
2482904.41493671
 10
795732.488510638
 20
2482903.30148936
 10
795728.976666667
 20
2482898.02333333
 10
795711.751818182
 20
2482880.62090909
 10
795664.011111111
 20
2482832.39111111
 10
795649.060425532
 20
2482817.82553191
 10
795636.520769231
 20
2482806.43230769
 10
795619.840888889
 20
2482791.88755556
 10
795597.559090909
 20
2482770.75272727
 10
795592.205106383
 20
2482766.59957447
 10
795590.643561644
 20
2482765.32794521
 10
795586.804680851
 20
2482762.22085106
 10
795567.748059702
 20
2482748.13552239
 10
795555.443870968
 20
2482738.23419355
 10
795542.277534247
 20
2482729.86410959
 10
795535.787663551
 20
2482724.68149533
 10
795521.684285714
 20
2482712.87714286
 10
795514.037241379
 20
2482703.56517241
 10
795512.2972
 20
2482702.3672
 10
795509.389
 20
2482700.245
 10
795490.882580645
 20
2482682.36064516
 10
795480.5568
 20
2482676.7932
 10
795456.206451613
 20
2482654.42709677
 10
795455.043389831
 20
2482653.37186441
 10
795453.185714286
 20
2482652.48857143
 10
795446.765254237
 20
2482651.17610169
 10
795445.886875
 20
2482650.48291667
 10
795444.074202899
 20
2482649.14
 10
795432.58
 20
2482641.44
 10
795429.67325
 20
2482645.19375
 10
795426.411343283
 20
2482642.88179104
 10
795414.568139535
 20
2482633.30976744
 10
795409.722150538
 20
2482631.59204301
 10
795405.367816092
 20
2482631.05172414
 10
795394.073235294
 20
2482623.24911765
 10
795387.14125
 20
2482621.82575
 10
795380.464210526
 20
2482621.86184211
 10
795366.679354839
 20
2482613.17645161
 10
795364.76
 20
2482612.735
 10
795357.253846154
 20
2482607.19692308
 10
795357.253846154
 20
2482606.92230769
 10
795343.413968254
 20
2482599.72603175
 10
795341.893508772
 20
2482598.93035088
 10
795336.475932203
 20
2482599.11423729
 10
795332.576086957
 20
2482595.37021739
 10
795323.284545455
 20
2482587.54072727
 10
795317.793478261
 20
2482582.91369565
 10
795312.960816327
 20
2482582.31244898
 10
795310.561443299
 20
2482584.34061856
 10
795289.254666667
 20
2482564.61766667
 10
795288.02440678
 20
2482565.89186441
 10
795279.002692308
 20
2482559.98461539
 10
795278.3
 20
2482560.62
 10
795270.016666667
 20
2482550.19
 10
795269.537931034
 20
2482550.23103448
 10
795254.27362069
 20
2482537.98189655
 10
795252.961730769
 20
2482536.34384615
 10
795247.718133333
 20
2482530.3912
 10
795237.874042553
 20
2482520.48680851
 10
795237.3872
 20
2482523.4948
 10
795231.451296296
 20
2482522.09296296
 10
795222.332289157
 20
2482512.14
 10
795216.400747664
 20
2482505.43962617
 10
795208.57
 20
2482502.29204082
 10
795208.173052632
 20
2482503.49368421
 10
795204.962956522
 20
2482500.23756522
 10
795192.523838384
 20
2482492.75515152
 10
795192.051752577
 20
2482493.19773196
 10
795185.715
 20
2482485.914
 10
795178.9275
 20
2482474.10375
 10
795178.345714286
 20
2482474.97642857
 10
795176.900547945
 20
2482473.46219178
 10
795174.012413793
 20
2482470.52275862
 10
795158.279012346
 20
2482452.5417284
 10
795152.233978495
 20
2482447.15376344
 10
795147.161904762
 20
2482443.22642857
 10
795141.475700935
 20
2482434.86261682
 10
795134.894226804
 20
2482429.97958763
 10
795126.862022472
 20
2482426.36629213
 10
795121.351888112
 20
2482419.37972028
 10
795111.422727273
 20
2482407.83090909
 10
795108.556956522
 20
2482387.17347826
 10
795111.4626
 20
2482379.6438
 10
795111.220465116
 20
2482375.1872093
 10
795114.098571429
 20
2482378.01857143
 10
795116.746666667
 20
2482377.41818182
 10
795119.202568807
 20
2482370.20807339
 10
795121.417288136
 20
2482364.64372881
 10
795119.471529412
 20
2482350.19623529
 10
795114.048888889
 20
2482321.3062963
 10
795114.082028985
 20
2482318.55014493
 10
795114.087
 20
2482317.203
 10
795112.055384615
 20
2482309.64820513
 10
795110.541337209
 20
2482308.26505814
 10
795105.08176
 20
2482302.11552
 10
795104.114329268
 20
2482300.95786585
 10
795097.270526316
 20
2482295.53036011
 10
795095.514064516
 20
2482292.88490323
 10
795093.06368
 20
2482288.34072
 10
795086.669317269
 20
2482290.74939759
 10
795075.366666667
 20
2482267.76333333
 10
795074.311403509
 20
2482272.82859649
 10
795059.121025641
 20
2482229.71974359
 10
795057.18606383
 20
2482224.5931383
 10
795051.243772727
 20
2482212.65718182
 10
795048.867700535
 20
2482209.6497861
 10
795047.310481928
 20
2482207.20746988
 10
795041.530053476
 20
2482200.20593583
 10
795038.578083832
 20
2482196.78107784
 10
795034.89472
 20
2482191.12272
 10
795031.441875
 20
2482186.57971154
 10
795023.617071651
 20
2482173.19943925
 10
795021.815465116
 20
2482171.36965116
 10
795019.922588235
 20
2482172.05382353
 10
795014.490902778
 20
2482161.30263889
 10
795006.152459016
 20
2482142.9695082
 10
795006.998045113
 20
2482142.44466165
 10
794999.9226875
 20
2482122.4576875
 10
794996.99752988
 20
2482117.10486056
 10
794991.581052632
 20
2482103.80947368
 10
794988.139189873
 20
2482095.36101266
 10
794981.357413793
 20
2482089.28293103
 10
794978.1812
 20
2482082.028
 10
794970.844538653
 20
2482075.00862843
 10
794969.10964
 20
2482071.6052
 10
794965.473063584
 20
2482075.17236994
 10
794963.269603804
 20
2482072.28304279
 10
794954.904454976
 20
2482073.36091627
 10
794954.061832298
 20
2482073.2742236
 10
794953.443674912
 20
2482075.42180212
 10
794948.173541076
 20
2482090.86770538
 10
794954.111791255
 20
2482150.65424542
 10
794953.762140845
 20
2482151
 10
794953.915345557
 20
2482151.15495063
 10
794959.260498615
 20
2482181.12781163
 10
794973.774524715
 20
2482249.04509506
 10
794974.192064777
 20
2482249.96032389
 10
794974.562776801
 20
2482251.04267135
 10
794978.941666667
 20
2482248.01166667
 10
794978.969454545
 20
2482247.87654545
 10
794978.994267241
 20
2482247.97043103
 10
794982.953896907
 20
2482242.772
 10
794983.286571936
 20
2482243.32021314
 10
794985.494747475
 20
2482246.57292929
 10
795003.976666667
 20
2482297.44736111
 10
795006.995796178
 20
2482300.71515924
 10
795020.78
 20
2482313.83454545
 10
795023.59025641
 20
2482318.83871795
 10
795026.797990868
 20
2482323.65031963
 10
795032.076767677
 20
2482331.56848485
 10
795035.285
 20
2482335.34714286
 10
795034.287909091
 20
2482339.78063636
 10
795026.247772926
 20
2482346.89161572
 10
795027.910075188
 20
2482352.13879699
 10
795055.254565217
 20
2482430.24847826
 10
795065.923554869
 20
2482446.75270479
 10
795072.834677871
 20
2482460.53019608
 10
795089.127213115
 20
2482488.62677596
 10
795096.498136201
 20
2482500.3097491
 10
795098.4825
 20
2482501.20993243
 10
795111.71408805
 20
2482521.8572327
 10
795111.443913043
 20
2482522.51869565
 10
795112.013308271
 20
2482522.44849624
  0
LWPOLYLINE
  5
20005
100
AcDbEntity
  8
0
100
AcDbPolyline
 70
0
 90
18
 10
795131.74424
 20
2480970.29888
 10
795106.876500754
 20
2481018.43825038
 10
795108.047812971
 20
2481019.21912519
 10
795077.743302181
 20
2481092.57757009
 10
795076.734384237
 20
2481096.53123153
 10
795083.152401055
 20
2481105.46997361
 10
795085.244776119
 20
2481102.33037313
 10
795092.158043478
 20
2481102.62
 10
795092.939565217
 20
2481102.9326087
 10
795131.749565217
 20
2481030.37478261
 10
795129.46091954
 20
2481028.78436782
 10
795142.4645
 20
2480990.9067
 10
795139.405
 20
2480989.6829
 10
795138.745438283
 20
2480985.84286225
 10
795140.174417911
 20
2480975.29662687
 10
795134.337264957
 20
2480980.61788034
 10
795134.253549549
 20
2480977.55628829
 10
795131.74424
 20
2480970.29888
  0
LWPOLYLINE
  5
20006
100
AcDbEntity
  8
0
100
AcDbPolyline
 70
0
 90
11
 10
795011.708727273
 20
2481289.58945455
 10
795009.324545454
 20
2481288.66227273
 10
795010.074672897
 20
2481289.17485981
 10
795009.9314377
 20
2481289.24779553
 10
795008.802026432
 20
2481298.03814978
 10
795007.696258064
 20
2481301.89858065
 10
795006.383587786
 20
2481311.5670229
 10
795011.838078603
 20
2481301.7279476
 10
795017.873333333
 20
2481291.95777778
 10
795044.838461539
 20
2481202.47923077
 10
795011.708727273
 20
2481289.58945455
  0
LWPOLYLINE
  5
20007
100
AcDbEntity
  8
0
100
AcDbPolyline
 70
0
 90
7
 10
795025.256
 20
2481297.3312
 10
795026.62
 20
2481295.20666667
 10
795026.5952
 20
2481295.1488
 10
795027.461428571
 20
2481291.10285714
 10
795025.6125
 20
2481294.845
 10
795025.69
 20
2481294.89666667
 10
795025.256
 20
2481297.3312
  0
LWPOLYLINE
  5
20008
100
AcDbEntity
  8
0
100
AcDbPolyline
 70
0
 90
34
 10
795063.53412844
 20
2481235.88623853
 10
795036.268627451
 20
2481297.90745098
 10
795036.373333333
 20
2481298.18666667
 10
795035.56
 20
2481298.18666667
 10
795034.644571429
 20
2481297.99171429
 10
795012.716666667
 20
2481357.42111111
 10
795019.361
 20
2481329.915
 10
795001.102790698
 20
2481390.70093023
 10
795001.304864865
 20
2481390.82621622
 10
795001.757358491
 20
2481391
 10
795003.007
 20
2481391.669
 10
795000.176684492
 20
2481402.30171123
 10
795004.067052632
 20
2481405.43
 10
795004.398311688
 20
2481408.54727273
 10
795004.8852
 20
2481409.0876
 10
795007.598657718
 20
2481409.37771812
 10
795007.445833333
 20
2481413.0345
 10
795017.100666667
 20
2481396.45733333
 10
795017.372
 20
2481396.45733333
 10
795017.663030303
 20
2481396.41575758
 10
795029.400826446
 20
2481377.4768595
 10
795034.891666667
 20
2481364.23583333
 10
795059.441016949
 20
2481306.55457627
 10
795059.857391304
 20
2481306.42869565
 10
795060.095555556
 20
2481306.43822222
 10
795062.166055046
 20
2481298.22055046
 10
795061.790566038
 20
2481297.81433962
 10
795065.5975
 20
2481272.395
 10
795063.172
 20
2481270.8564
 10
795065.015979381
 20
2481257.21742268
 10
795070.044615385
 20
2481233.63430769
 10
795067.740153846
 20
2481232.86615385
 10
795065.704587156
 20
2481236.60972477
 10
795063.53412844
 20
2481235.88623853
  0
LWPOLYLINE
  5
20009
100
AcDbEntity
  8
0
100
AcDbPolyline
 70
0
 90
8
 10
795057.038417266
 20
2482334.85223022
 10
795056.237708333
 20
2482333.33197917
 10
795055.887378641
 20
2482333.12631068
 10
795051.518095238
 20
2482329.87047619
 10
795053.716510638
 20
2482325.46068085
 10
795059.57
 20
2482327.172
 10
795058.415959596
 20
2482337.03212121
 10
795057.038417266
 20
2482334.85223022
  0
LWPOLYLINE
  5
2000A
100
AcDbEntity
  8
0
100
AcDbPolyline
 70
0
 90
4
 10
795045.089090909
 20
2481202.02545455
 10
795052.517142857
 20
2481204.25857143
 10
795051.721538462
 20
2481203.72153846
 10
795045.089090909
 20
2481202.02545455
  0
LWPOLYLINE
  5
2000B
100
AcDbEntity
  8
0
100
AcDbPolyline
 70
0
 90
2
 10
796088.438733154
 20
2483011.43296496
 10
796131.530526316
 20
2483021.02263158
  0
LWPOLYLINE
  5
2000C
100
AcDbEntity
  8
0
100
AcDbPolyline
 70
0
 90
559
 10
795853.513027027
 20
2482904.57978378
 10
795853.423052632
 20
2482904.36452632
 10
795853.309788732
 20
2482904.21035211
 10
795853.191135647
 20
2482904.08123028
 10
795852.88072165
 20
2482903.87989691
 10
795852.800133185
 20
2482904.15438402
 10
795852.303973684
 20
2482903.50159211
 10
795852.086276151
 20
2482903.28782427
 10
795851.657916667
 20
2482902.90416667
 10
795851.349619205
 20
2482902.59778146
 10
795850.451506024
 20
2482901.56903614
 10
795757.601671975
 20
2482837.3843949
 10
795756.045600775
 20
2482832.13358527
 10
795754.659912473
 20
2482828.76560175
 10
795753.260833333
 20
2482825.17166667
 10
795748.273797468
 20
2482816.60107595
 10
795745.474770318
 20
2482812.38904594
 10
795736.864772727
 20
2482801.77368182
 10
795729.809090909
 20
2482792.78272727
 10
795723.136549708
 20
2482789.87321637
 10
795716.668076923
 20
2482781.33192308
 10
795697.346428571
 20
2482764.853
 10
795690.31627907
 20
2482755.47395349
 10
795674.144965986
 20
2482741.8547619
 10
795665.249288703
 20
2482734.58317992
 10
795661.515700326
 20
2482732.75710098
 10
795659.664269663
 20
2482731.81817416
 10
795658.037180723
 20
2482730.95980723
 10
795656.794004283
 20
2482730.53308351
 10
795655.02615917
 20
2482729.74157439
 10
795653.803938115
 20
2482728.94957806
 10
795628.588809524
 20
2482705.50015873
 10
795622.046973684
 20
2482701.59256579
 10
795618.448823529
 20
2482699.38058824
 10
795582.045180723
 20
2482676.26373494
 10
795582.037
 20
2482675.642
 10
795582.225714286
 20
2482675.20166667
 10
795579.79017094
 20
2482670.96769231
 10
795578.857991968
 20
2482666.2613253
 10
795483.439016173
 20
2482601.29272237
 10
795482.709088398
 20
2482601.0148895
 10
795482.142035139
 20
2482599.50125915
 10
795480.607791304
 20
2482593.99394783
 10
795477.412302772
 20
2482587.09863539
 10
795471.200217391
 20
2482584.73570048
 10
795464.183070423
 20
2482579.7811831
 10
795459.324018127
 20
2482577.63350453
 10
795451.55266436
 20
2482572.82574394
 10
795440.500431373
 20
2482568.59839216
 10
795428.687857143
 20
2482564.06044643
 10
795428.594956897
 20
2482564.06538793
 10
795427.606938776
 20
2482563.26204082
 10
795416.40184953
 20
2482555.51661442
 10
795414.013372093
 20
2482553.33399225
 10
795407.979562044
 20
2482551.95912409
 10
795404.589188034
 20
2482549.93145299
 10
795397.124652015
 20
2482543.20285714
 10
795391.402142857
 20
2482538.25334821
 10
795385.695429688
 20
2482534.54054687
 10
795377.736232558
 20
2482528.67790698
 10
795371.190836502
 20
2482525.31942966
 10
795361.680580357
 20
2482518.04633929
 10
795349.726230367
 20
2482510.95570681
 10
795349.060733945
 20
2482510.69995413
 10
795348.723766234
 20
2482510.624329
 10
795345.66826087
 20
2482507.66586957
 10
795326.288285714
 20
2482488.03857143
 10
795304.071029412
 20
2482464.23808824
 10
795295.229626168
 20
2482455.43757009
 10
795290.9075
 20
2482451.2125
 10
795287.828730964
 20
2482448.5435533
 10
795286.564514768
 20
2482447.02075949
 10
795284.592852761
 20
2482445.11776074
 10
795283.066574713
 20
2482443.9945977
 10
795282.473210832
 20
2482443.39054159
 10
795282.331258993
 20
2482443.11465827
 10
795282.392132231
 20
2482442.69657851
 10
795282.327777778
 20
2482442.335
 10
795282.38476259
 20
2482442.14267626
 10
795271.092335025
 20
2482431.80715736
 10
795233.180909091
 20
2482403.12477273
 10
795222.243157895
 20
2482397.93929825
 10
795212.303033708
 20
2482389.83573034
 10
795210.396
 20
2482391.758
 10
795206.749459459
 20
2482387.88342342
 10
795196.872790698
 20
2482374.34023256
 10
795189.495223214
 20
2482367.18495536
 10
795179.739014085
 20
2482352.92200704
 10
795174.162765273
 20
2482349.00729904
 10
795162.448823529
 20
2482330.82582888
 10
795158.197758621
 20
2482324.92176724
 10
795155.70648
 20
2482323.52108
 10
795144.191968085
 20
2482305.42473404
 10
795141.078981481
 20
2482299.26314815
 10
795130.049208211
 20
2482277.621261
 10
795128.216446541
 20
2482276.22528302
 10
795125.522961673
 20
2482274.20285714
 10
795118.184414414
 20
2482268.31786787
 10
795114.4189
 20
2482264.8588
 10
795109.790611111
 20
2482258.27238889
 10
795103.032594937
 20
2482252.89126582
 10
795100.183802817
 20
2482250.15228169
 10
795094.295377049
 20
2482241.45196721
 10
795092.426831395
 20
2482239.74497093
 10
795091.35464
 20
2482238.53728
 10
795083.464176829
 20
2482229.09533537
 10
795083.011052632
 20
2482228.73598338
 10
795080.116666667
 20
2482224.37666667
 10
795074.363756098
 20
2482210.88834146
 10
795068.49709434
 20
2482194.13328302
 10
795065.382572614
 20
2482191.34070539
 10
795060.535858586
 20
2482181.21993266
 10
795056.675095785
 20
2482175.47168582
 10
795052.645194805
 20
2482169.41948052
 10
795049.026107383
 20
2482162.68899329
 10
795047.098244681
 20
2482157.58119681
 10
795045.702022727
 20
2482154.77668182
 10
795035.82828877
 20
2482142.27949198
 10
795033.360952381
 20
2482138.4097619
 10
795027.60991453
 20
2482120.35452991
 10
795017.205980861
 20
2482090.26645933
 10
795010.382
 20
2482079.544
 10
795004.590208333
 20
2482069.439375
 10
795003.182620321
 20
2482065.80470588
 10
795002.138493724
 20
2482063.13259414
 10
794996.813846154
 20
2482053.52326923
 10
794996.813846154
 20
2482053.04653846
 10
794996.798333333
 20
2482053.02240741
 10
794984.741358025
 20
2481990.78234568
 10
794981.317721519
 20
2481989.18189873
 10
794978.385441177
 20
2481975.88661765
 10
794969.7071875
 20
2481971.79976563
 10
794968.293709677
 20
2481967.59451613
 10
794965.729109948
 20
2481969.90879581
 10
794963.255846154
 20
2481971.67476923
 10
794960.232727273
 20
2481968.06727273
 10
794956.6948
 20
2481958.25613333
 10
794958.0395
 20
2481958
 10
794956.83244898
 20
2481886.40938776
 10
794953.218863636
 20
2481878.27409091
 10
794952.44173913
 20
2481872
 10
794953.145909091
 20
2481857.11727273
 10
794956.087777778
 20
2481840.98444444
 10
794957
 20
2481839.79153846
 10
794958.001219512
 20
2481861.88768293
 10
794961.196292135
 20
2481854.73921348
 10
794965.322954545
 20
2481855.69079545
 10
794968.736235294
 20
2481858.67988235
 10
794970.420985915
 20
2481856.21126761
 10
794974.354268293
 20
2481844.91463415
 10
794977.335666667
 20
2481838.43333333
 10
794979.149807692
 20
2481829.49038462
 10
794981.263142857
 20
2481808.84285714
 10
794988.612820513
 20
2481772.66128205
 10
794988.81137931
 20
2481772.54448276
 10
794985.671914894
 20
2481772
 10
794986.088965517
 20
2481722.99655172
 10
794984.853375
 20
2481696.696125
 10
794980.830795454
 20
2481702.69204545
 10
794978.649230769
 20
2481680.45615385
 10
794978.953333333
 20
2481680
 10
794978.955
 20
2481679.995
 10
794979.09
 20
2481679.448
 10
794979.200869565
 20
2481679.16913043
 10
794979.26
 20
2481679.1
 10
794979.3045
 20
2481679.0655
 10
794995.932926829
 20
2481634.44146341
 10
794997.08137931
 20
2481653.09965517
 10
795001.6705
 20
2481640.555
 10
795005.493913044
 20
2481634.69086957
 10
795014.442857143
 20
2481604.50714286
 10
795016.562444444
 20
2481596.61977778
 10
795018.193333333
 20
2481593.29833333
 10
795022.172405063
 20
2481589.47025316
 10
795026.905949367
 20
2481590.41696203
 10
795027.263
 20
2481589.88785714
 10
795040.421
 20
2481567.2373
 10
795044.077931034
 20
2481563.57643678
 10
795046.5788
 20
2481558.6848
 10
795049.332125
 20
2481556.339375
 10
795052.643737374
 20
2481548.43373737
 10
795061.528765432
 20
2481538.63407407
 10
795062.654197531
 20
2481538.9154321
 10
795066.16448718
 20
2481537.31230769
 10
795070.934202899
 20
2481529.97927536
 10
795072.447526882
 20
2481526.74580645
 10
795072.842
 20
2481527.19055556
 10
795078.51382716
 20
2481519.8562963
 10
795079.488181818
 20
2481518.16272727
 10
795079.795555555
 20
2481518.19888889
 10
795106.812222222
 20
2481435.34777778
 10
795109.4475
 20
2481426.14916667
 10
795109.344230769
 20
2481426.06884615
 10
795107.21
 20
2481425.105
 10
795106.874
 20
2481424.958
 10
795106.904545455
 20
2481424.96181818
 10
795104.96519084
 20
2481415.75175573
 10
795105.283913044
 20
2481412.32728261
 10
795106.02338983
 20
2481405.9920339
 10
795103.782903226
 20
2481401.53741936
 10
795107.329252336
 20
2481369.64934579
 10
795109.459101124
 20
2481359.21
 10
795115.405555556
 20
2481327.13518518
 10
795115.3
 20
2481326.72
 10
795114.906857143
 20
2481326.30228571
 10
795117.154963504
 20
2481310.86021898
 10
795118.251363636
 20
2481307.18236364
 10
795118.095
 20
2481306.295
 10
795130.283846154
 20
2481245.235
 10
795131.598450704
 20
2481237.97859155
 10
795132.541428571
 20
2481233.84714286
 10
795132.588461539
 20
2481233.83538462
 10
795133.195322581
 20
2481233.73177419
 10
795135.238426966
 20
2481214.90926966
 10
795135.750700637
 20
2481212.39528662
 10
795135.619
 20
2481206.605
 10
795138.580721649
 20
2481186.23391753
 10
795139.858222222
 20
2481172.71155556
 10
795142.238648649
 20
2481159.97540541
 10
795144.598181818
 20
2481139.53272727
 10
795144.352307692
 20
2481139
 10
795144.248214286
 20
2481138.69928571
 10
795144.988225806
 20
2481126.12822581
 10
795159.258571429
 20
2481087.72071429
 10
795164.5308
 20
2481070.638
 10
795161.502
 20
2481069.1236
 10
795163.212636364
 20
2481062.07136364
 10
795159.874818182
 20
2481060.40245455
 10
795159.323
 20
2481058.747
 10
795162.485789474
 20
2481044.40263158
 10
795162.16631579
 20
2481044.0831579
 10
795160.603947368
 20
2481043.04157895
 10
795161.310071174
 20
2481035.80241993
 10
795161.089888476
 20
2481035.30524164
 10
795163.656875
 20
2481016.26928571
 10
795162.971034483
 20
2481014.24172414
 10
795166.043357314
 20
2480996.44669065
 10
795164.076843501
 20
2480989.90535809
 10
795161.600284974
 20
2480987.31784974
 10
795160.685444444
 20
2480982.47588889
 10
795160.274547677
 20
2480976.16794621
 10
795159.545873016
 20
2480969.90825397
 10
795158.647787611
 20
2480960.96150442
 10
795162.78425
 20
2480948.91255
 10
795161.9825
 20
2480948.59185
 10
795160.555545617
 20
2480940.28397138
 10
795160.797447761
 20
2480938.49867164
 10
795159.809316239
 20
2480939.39947009
 10
795159.637981982
 20
2480933.13353153
 10
795157.416363636
 20
2480926.70818182
 10
795158.292647059
 20
2480926.77558824
 10
795158.953333333
 20
2480926.97666667
 10
795158.711327434
 20
2480923.16075221
 10
795158.668472222
 20
2480922.94791667
 10
795160.274705882
 20
2480919.36441176
 10
795164.5514
 20
2480893.1194
 10
795162.6584
 20
2480891.9836
 10
795160.3868
 20
2480890.8478
 10
795158.778470588
 20
2480882.47717647
 10
795156.971647059
 20
2480881.12205882
 10
795158.649411765
 20
2480863.37647059
 10
795156.6335
 20
2480862.08475
 10
795154.87475
 20
2480861.0295
 10
795152.76425
 20
2480859.97425
 10
795150.434054054
 20
2480852.73837838
 10
795150.064395604
 20
2480837.61318681
 10
795149.774065934
 20
2480837.46802198
 10
795149.048241758
 20
2480837.03252747
 10
795149.262323232
 20
2480836.00757576
 10
795148.254468085
 20
2480836.11829787
 10
795137.670277778
 20
2480841.14777778
 10
795137.166388889
 20
2480840.89583333
 10
795101.07815534
 20
2480894.6468932
 10
795100.646893204
 20
2480894.43126214
 10
795095.15631068
 20
2480892.07815534
 10
795099.833239991
 20
2480901.83082265
 10
795099.571642066
 20
2480903.37842251
 10
795105.124464945
 20
2480907.08030443
 10
795105.389273743
 20
2480907.29667598
 10
795105.535321638
 20
2480907.79552632
 10
795112.905380117
 20
2480911.48055556
 10
795113.006931034
 20
2480913.19334483
 10
795119.51384083
 20
2480916.52370242
 10
795118.610933735
 20
2480919.3639006
 10
795118.190546448
 20
2480922.02770492
 10
795123.121141304
 20
2480925.05043478
 10
795127.713357664
 20
2480927.03187956
 10
795132.738833333
 20
2480928.465
 10
795135.94494382
 20
2480929.34741573
 10
795128.583928571
 20
2480949.43392857
 10
795133.809139785
 20
2480948.1111828
 10
795134.944408602
 20
2480948.6788172
 10
795142.86196319
 20
2480940.81398773
 10
795103.607360483
 20
2481016.80368024
 10
795106.004600302
 20
2481018.40184012
 10
795091.367397661
 20
2481053.83426901
 10
795085.97
 20
2481060.8175
 10
795079.15475
 20
2481057.672
 10
795077.25175
 20
2481057.19625
 10
795074.155669782
 20
2481049.34859813
 10
795062.870852273
 20
2481069.27901515
 10
795059.649166667
 20
2481071.42680556
 10
795052.988373333
 20
2481080.03488
 10
795050.643533333
 20
2481079.25326667
 10
795048.298693333
 20
2481078.47165333
 10
795037.162054455
 20
2481097.78373762
 10
795037.97289604
 20
2481098.18915842
 10
795038.783737624
 20
2481098.59457921
 10
795039.435206897
 20
2481099
 10
795040.740827586
 20
2481099.4352069
 10
795044.580714286
 20
2481101.14642857
 10
795044.582759857
 20
2481121.24007168
 10
795036.404134615
 20
2481151.86317308
 10
795038.433846154
 20
2481150.55692308
 10
795035.65125
 20
2481164.38064655
 10
795038.0640625
 20
2481164.0121875
 10
795036.936065574
 20
2481178.38967213
 10
795036.8575
 20
2481184.950625
 10
795031.718452381
 20
2481196.28738095
 10
795031.423508772
 20
2481196.21175439
 10
795029.847017544
 20
2481196.21175439
 10
795030.270526316
 20
2481196.42350877
 10
795023.282631579
 20
2481217.67835526
 10
795001.594411765
 20
2481285.76160428
 10
795000.572618182
 20
2481285.81683636
 10
795000.718603352
 20
2481285.90620112
 10
795000.493830339
 20
2481287.33230904
 10
794999.689560976
 20
2481289.89036585
 10
795000.096641929
 20
2481288.99042672
 10
794999.81375
 20
2481290.425625
 10
794994.081894273
 20
2481335.03740088
 10
794987.886322581
 20
2481356.66722581
 10
794983.99453202
 20
2481385.33211823
 10
794980.876808511
 20
2481384.95893617
 10
794980.699575472
 20
2481385.90127358
 10
794983.672264151
 20
2481386.89216981
 10
794982.409340659
 20
2481392.42626374
 10
794973.356032609
 20
2481441.15331522
 10
794963.057619048
 20
2481487.90169312
 10
794962.696861314
 20
2481488.24240876
 10
794962.727687861
 20
2481488.38393064
 10
794958.069705882
 20
2481505.19105882
 10
794951.177323944
 20
2481528.69394366
 10
794939.012026144
 20
2481574.75300654
 10
794938.422129436
 20
2481582.57377871
 10
794938.017573771
 20
2481587.01845902
 10
794931.607402135
 20
2481672.95092527
 10
794931.343333333
 20
2481673
 10
794931.900555555
 20
2481673.65009259
 10
794933.08939759
 20
2481678.18877108
 10
794932.584644195
 20
2481687.16280899
 10
794932.320444444
 20
2481700.03311111
 10
794939.938070175
 20
2481688.54982456
 10
794935.425763889
 20
2481767.67506944
 10
794934.53512605
 20
2481767.81689076
 10
794934.9105
 20
2481768
 10
794937.387906977
 20
2481768.42348837
 10
794939.166857143
 20
2481768.76390476
 10
794930.560909091
 20
2481826.33454545
 10
794928.204253731
 20
2481830.25253731
 10
794922.730952381
 20
2481872
 10
794926.5925
 20
2481889.93
 10
794927.858351064
 20
2481897.17829787
 10
794930.681269035
 20
2481900.04832487
 10
794937.232874251
 20
2481959.19634731
 10
794932.796041667
 20
2481960
 10
794932.982444444
 20
2482060.40896296
 10
794932.973220339
 20
2482060.80871671
 10
794932.957978723
 20
2482061.00840426
 10
794933.351111111
 20
2482061
 10
794938.109459459
 20
2482060.77810811
 10
794940.380588235
 20
2482082.73235294
 10
794946.015378151
 20
2482131.71168067
 10
794950.475619224
 20
2482151.09534196
 10
794950.781440678
 20
2482151.07285311
 10
794951.240437236
 20
2482151.5370804
 10
794967.805775862
 20
2482244.42695402
 10
794967.838615024
 20
2482245.49382629
 10
794968.634646154
 20
2482250.06089231
 10
794969.347192982
 20
2482251.57814992
 10
794969.509002058
 20
2482252.01564815
 10
794978.579595142
 20
2482271.89797571
 10
794987.418857645
 20
2482297.7054833
 10
794989.695475763
 20
2482296.12964093
 10
795007.439725
 20
2482344.853425
 10
795006.076206896
 20
2482345.56951724
 10
795016.86861167
 20
2482365.06374245
 10
795022.859828767
 20
2482379.46195205
 10
795047.389408867
 20
2482433.24423645
 10
795049.690227273
 20
2482437.02435065
 10
795050.22288499
 20
2482437.7357115
 10
795064.99042029
 20
2482460.24492754
 10
795072.612419006
 20
2482473.71149028
 10
795082.254729521
 20
2482488.62751159
 10
795101.602896552
 20
2482527.19855172
 10
795103.43760841
 20
2482530.59402103
 10
795150.276631579
 20
2482616.86168421
 10
795148.681351351
 20
2482617.89637066
 10
795155.109504976
 20
2482621.83875915
 10
795155.310599441
 20
2482621.79628707
 10
795155.404933159
 20
2482621.69696502
 10
795162.514520276
 20
2482621.83664645
 10
795163.906811146
 20
2482623.27785139
 10
795164.495965472
 20
2482623.32232782
 10
795164.815773684
 20
2482623.59508345
 10
795172.754445378
 20
2482627.2923307
 10
795178.802618005
 20
2482627.46104883
 10
795214.524144012
 20
2482696.26850075
 10
795214.390424957
 20
2482696.35293941
 10
795222.266587184
 20
2482708.43301221
 10
795222.903442026
 20
2482708.63049118
 10
795223.36966671
 20
2482709.08003582
 10
795223.680952795
 20
2482709.26947473
 10
795224.051579244
 20
2482709.53540245
 10
795224.388406317
 20
2482709.73649776
 10
795224.610069721
 20
2482709.76027353
 10
795224.835633361
 20
2482709.78429651
 10
795225.311192349
 20
2482709.85034518
 10
795230.29092282
 20
2482706.58912753
 10
795230.825687941
 20
2482706.76113702
 10
795231.981951685
 20
2482706.70464717
 10
795236.107085714
 20
2482704.34779683
 10
795240.196516498
 20
2482701.95314086
 10
795243.095501859
 20
2482703.81337546
 10
795247.024888559
 20
2482701.52181278
 10
795250.591716141
 20
2482705.57586271
 10
795256.801301627
 20
2482712.71614518
 10
795269.854372624
 20
2482726.44644487
 10
795276.106301887
 20
2482722.80743396
 10
795300.970819277
 20
2482756.68612048
 10
795299.638253968
 20
2482758.18087302
 10
795299.65272381
 20
2482758.21704762
 10
795300.789332314
 20
2482759.20114109
 10
795300.818411578
 20
2482759.19581163
 10
795300.814019317
 20
2482759.16568768
 10
795300.901908085
 20
2482759.24098876
 10
795300.952307342
 20
2482759.28463592
 10
795300.977720916
 20
2482759.29317717
 10
795301.005923935
 20
2482759.30463589
 10
795301.035068689
 20
2482759.31647723
 10
795301.056236163
 20
2482759.31753538
 10
795301.158933481
 20
2482759.41792116
 10
795301.513177684
 20
2482759.81597254
 10
795301.255998403
 20
2482759.45623003
 10
795322.510647436
 20
2482769.44790385
 10
795325.014909218
 20
2482770.17288408
 10
795330.306846307
 20
2482770.98998004
 10
795346.501184056
 20
2482785.21150059
 10
795359.414254317
 20
2482795.93726845
 10
795362.853429812
 20
2482797.10913169
 10
795365.447669903
 20
2482797.24934813
 10
795366.399166667
 20
2482795.7615113
 10
795367.251376812
 20
2482794.0022029
 10
795390.063636364
 20
2482819.67348485
 10
795390.102755556
 20
2482819.59004444
 10
795390.171824324
 20
2482819.52227477
 10
795391.228888889
 20
2482820.86648148
 10
795391.2253125
 20
2482820.92489583
 10
795392.932295597
 20
2482821.32440252
 10
795393.438287982
 20
2482821.30463719
 10
795404.34723931
 20
2482830.2287997
 10
795408.729646202
 20
2482833.22940687
 10
795416.562459283
 20
2482840.06726384
 10
795430.3457625
 20
2482848.7615625
 10
795433.204898734
 20
2482846.079
 10
795460.029851117
 20
2482878.03980149
 10
795461.330347072
 20
2482878.67505423
 10
795467.253762376
 20
2482884.95519802
 10
795467.443076923
 20
2482884.91769231
 10
795469.313853211
 20
2482883.68614679
 10
795473.826465116
 20
2482887.23230233
 10
795479.437498182
 20
2482889.71581818
 10
795482.502629108
 20
2482891.50262911
 10
795519.43765625
 20
2482920.32332031
 10
795531.081181102
 20
2482926.07110236
 10
795536.4548
 20
2482929.18366
 10
795537.7376
 20
2482929.33942857
 10
795553.537266187
 20
2482939.15489209
 10
795554.827671233
 20
2482938.17232877
 10
795558.521236515
 20
2482939.55674689
 10
795562.15797048
 20
2482942.05269373
 10
795575.785415335
 20
2482945.97525559
 10
795584.005478645
 20
2482947.3294109
 10
795640.066788194
 20
2482994.93321181
 10
795639.142177419
 20
2482996.47709677
 10
795639.835944444
 20
2482995.90177778
 10
795656.539685139
 20
2483001.87416877
 10
795661.656585366
 20
2483005.73121951
 10
795700.269351351
 20
2483034.50259459
 10
795710.834608434
 20
2483041.14912651
 10
795713.166489899
 20
2483042.37542929
 10
795724.124825581
 20
2483049.87517442
 10
795726.58
 20
2483048.025
 10
795726.8249
 20
2483047.9144
 10
795751.506317992
 20
2483068.97983264
 10
795758.965485714
 20
2483078.60251429
 10
795783.6575
 20
2483105.39875
 10
795796.391794872
 20
2483118.60820513
 10
795803.035892857
 20
2483125.30660714
 10
795805.502573529
 20
2483125.97933824
 10
795828.461348837
 20
2483143.26209302
 10
795835.481406844
 20
2483148.8856654
 10
795839.620038911
 20
2483146.36649805
 10
795839.729816176
 20
2483141.80970588
 10
795844.740714286
 20
2483140.74071429
 10
795844.580176678
 20
2483138.78215548
 10
795845.326610169
 20
2483135.21420339
 10
795846.031180555
 20
2483133.06444444
 10
795846.977420495
 20
2483131.04215548
 10
795851.596090226
 20
2483130.51496241
 10
795851.051304348
 20
2483128.08521739
 10
795855.269495798
 20
2483127.97226891
 10
795856.98879668
 20
2483124.84834025
 10
795857.580482456
 20
2483120.99736842
 10
795859.213513513
 20
2483118.22774775
 10
795867.761356784
 20
2483116.89673367
 10
795869.234397906
 20
2483113.14759162
 10
795868.93
 20
2483108.97372881
 10
795869.412741936
 20
2483105.44725806
 10
795876.23
 20
2483106.66
 10
795873.830378788
 20
2483095.45719697
 10
795875.581590909
 20
2483093.70598485
 10
795880.747666667
 20
2483093.48708333
 10
795881.378782609
 20
2483089.5426087
 10
795881.373679245
 20
2483083.85235849
 10
795878.558153846
 20
2483077.21076923
 10
795876.020869565
 20
2483069.02226087
 10
795877.132327586
 20
2483067.64318966
 10
795876.669090909
 20
2483052.97909091
 10
795877.292783505
 20
2483052.65742268
 10
795876.781858407
 20
2483050.94716814
 10
795882.65
 20
2483047.905
 10
795879.108333333
 20
2483035.89166667
 10
795878.761624365
 20
2483033.84309645
 10
795884.42285
 20
2483025.04385
 10
795884.417947368
 20
2483024.77747368
 10
795884.4125
 20
2483024.516
 10
795887.152432432
 20
2483017.94016216
 10
795886.986832298
 20
2483016.77795031
 10
795892.652634731
 20
2483006.19844311
 10
795891.89615942
 20
2483003.52202899
 10
795889.912788462
 20
2482999.43057692
 10
795886.76832
 20
2482982.37968
 10
795883.685566038
 20
2482977.24367925
 10
795880.896803279
 20
2482967.45155738
 10
795880.616821705
 20
2482962.68325581
 10
795872.122871287
 20
2482950.97118812
 10
795869.552197802
 20
2482943.5521978
 10
795869.98516129
 20
2482942.06322581
 10
795872.157173913
 20
2482938.78304348
 10
795872.574044944
 20
2482934.89224719
 10
795873.778222222
 20
2482933.20511111
 10
795875.211
 20
2482931.77233333
 10
795873.322470588
 20
2482926.61035294
 10
795876.292891566
 20
2482924.52987952
 10
795871.875514019
 20
2482920.46364486
 10
795871.82
 20
2482919.209375
 10
795870.46568
 20
2482917.64864
 10
795853.513027027
 20
2482904.57978378
  0
LWPOLYLINE
  5
2000D
100
AcDbEntity
  8
0
100
AcDbPolyline
 70
0
 90
12
 10
795911.611704545
 20
2479541.30215909
 10
795902.43358209
 20
2479545.14686567
 10
795902.89365
 20
2479551.10635
 10
795898.583251534
 20
2479561.25852761
 10
795902.75595092
 20
2479564.59668712
 10
795918.496111111
 20
2479558.49611111
 10
795937.970646388
 20
2479528.79910646
 10
795934.453023649
 20
2479531.08234797
 10
795931.091689498
 20
2479532.58657534
 10
795927.528447489
 20
2479529.73598173
 10
795912.02005814
 20
2479541.42424419
 10
795911.611704545
 20
2479541.30215909
  0
LWPOLYLINE
  5
2000E
100
AcDbEntity
  8
0
100
AcDbPolyline
 70
0
 90
7
 10
795885.90992126
 20
2483032.73086614
 10
795886.235128205
 20
2483032.71683761
 10
795886.526666667
 20
2483028.47333333
 10
795886.021333333
 20
2483028.726
 10
795885.137
 20
2483029.484
 10
795881.834285714
 20
2483033.16571429
 10
795885.90992126
 20
2483032.73086614
  0
LWPOLYLINE
  5
2000F
100
AcDbEntity
  8
0
100
AcDbPolyline
 70
0
 90
600
 10
795992.282332545
 20
2482955.08794326
 10
795931.842639594
 20
2482912.25344162
 10
795847.166918919
 20
2482846.97664865
 10
795845.904421053
 20
2482843.95621053
 10
795844.315130785
 20
2482841.79287726
 10
795842.65022082
 20
2482839.98107256
 10
795838.294570447
 20
2482837.15601375
 10
795837.163773585
 20
2482841.00754717
 10
795830.201789474
 20
2482831.84773684
 10
795827.147112971
 20
2482828.84820084
 10
795821.136481481
 20
2482823.46481481
 10
795816.810529801
 20
2482819.16569536
 10
795804.208433735
 20
2482804.73060241
 10
795764.072929936
 20
2482776.98598726
 10
795759.721007752
 20
2482762.30085271
 10
795755.845601751
 20
2482752.88148797
 10
795753.12
 20
2482745.88
 10
795744.900674157
 20
2482741.71168539
 10
795734.419855422
 20
2482736.18255422
 10
795726.411991435
 20
2482733.43383298
 10
795715.02449827
 20
2482728.33536332
 10
795707.15161744
 20
2482723.23375527
 10
795664.580991453
 20
2482683.64417094
 10
795659.921025641
 20
2482679.74781297
 10
795658.105454545
 20
2482677.68068182
 10
795654.341903585
 20
2482673.29522868
 10
795652.047953757
 20
2482672.05197688
 10
795650.188185654
 20
2482669.64320675
 10
795647.865310958
 20
2482668.96110563
 10
795587.96469546
 20
2482611.71880399
 10
795559.492404494
 20
2482601.92647191
 10
795552.434661017
 20
2482597.06838983
 10
795547.197728195
 20
2482594.67310345
 10
795492.567385445
 20
2482557.47654987
 10
795490.941767956
 20
2482556.85779006
 10
795489.678887262
 20
2482553.48679356
 10
795486.261982609
 20
2482541.22149565
 10
795480.929056604
 20
2482529.71396226
 10
795480.933617021
 20
2482529.54978723
 10
795476.468342857
 20
2482526.06651429
 10
795475.783614458
 20
2482526.07277108
 10
795465.801092896
 20
2482523.2220765
 10
795464.108521739
 20
2482523.32718841
 10
795451.967462687
 20
2482519.21781095
 10
795449.317112299
 20
2482518.49925134
 10
795445.347940298
 20
2482517.23761194
 10
795439.432625698
 20
2482516.73944134
 10
795434.170680628
 20
2482515.60356021
 10
795429.410746269
 20
2482512.49767164
 10
795423.6776
 20
2482509.96293333
 10
795417.919064327
 20
2482507.95111111
 10
795410.554612795
 20
2482503.17319865
 10
795406.393353474
 20
2482502.21703927
 10
795394.216779026
 20
2482491.50561798
 10
795383.496066946
 20
2482487.67732218
 10
795383.38
 20
2482487.64177778
 10
795383.278746082
 20
2482487.57178683
 10
795382.775737705
 20
2482487.11213115
 10
795384.917303371
 20
2482485.38157303
 10
795378.504171779
 20
2482479.19177914
 10
795360.297195402
 20
2482465.79356322
 10
795353.218955513
 20
2482458.58777563
 10
795351.525611511
 20
2482455.29676259
 10
795352.251768595
 20
2482450.3094876
 10
795351.484084084
 20
2482445.99621622
 10
795352.163856115
 20
2482443.70198561
 10
795217.4564467
 20
2482320.40954315
 10
795198.5616
 20
2482306.1144
 10
795196.383333333
 20
2482306.45333333
 10
795190.113716012
 20
2482305.31697885
 10
795184.912681388
 20
2482303.91596215
 10
795179.451428571
 20
2482300.22380952
 10
795173.162205882
 20
2482295.26294118
 10
795168.234545455
 20
2482289.92181818
 10
795146.110909091
 20
2482255.35363636
 10
795134.057078652
 20
2482234.65617978
 10
795133.12038835
 20
2482231.65980582
 10
795132.418
 20
2482228.84833333
 10
795132.74852459
 20
2482228.44327869
 10
795126.090299401
 20
2482201.65437126
 10
795125.294723926
 20
2482201.44785276
 10
795125.068027211
 20
2482200.02530612
 10
795124.847218045
 20
2482198.52210526
 10
795123.999344262
 20
2482197.14065574
 10
795123.253454546
 20
2482195.29890909
 10
795122.116078431
 20
2482193.90784314
 10
795120.731235955
 20
2482191.21393258
 10
795118.8976
 20
2482186.90346667
 10
795117
 20
2482184.25705882
 10
795114.364444444
 20
2482176.46666667
 10
795109.620444444
 20
2482169.08711111
 10
795105.14
 20
2482158.01777778
 10
795101.705762712
 20
2482146.5240678
 10
795094.395
 20
2482128.7675
 10
795095.080851064
 20
2482105.53021277
 10
795095.78
 20
2482094.7
 10
795098.163636364
 20
2482085.40727273
 10
795100.716226415
 20
2482077.43773585
 10
795101.627619048
 20
2482063.99809524
 10
795101.976428572
 20
2482057.78928571
 10
795109.185882353
 20
2482050.33176471
 10
795109.737931035
 20
2482048.84827586
 10
795110.986666667
 20
2482038.62666667
 10
795109.68
 20
2482038.58
 10
795107.824
 20
2482038.464
 10
795106.945714286
 20
2482030.95714286
 10
795109.568421053
 20
2482029.58947368
 10
795116.663529412
 20
2482001.50588235
 10
795136.259285714
 20
2481899.95285714
 10
795136.384376731
 20
2481897.86626039
 10
795135.445811138
 20
2481894.54305085
 10
795136.147414634
 20
2481894.60380488
 10
795135.943496504
 20
2481893.55440559
 10
795134.253688213
 20
2481889.53741445
 10
795137.388888889
 20
2481860.03583333
 10
795136.009722222
 20
2481859.85194444
 10
795135.366111111
 20
2481859.76
 10
795133.619166667
 20
2481859.48416667
 10
795132.975555556
 20
2481859.39222222
 10
795131.780277778
 20
2481859.20833333
 10
795130.493055556
 20
2481859.02444444
 10
795129.267755102
 20
2481859.12952381
 10
795130.973565217
 20
2481855.03965217
 10
795133.089358491
 20
2481849.46777358
 10
795134.67426009
 20
2481844.85757848
 10
795135.414897959
 20
2481840.77816327
 10
795138.3304
 20
2481830.632
 10
795144.752527473
 20
2481802.28967033
 10
795148.238333333
 20
2481783.07833333
 10
795153.527630058
 20
2481722.87468208
 10
795153.411428571
 20
2481717.8173913
 10
795157.628811189
 20
2481709.13202797
 10
795158.405217391
 20
2481707.90086957
 10
795158.24
 20
2481707.74666667
 10
795158.52
 20
2481707.42
 10
795157.449411765
 20
2481696.59058824
 10
795155.774084507
 20
2481676.6456338
 10
795158.123902439
 20
2481654.51512195
 10
795158.466666667
 20
2481644.68
 10
795158.337777778
 20
2481633.72444444
 10
795159.187692308
 20
2481625.79692308
 10
795160.33
 20
2481611.645
 10
795162.651707317
 20
2481596.3502439
 10
795163.881690141
 20
2481572.49408451
 10
795169.971360382
 20
2481550.98892601
 10
795171.438090692
 20
2481551.18023866
 10
795171.756945107
 20
2481551.24400955
 10
795172.458424821
 20
2481551.37155131
 10
795172.904821002
 20
2481551.4353222
 10
795173.563422983
 20
2481551.80469438
 10
795174.28205379
 20
2481551.93535452
 10
795217.971015801
 20
2481408.22194131
 10
795202.081171548
 20
2481332.88066946
 10
795195.203550296
 20
2481355.28142012
 10
795194.679490446
 20
2481355.22649682
 10
795170.14955414
 20
2481407.35261146
 10
795170.12
 20
2481403.88
 10
795168.86
 20
2481403.46
 10
795169.424827586
 20
2481397.68717241
 10
795170.212857143
 20
2481390.98428571
 10
795169.506573427
 20
2481381.29314685
 10
795169.513207547
 20
2481377.82792453
 10
795169.064431138
 20
2481376.19377245
 10
795168.537109827
 20
2481374.99468208
 10
795168.788985507
 20
2481356.85449275
 10
795168.804183007
 20
2481355.78849673
 10
795166.275526316
 20
2481354.36131579
 10
795166.16173913
 20
2481353.80521739
 10
795167.215
 20
2481345.405
 10
795168.906915888
 20
2481337.09682243
 10
795169.030967742
 20
2481335.80258064
 10
795165.194526316
 20
2481332.39031579
 10
795173.252727273
 20
2481295.05454545
 10
795180.303820225
 20
2481263.04898876
 10
795173.950769231
 20
2481273.39076923
 10
795174.318857143
 20
2481267.34857143
 10
795174.820444444
 20
2481249.75288889
 10
795174.193846154
 20
2481249.08307692
 10
795174.24
 20
2481249.06
 10
795174.298285714
 20
2481248.10514286
 10
795178.992079208
 20
2481220.3049505
 10
795181.664
 20
2481204.056
 10
795183.104
 20
2481195.192
 10
795185.302857143
 20
2481184.25714286
 10
795186.589793103
 20
2481178.04993103
 10
795187.04372093
 20
2481168.38604651
 10
795188.4
 20
2481155.56
 10
795189.016
 20
2481155.672
 10
795190.876923077
 20
2481144.01538462
 10
795193.6525
 20
2481129.43
 10
795199.076666667
 20
2481108.67666667
 10
795200.274954955
 20
2481103.04216216
 10
795201.106516854
 20
2481088.23370787
 10
795202.600930233
 20
2481080.79813953
 10
795202.52097561
 20
2481076.66048781
 10
795202.946788991
 20
2481065.55779817
 10
795202.738461538
 20
2481062.49538462
 10
795204.233846154
 20
2481050.15846154
 10
795209.273939394
 20
2481032.62424242
 10
795209.312727273
 20
2481028.28
 10
795208.531428571
 20
2481026.08571429
 10
795212.074146342
 20
2481006.25268293
 10
795212.467777778
 20
2480997.54555556
 10
795212.398834951
 20
2480994.07961165
 10
795214.21915493
 20
2480985.38985915
 10
795213.288615385
 20
2480976.73230769
 10
795212.244958678
 20
2480969.3368595
 10
795214.053735849
 20
2480964.17056604
 10
795213.868377359
 20
2480964.07788679
 10
795213.544
 20
2480963.8925283
 10
795211.475789474
 20
2480957.41473684
 10
795210.493333333
 20
2480956.74666667
 10
795212.285333333
 20
2480950.624
 10
795212.313972603
 20
2480948.91178082
 10
795210.115789474
 20
2480944.40789474
 10
795211.106818182
 20
2480933.22909091
 10
795211.584
 20
2480929.28
 10
795213.939130435
 20
2480917.6973913
 10
795215.617142857
 20
2480910.78857143
 10
795216.64
 20
2480905.68
 10
795217.826666667
 20
2480901.06666667
 10
795217.29
 20
2480892.94
 10
795218.207088608
 20
2480885.58582278
 10
795220.163577236
 20
2480878.70048781
 10
795218.128
 20
2480867.648
 10
795218.352340425
 20
2480866.73361702
 10
795214.919705882
 20
2480861.15647059
 10
795214.928
 20
2480861.1168
 10
795214.927407407
 20
2480860.95851852
 10
795214.944
 20
2480860.96266667
 10
795214.953333333
 20
2480860.95333333
 10
795215.56
 20
2480861.04
 10
795220.032
 20
2480851.888
 10
795220.815319149
 20
2480850.26382979
 10
795223.862068966
 20
2480843.23448276
 10
795232.143157895
 20
2480826.46105263
 10
795242.198095238
 20
2480804.56190476
 10
795243.116470588
 20
2480802.04588235
 10
795246.339310345
 20
2480795.33655172
 10
795245.031428571
 20
2480790.31428571
 10
795253.342424242
 20
2480778.98909091
 10
795254.24
 20
2480771.60580645
 10
795254.017419355
 20
2480771.47225806
 10
795252.549497207
 20
2480764.58636871
 10
795251.634666667
 20
2480763.06133333
 10
795251.836363636
 20
2480763.06909091
 10
795251.72
 20
2480762.72
 10
795251.72
 20
2480762.08
 10
795251.48
 20
2480761.56
 10
795251.835714286
 20
2480760.11285714
 10
795251.96
 20
2480759.848
 10
795252.466666667
 20
2480759
 10
795252.53
 20
2480758.69
 10
795255.44
 20
2480748.66666667
 10
795257.486
 20
2480744.678
 10
795260.777391304
 20
2480735.08695652
 10
795269.48
 20
2480720.04
 10
795294.014545455
 20
2480678.67636364
 10
795295.420240964
 20
2480674.32481928
 10
795296.157391304
 20
2480664.0773913
 10
795296.1408
 20
2480660.4144
 10
795296.582278481
 20
2480656.01012658
 10
795297.94
 20
2480645.744
 10
795298.795555555
 20
2480642.25333333
 10
795301.119354839
 20
2480631.65548387
 10
795299.785882353
 20
2480625.34588235
 10
795300.105806452
 20
2480620.22709677
 10
795299.811076923
 20
2480617.54646154
 10
795305.56
 20
2480603.08
 10
795312.7525
 20
2480575.43
 10
795312.764444444
 20
2480575.38222222
 10
795314.18
 20
2480575.908
 10
795328.808
 20
2480542.38171429
 10
795330.737931035
 20
2480534.96275862
 10
795337.006666667
 20
2480518.72285714
 10
795342.045714286
 20
2480506.70666667
 10
795345.259259259
 20
2480493.72888889
 10
795347.45
 20
2480479.27
 10
795347.525405405
 20
2480478.24108108
 10
795347.51
 20
2480478.2
 10
795347.552
 20
2480478.004
 10
795350.88
 20
2480456.84
 10
795350.75625
 20
2480452.055
 10
795347.526857143
 20
2480443.35885714
 10
795346.228571429
 20
2480442.38514286
 10
795348.48
 20
2480433.6962963
 10
795347.936551724
 20
2480428.84551724
 10
795343.450434783
 20
2480428.5973913
 10
795346.376666667
 20
2480417.10833333
 10
795340.638
 20
2480423.654
 10
795316.854545454
 20
2480461.31272727
 10
795316.054736842
 20
2480461.02736842
 10
795316.970434783
 20
2480461.6973913
 10
795303.391304348
 20
2480478.24695652
 10
795300.206942149
 20
2480479.84264463
 10
795267.941218274
 20
2480521.51431472
 10
795252.854463277
 20
2480539.40903955
 10
795255.1656
 20
2480541.0828
 10
795255.4968
 20
2480541.3312
 10
795251.828
 20
2480539.4968
 10
795246.385274725
 20
2480565.15824176
 10
795209.905652174
 20
2480628.94608696
 10
795209.892173913
 20
2480628.94608696
 10
795212.472307692
 20
2480631.10884615
 10
795205.777263158
 20
2480643.42821053
 10
795196.9328125
 20
2480658.3765625
 10
795164.244356436
 20
2480720.49623762
 10
795164.188085106
 20
2480720.7293617
 10
795166.080952381
 20
2480722.44857143
 10
795166.282175439
 20
2480724.05642105
 10
795165.978835979
 20
2480724.63386243
 10
795165.456395062
 20
2480731.68681481
 10
795162.581196581
 20
2480736.87008547
 10
795164.753559322
 20
2480739.13627119
 10
795163.82
 20
2480741.688
 10
795128.630344828
 20
2480810.12796935
 10
795127.031186441
 20
2480809.51559322
 10
795123.135167286
 20
2480814.8804461
 10
795086.746551476
 20
2480886.2837437
 10
795087.183632385
 20
2480886.72787746
 10
795089.36726477
 20
2480888.18363238
 10
795090.823019694
 20
2480889.63938731
 10
795085.164608721
 20
2480904.59268172
 10
795085.121062648
 20
2480905.56865963
 10
795085.487274565
 20
2480906.18561101
 10
795085.32754474
 20
2480906.87013939
 10
795085.043917247
 20
2480908.25146961
 10
795084.414574941
 20
2480910.5440065
 10
795084.453406396
 20
2480911.45849063
 10
795089.213481491
 20
2480921.38453947
 10
795088.074612546
 20
2480928.12202952
 10
795092.127822878
 20
2480930.82416974
 10
795093.280670391
 20
2480931.76614525
 10
795093.916491228
 20
2480933.93789474
 10
795099.174035088
 20
2480936.56666667
 10
795099.616137931
 20
2480944.02331034
 10
795103.889273356
 20
2480946.21038062
 10
795099.841686747
 20
2480958.94253012
 10
795097.95715847
 20
2480970.88393443
 10
795100.052826087
 20
2480972.16869565
 10
795102.004671533
 20
2480973.01087591
 10
795104.140666667
 20
2480973.62
 10
795105.503370787
 20
2480973.99505618
 10
795091.88816568
 20
2481011.14781065
 10
795091.346859903
 20
2481011.33874396
 10
795089.338743961
 20
2481010.66937198
 10
795082.882727273
 20
2481022.07151515
 10
795082.226666667
 20
2481022.50888889
 10
795064.548053333
 20
2481045.35584
 10
795063.286933333
 20
2481044.93546667
 10
795062.025813333
 20
2481044.51509333
 10
795036.995375723
 20
2481087.92046243
 10
795034.759504644
 20
2481091.52990712
 10
795032.797227723
 20
2481095.89861386
 10
795032.624449878
 20
2481095.92488998
 10
795034.474229829
 20
2481096.84977995
 10
795036.32400978
 20
2481097.77466993
 10
795035.956175908
 20
2481097.89315488
 10
795032.652631579
 20
2481112.48815789
 10
795031.370990415
 20
2481119.34402556
 10
795032.603535912
 20
2481123.25325967
 10
795032.606164875
 20
2481149.07756272
 10
795021.069028571
 20
2481192.27588571
 10
795018.463304348
 20
2481191.73165217
 10
795016.194545455
 20
2481191.06484848
 10
795016.205769231
 20
2481191.08230769
 10
795011.028
 20
2481219.592
 10
794993.685925926
 20
2481282.89530864
 10
794993.303013699
 20
2481282.82575342
 10
794993.6
 20
2481282.92
 10
794994.162823529
 20
2481283.72094118
 10
794994.399394783
 20
2481294.81892174
 10
794994.462373386
 20
2481295.27691019
 10
794992.326078919
 20
2481308.83096818
 10
794978.543804878
 20
2481352.66682927
 10
794985.519703154
 20
2481337.24512059
 10
794980.671956522
 20
2481361.83923913
 10
794979.361762114
 20
2481372.03665198
 10
794976.115
 20
2481383.37166667
 10
794969.774545455
 20
2481411.41818182
 10
794966.641886792
 20
2481428.07433962
 10
794968.336603774
 20
2481428.63924528
 10
794955.251522936
 20
2481485.97768807
 10
794952.99
 20
2481485.66333333
 10
794952.594782609
 20
2481485.64869565
 10
794930.000851064
 20
2481567.85361702
 10
794928.911811024
 20
2481571.9823622
 10
794925.964724409
 20
2481571.9823622
 10
794925.93945946
 20
2481571.98789189
 10
794925.829873418
 20
2481572.82511392
 10
794925.847804878
 20
2481573.14731707
 10
794930.19030303
 20
2481582.23897927
 10
794931.046251729
 20
2481594.67651452
 10
794928.357300614
 20
2481620.33386503
 10
794927.109812109
 20
2481636.87290188
 10
794923.914482759
 20
2481671.97862069
 10
794923.916638655
 20
2481671.98957983
 10
794923.929142857
 20
2481672.66605714
 10
794924.107922438
 20
2481698.85451524
 10
794926.560963855
 20
2481708.21956627
 10
794923.258969805
 20
2481766.92589698
 10
794923.162248996
 20
2481767
 10
794924.728844221
 20
2481767.52080402
 10
794920.325884861
 20
2481813.40597015
 10
794918.044792627
 20
2481817.1483871
 10
794914.419226519
 20
2481827.12265193
 10
794912.111540786
 20
2481832.75347432
 10
794907.734790997
 20
2481857.94392283
 10
794907.345396825
 20
2481872
 10
794908
 20
2481884.64188289
 10
794910.4854102
 20
2481887.26616408
 10
794911
 20
2481891.12511111
 10
794911.571977819
 20
2481897.45301294
 10
794919.261747573
 20
2481938.09398058
 10
794921.077697842
 20
2481943.76748201
 10
794922
 20
2481945.58261981
 10
794923.373571428
 20
2481960
 10
794923.196435644
 20
2481960.30059406
 10
794924.590215827
 20
2481960.49179856
 10
794923.789152542
 20
2481995.20823245
 10
794922.985956113
 20
2482005.73128527
 10
794924.439125683
 20
2482029.30469945
 10
794922.267096774
 20
2482062.57329032
 10
794922.655037594
 20
2482062.6681203
 10
794921.011011236
 20
2482062.99842697
 10
794921.009032258
 20
2482063
 10
794923.280864619
 20
2482069.45988623
 10
794924.174602076
 20
2482072.71716263
 10
794926.428888889
 20
2482081.15294118
 10
794933.053649289
 20
2482100.32350711
 10
794944.966876155
 20
2482152.09693161
 10
794948.485423729
 20
2482151.83819209
 10
794948.565528914
 20
2482151.91921016
 10
794951.456551724
 20
2482168.13057471
 10
794951.938967136
 20
2482183.80319249
 10
794963.632861538
 20
2482250.89452308
 10
794974.100350877
 20
2482273.18341308
 10
794976.477366255
 20
2482279.61037037
 10
794982.967125506
 20
2482293.83562753
 10
795000.274938489
 20
2482344.36829526
 10
795000.396481149
 20
2482344.28416517
 10
795001.3438
 20
2482346.8854
 10
795001.239686274
 20
2482346.94007843
 10
795000.569856263
 20
2482347.47671458
 10
795020.784032922
 20
2482390.88584362
 10
795028.835795455
 20
2482407.29204545
 10
795033.222535211
 20
2482415.21577465
 10
795041.643121951
 20
2482435.45229268
 10
795041.205419355
 20
2482435.7975914
 10
795046.090666667
 20
2482444.09539048
 10
795050.452261682
 20
2482452.33084112
 10
795053.551670702
 20
2482457.00135593
 10
795068.162727273
 20
2482481.00649351
 10
795074.516803119
 20
2482489.49231969
 10
795081.08915942
 20
2482499.51014493
 10
795097.828722467
 20
2482529.08563877
 10
795098.866751592
 20
2482530.91923567
 10
795116.96630749
 20
2482564.41576873
 10
795146.474105263
 20
2482618.76294737
 10
795143.869798658
 20
2482620.45208054
 10
795144.25978022
 20
2482620.37010989
 10
795144.160099751
 20
2482620.50394015
 10
795149.198565046
 20
2482627.33944895
 10
795149.537788212
 20
2482627.09672069
 10
795161.970472344
 20
2482634.72168951
 10
795162.615271699
 20
2482634.5855049
 10
795162.917748051
 20
2482634.26703371
 10
795168.9253331
 20
2482634.3850642
 10
795172.294736842
 20
2482637.87284211
 10
795173.720515635
 20
2482637.98047697
 10
795174.494465251
 20
2482638.64055732
 10
795180.816838637
 20
2482641.58505213
 10
795185.633614935
 20
2482641.71941958
 10
795214.08230686
 20
2482696.51780645
 10
795213.824428293
 20
2482696.68064727
 10
795229.013687721
 20
2482719.97719124
 10
795230.241868798
 20
2482720.35803145
 10
795231.140987871
 20
2482721.22498288
 10
795231.741306271
 20
2482721.59031776
 10
795232.45606317
 20
2482722.1031621
 10
795233.105637625
 20
2482722.49097646
 10
795233.533117767
 20
2482722.53682828
 10
795233.968119554
 20
2482722.58315683
 10
795234.885239928
 20
2482722.71053236
 10
795238.888175866
 20
2482720.08901591
 10
795239.91778
 20
2482720.4201925
 10
795242.143979657
 20
2482720.31143039
 10
795245.396114286
 20
2482718.45335873
 10
795248.620101523
 20
2482716.56548223
 10
795254.174423792
 20
2482720.12960595
 10
795257.089153046
 20
2482718.42977712
 10
795263.912022264
 20
2482726.18463822
 10
795275.790137672
 20
2482739.84305382
 10
795295.388717949
 20
2482760.45846154
 10
795295.524266667
 20
2482760.79733333
 10
795310.173000754
 20
2482773.48043701
 10
795310.547777475
 20
2482773.41175035
 10
795310.491169539
 20
2482773.02350972
 10
795311.62388954
 20
2482773.99399817
 10
795312.273440656
 20
2482774.5565275
 10
795312.600973563
 20
2482774.66660804
 10
795312.964457139
 20
2482774.81428929
 10
795313.340077905
 20
2482774.96690182
 10
795313.612886614
 20
2482774.9805394
 10
795314.93646082
 20
2482776.27432216
 10
795319.501998653
 20
2482781.40445168
 10
795316.187444089
 20
2482776.76805112
 10
795332.757358974
 20
2482784.55746154
 10
795337.312709497
 20
2482785.87622905
 10
795341.302674651
 20
2482786.49229541
 10
795368.416975381
 20
2482810.30349355
 10
795385.503888889
 20
2482824.49611111
 10
795386.248288288
 20
2482824.56378378
 10
795386.968427673
 20
2482824.73232704
 10
795388.216281179
 20
2482824.68358277
 10
795415.11939985
 20
2482846.69191298
 10
795425.927075963
 20
2482854.09186264
 10
795445.243973941
 20
2482870.95504886
 10
795450.32685
 20
2482874.16125
 10
795451.38121519
 20
2482873.172
 10
795463.635968992
 20
2482887.77302326
 10
795462.532929293
 20
2482889
 10
795462.599075145
 20
2482889.40092486
 10
795472.350470914
 20
2482897.58193906
 10
795482.429500423
 20
2482898.43170195
 10
795487.688
 20
2482902.564
 10
795492.048058182
 20
2482904.49381818
 10
795500.310234742
 20
2482909.31023474
 10
795546.704177998
 20
2482945.51179234
 10
795547.050434783
 20
2482945.26608696
 10
795549.845798165
 20
2482943.15420183
 10
795561.762198868
 20
2482950.62661277
 10
795563.878186969
 20
2482951.76955619
 10
795574.484746888
 20
2482955.74509544
 10
795601.147896679
 20
2482974.04442804
 10
795607.379488818
 20
2482975.83814697
 10
795611.138379971
 20
2482976.4573785
 10
795636.774236111
 20
2482998.22576389
 10
795636.020176991
 20
2482999.48486726
 10
795635.876075949
 20
2483000.12392405
 10
795652.72696999
 20
2483013.59326234
 10
795659.348444444
 20
2483017.30133333
 10
795665.691726384
 20
2483020.95498371
 10
795680.083979849
 20
2483026.1009068
 10
795695.640836237
 20
2483037.82745645
 10
795719.188688946
 20
2483055.37357327
 10
795718.395737705
 20
2483056.6042623
 10
795749.034074074
 20
2483089.6745679
 10
795787.716307692
 20
2483127.28369231
 10
795814.14507177
 20
2483154.07636364
 10
795817.789714286
 20
2483161.27634286
 10
795819.742451613
 20
2483167.59019355
 10
795843.130322581
 20
2483198.86967742
 10
795858.258267717
 20
2483209.13385827
 10
795859.489836066
 20
2483208.94295082
 10
795865.72642487
 20
2483208.84974093
 10
795867.021962865
 20
2483208.33188329
 10
795870.435528701
 20
2483209.29160121
 10
795883.928865979
 20
2483211.41051546
 10
795887.79070028
 20
2483212.18039216
 10
795889.847045455
 20
2483210.9475
 10
795893.305484765
 20
2483209.03634349
 10
795897.408610354
 20
2483206.30092643
 10
795902.178643068
 20
2483206.71044248
 10
795905.629665653
 20
2483205.32291793
 10
795905.870318471
 20
2483200.95490446
 10
795906.531125828
 20
2483197.14807947
 10
795911.587508772
 20
2483195.42792982
 10
795916.456423841
 20
2483194.94887417
 10
795922.340938628
 20
2483195.50888087
 10
795925.93
 20
2483195.36931507
 10
795929.650909091
 20
2483193.35398601
 10
795932.271267606
 20
2483190.74169014
 10
795937.23579661
 20
2483188.05125424
 10
795944.103529412
 20
2483188.39529412
 10
795946.381779359
 20
2483187.42035587
 10
795946.964705882
 20
2483185.17647059
 10
795951.537471264
 20
2483184.5291954
 10
795954.963533569
 20
2483184.82939929
 10
795959.41080292
 20
2483183.69284671
 10
795963.10162963
 20
2483180.8157037
 10
795964.187259259
 20
2483179.73007407
 10
795969.939455253
 20
2483179.28498054
 10
795971.865576208
 20
2483178.64148699
 10
795975.41093633
 20
2483175.9388764
 10
795983.329032258
 20
2483175.86322581
 10
795982.848214286
 20
2483173.90035714
 10
795983.669955157
 20
2483172.96538117
 10
795984.477866667
 20
2483172.38293333
 10
796001.010588235
 20
2483168.08588235
 10
796000.977175141
 20
2483166.15096045
 10
796005.093033708
 20
2483161.30966292
 10
796005.809081081
 20
2483161.18378378
 10
796014.334651163
 20
2483162.40767442
 10
796018.188604651
 20
2483157.59023256
 10
796018.023116883
 20
2483157.10467532
 10
796018.396097561
 20
2483157.0897561
 10
796023.097777778
 20
2483154.09777778
 10
796026.538159509
 20
2483149.79730061
 10
796032.017142857
 20
2483148.98285714
  0
LWPOLYLINE
  5
20010
100
AcDbEntity
  8
0
100
AcDbPolyline
 70
0
 90
2
 10
796053.437504587
 20
2483003.29343119
 10
796019.634045308
 20
2482963.69773463
  0
LWPOLYLINE
  5
20011
100
AcDbEntity
  8
0
100
AcDbPolyline
 70
0
 90
17
 10
796076.062857143
 20
2483102.17142857
 10
796075.316842105
 20
2483099.59736842
 10
796075.349139073
 20
2483099.54463576
 10
796075.382162162
 20
2483099.44864865
 10
796075.249022556
 20
2483099.2243609
 10
796069.588235294
 20
2483086.65333333
 10
796063.572359551
 20
2483075.64089888
 10
796064.770949721
 20
2483074.38927374
 10
796065.29954023
 20
2483072.7445977
 10
796061.7736
 20
2483062.7448
 10
796063.716307692
 20
2483059.43076923
 10
796069.550434783
 20
2483058.92608696
 10
796072.098412698
 20
2483052.60126984
 10
796068.124444444
 20
2483047.6037037
 10
796069.295421687
 20
2483044.43927711
 10
796079.836645161
 20
2483039.6276129
 10
796080.764528302
 20
2483035.93509434
  0
LWPOLYLINE
  5
20012
100
AcDbEntity
  8
0
100
AcDbPolyline
 70
0
 90
4
 10
796038.16
 20
2483141.98
 10
796038.853333333
 20
2483140.87238095
 10
796038.87225
 20
2483140.87575
 10
796039.08
 20
2483140.92
  0
LWPOLYLINE
  5
20013
100
AcDbEntity
  8
0
100
AcDbPolyline
 70
0
 90
12
 10
795990.448247423
 20
2479487.72412371
 10
795964.918461539
 20
2479531.73846154
 10
795981.6416
 20
2479513.2432
 10
795966.240478088
 20
2479539.41163347
 10
795977.456615385
 20
2479532.01907692
 10
795980.806376812
 20
2479531.33275362
 10
795987.339240506
 20
2479529.74227848
 10
795989.906609442
 20
2479530.10077253
 10
795993.156756757
 20
2479528.06648649
 10
796005.216129032
 20
2479519.50322581
 10
796008.329142857
 20
2479519.29085714
 10
796022.994666667
 20
2479508.74666667
  0
LWPOLYLINE
  5
20014
100
AcDbEntity
  8
0
100
AcDbPolyline
 70
0
 90
2
 10
796092.271304348
 20
2483037.16521739
 10
796130.109230769
 20
2483044.89076923
  0
LWPOLYLINE
  5
20015
100
AcDbEntity
  8
0
100
AcDbPolyline
 70
0
 90
2
 10
795987.581449275
 20
2479484.39536232
 10
795990.47880597
 20
2479486.85014925
  0
LWPOLYLINE
  5
20016
100
AcDbEntity
  8
0
100
AcDbPolyline
 70
0
 90
119
 10
795725.17792
 20
2479761.91328
 10
795718.315622641
 20
2479768.48407547
 10
795716.52342246
 20
2479770.20085562
 10
795713.517818182
 20
2479764.43116883
 10
795710.579477976
 20
2479767.61154593
 10
795709.853737006
 20
2479768.512743
 10
795705.751855146
 20
2479765.88343932
 10
795705.631787458
 20
2479765.94473393
 10
795705.541830759
 20
2479766.01693703
 10
795705.460801258
 20
2479766.04020002
 10
795705.379632923
 20
2479766.06850137
 10
795702.451961957
 20
2479764.11672073
 10
795702.374715762
 20
2479764.14020979
 10
795702.267597718
 20
2479764.21056488
 10
795692.882758764
 20
2479758.01688308
 10
795692.772296568
 20
2479758.12223664
 10
795692.733658117
 20
2479758.07589902
 10
795692.696864098
 20
2479758.02500085
 10
795688.241212121
 20
2479756.31515152
 10
795686.684
 20
2479755.456
 10
795686.253333333
 20
2479755.25333333
 10
795686.520470588
 20
2479755.89035294
 10
795687.292519614
 20
2479757.85917392
 10
795687.344108438
 20
2479757.88333165
 10
795687.302133519
 20
2479757.95984583
 10
795687.294591276
 20
2479758.0568671
 10
795694.789663078
 20
2479764.46984163
 10
795694.783986296
 20
2479764.53860098
 10
795694.786640107
 20
2479764.56734293
 10
795694.771639212
 20
2479764.62006028
 10
795694.778505383
 20
2479764.64505164
 10
795694.759451837
 20
2479764.70623452
 10
795694.371285893
 20
2479765.45787765
 10
795697.002782609
 20
2479767.78921739
 10
795696.792212389
 20
2479768.43433628
 10
795703.248281938
 20
2479773.56370044
 10
795708.022731278
 20
2479777.38325991
 10
795706.047868852
 20
2479780.7147541
 10
795711.333258427
 20
2479781.48157303
 10
795709.88502092
 20
2479783.93556485
 10
795712.824958678
 20
2479787.54727273
 10
795711.465411765
 20
2479791.72047059
 10
795714.046823529
 20
2479793.44141176
 10
795722.568258064
 20
2479789.4443871
 10
795722.535890411
 20
2479789.83780822
 10
795731.232
 20
2479789.36
 10
795731.634285714
 20
2479789.63428571
 10
795732.86
 20
2479790.145
 10
795737.42
 20
2479786.32
 10
795735.51173913
 20
2479789.14130435
 10
795735.995
 20
2479792.425
 10
795736.85
 20
2479793.28
 10
795736.42
 20
2479793.28
 10
795738.314405594
 20
2479795.98629371
 10
795738.350489511
 20
2479796.01034965
 10
795740.563636364
 20
2479796.25090909
 10
795744.36
 20
2479798.36
 10
795744.576
 20
2479798.432
 10
795750.922926829
 20
2479796.92878049
 10
795758.7856
 20
2479788.6736
 10
795782.842051282
 20
2479771.5025641
 10
795813.4864
 20
2479731.072
 10
795813.181052632
 20
2479730.63578947
 10
795813.049032258
 20
2479730.32774194
 10
795858.140606061
 20
2479683.31272727
 10
795880.065454546
 20
2479660.09818182
 10
795881.088
 20
2479661.176
 10
795882.109787234
 20
2479661.66468085
 10
795884.744279476
 20
2479661.68052402
 10
795896.985420561
 20
2479641.97420561
 10
795896.30562212
 20
2479638.98451613
 10
795896.054736842
 20
2479634.40084211
 10
795902.353542601
 20
2479624.78618834
 10
795904.890041152
 20
2479619.55753086
 10
795905.146604651
 20
2479612.44390698
 10
795904.922060086
 20
2479605.76480687
 10
795918.069813665
 20
2479587.40571429
 10
795914.440875912
 20
2479589.1620438
 10
795931.791538462
 20
2479569.15961538
 10
795956.318373984
 20
2479521.65235772
 10
795953.391818182
 20
2479524.17818182
 10
795963.421367521
 20
2479504.94307692
 10
795966.171612903
 20
2479498.46309677
 10
795970.935513308
 20
2479491.19855513
 10
795962.369797297
 20
2479496.75844595
 10
795954.184657534
 20
2479500.42136986
 10
795952.683287671
 20
2479499.22027397
 10
795946.148837209
 20
2479504.14511628
 10
795943.425454546
 20
2479503.33090909
 10
795937.584034707
 20
2479505.77787419
 10
795926.694736842
 20
2479508.69642105
 10
795899.444601109
 20
2479529.62981091
 10
795899.575027027
 20
2479528.66906907
 10
795899.369254043
 20
2479528.04039742
 10
795891.557215466
 20
2479535.88135635
 10
795886.523646261
 20
2479532.52564355
 10
795886.414414237
 20
2479532.4385181
 10
795886.329311096
 20
2479532.3731782
 10
795877.782723005
 20
2479549.03004695
 10
795885.778967136
 20
2479555.42704225
 10
795884.81221865
 20
2479562.61594855
 10
795885.2832
 20
2479568.7168
 10
795882.199228747
 20
2479575.98040316
 10
795885.184680105
 20
2479578.36876424
 10
795898.448475676
 20
2479573.22797838
 10
795885.99625
 20
2479594.5425
 10
795861.053134328
 20
2479633.93719403
 10
795860.173643411
 20
2479633.70418605
 10
795859.644255319
 20
2479633.64425532
 10
795859.366153846
 20
2479633.77461538
 10
795859.452145749
 20
2479633.96809717
 10
795862.710809062
 20
2479638.1176699
 10
795864.164
 20
2479640.164
 10
795814.718681319
 20
2479688.06520147
 10
795787.675918367
 20
2479709.59142857
 10
795787.752727273
 20
2479709.75272727
 10
795766.1344
 20
2479733.5088
 10
795731.868235294
 20
2479771.75966387
 10
795725.17792
 20
2479761.91328
  0
LWPOLYLINE
  5
20017
100
AcDbEntity
  8
0
100
AcDbPolyline
 70
0
 90
6
 10
795070.608358209
 20
2482127.74089552
 10
795071.868235294
 20
2482131.90352941
 10
795071.133877551
 20
2482132
 10
795070.781333333
 20
2482132.04373333
 10
795070.309473684
 20
2482128.28842105
 10
795070.608358209
 20
2482127.74089552
  0
LWPOLYLINE
  5
20018
100
AcDbEntity
  8
0
100
AcDbPolyline
 70
0
 90
267
 10
796056.118479117
 20
2482945.48049645
 10
795897.460659898
 20
2482833.03736041
 10
795840.820810811
 20
2482789.37351351
 10
795838.385789474
 20
2482783.54789474
 10
795835.320472837
 20
2482779.37540241
 10
795832.109305994
 20
2482775.88091483
 10
795823.708419244
 20
2482770.43213058
 10
795821.527413985
 20
2482777.86071032
 10
795808.099605263
 20
2482760.19388158
 10
795802.207949791
 20
2482754.40857741
 10
795790.615046296
 20
2482744.02546296
 10
795782.271440397
 20
2482735.73360927
 10
795773.879245283
 20
2482726.12075472
 10
795773.240909091
 20
2482726.00727273
 10
795773.231578947
 20
2482725.76842105
 10
795760.499296765
 20
2482717.51793249
 10
795747.480940171
 20
2482705.41119658
 10
795736.337179487
 20
2482696.09351433
 10
795731.995454545
 20
2482691.15021307
 10
795722.995364648
 20
2482680.66291718
 10
795717.509653179
 20
2482677.68982659
 10
795713.062236287
 20
2482671.92953586
 10
795707.507354393
 20
2482670.29837117
 10
795564.262070875
 20
2482533.41013289
 10
795502.127183406
 20
2482512.04039301
 10
795501.803892944
 20
2482511.72445255
 10
795501.537760417
 20
2482511.51484375
 10
795501.28133515
 20
2482511.42956403
 10
795500.665857605
 20
2482510.78495146
 10
795499.897032641
 20
2482511.73026706
 10
795498.917647059
 20
2482509.79852941
 10
795498.483823529
 20
2482510.05882353
 10
795497.168041237
 20
2482508.91030928
 10
795496.134195402
 20
2482508.33649425
 10
795490.350520833
 20
2482503.90234375
 10
795484.935211268
 20
2482499.9471831
 10
795467.803991597
 20
2482481.13403361
 10
795465.105769231
 20
2482481.56923077
 10
795455.046335079
 20
2482475.0617801
 10
795451.085245902
 20
2482471.16598361
 10
795447.996864686
 20
2482468.57607261
 10
795446.279
 20
2482467.236
 10
795437.429066265
 20
2482467.31686747
 10
795436.191256831
 20
2482466.96338798
 10
795426.413913043
 20
2482467.57057971
 10
795425.683208955
 20
2482467.32325871
 10
795420.282142857
 20
2482465.85892857
 10
795421.042857143
 20
2482465.26122449
 10
795422.111404959
 20
2482457.92239669
 10
795420.64039039
 20
2482449.65743243
 10
795421.94294964
 20
2482445.26129496
 10
795345.412126246
 20
2482375.21561462
 10
795319.297692308
 20
2482349.50269231
 10
795321.511153846
 20
2482348.17461539
 10
795237.675835655
 20
2482233.35083565
 10
795238.046313364
 20
2482229.08018433
 10
795243.348968105
 20
2482218.45497186
 10
795250.243971631
 20
2482203.26666667
 10
795254.343862275
 20
2482184.37050898
 10
795259.262903226
 20
2482153.29717742
 10
795259.022844828
 20
2482145.30323276
 10
795254.73943662
 20
2482134.90915493
 10
795249.306367925
 20
2482135.03915094
 10
795253.02032967
 20
2482112.09313187
 10
795251.684615385
 20
2482103.71923077
 10
795253.65
 20
2482103.0875
 10
795253.813333333
 20
2482103.02333333
 10
795253.814230769
 20
2482102.9125
 10
795251.746842105
 20
2482095.39631579
 10
795253.984821429
 20
2482083.79821429
 10
795254.963157895
 20
2482067.47894737
 10
795247.622639225
 20
2482041.48813559
 10
795253.109878049
 20
2482041.96329268
 10
795251.515034965
 20
2482033.75594406
 10
795238.29904943
 20
2482002.33906844
 10
795262.819444444
 20
2481771.60729167
 10
795252.032986111
 20
2481770.16909722
 10
795246.999305556
 20
2481769.45
 10
795233.336458333
 20
2481767.29270833
 10
795228.302777778
 20
2481766.57361111
 10
795218.954513889
 20
2481765.13541667
 10
795208.887152778
 20
2481763.69722222
 10
795199.304081633
 20
2481764.51904762
 10
795212.645217391
 20
2481732.53217391
 10
795218.70625
 20
2481716.570625
 10
795218.878
 20
2481716.313
 10
795215.629885057
 20
2481705.28678161
 10
795208.452212389
 20
2481688.17256637
 10
795208.901680672
 20
2481685.77352941
 10
795219.754741379
 20
2481688.57025862
 10
795229.524137931
 20
2481689.87284483
 10
795239.293534483
 20
2481691.82672414
 10
795245.155172414
 20
2481692.47801724
 10
795250.797732697
 20
2481672.55178998
 10
795267.136515513
 20
2481674.68293556
 10
795270.688424821
 20
2481675.39331742
 10
795278.502625298
 20
2481676.81408115
 10
795283.475298329
 20
2481677.52446301
 10
795290.811858191
 20
2481681.6391198
 10
795298.817114914
 20
2481683.09462103
 10
795311.542776524
 20
2481641.23397291
 10
795277.404166667
 20
2481479.36666667
 10
795282.70054945
 20
2481393.7728022
 10
795291.337927107
 20
2481139.06566059
 10
795335.762805526
 20
2481031.01710946
 10
795348.042788971
 20
2480945.59220573
 10
795348.458836207
 20
2480944.38669181
 10
795355.567166867
 20
2480937.75198079
 10
795355.775695284
 20
2480937.08839178
 10
795352.948983254
 20
2480936.45759569
 10
795387.527962963
 20
2480787.83851852
 10
795391.231426649
 20
2480784.70040377
 10
795391.591836735
 20
2480784.20285714
 10
795391.448155738
 20
2480783.82622951
 10
795393.264502164
 20
2480781.16493506
 10
795398.178284389
 20
2480779.27357032
 10
795395.133832335
 20
2480779.69116766
 10
795398.292241379
 20
2480778.25141066
 10
795394.310829493
 20
2480777.2297235
 10
795397.149351702
 20
2480774.92106969
 10
795397.005211726
 20
2480774.4267101
 10
795401.141145833
 20
2480771.78020833
 10
795401.123015873
 20
2480770.31772487
 10
795396.015247019
 20
2480769.93688245
 10
795396.520086957
 20
2480768.48408696
 10
795393.473846154
 20
2480767.94948718
 10
795389.208536585
 20
2480769.30268293
 10
795394.146607143
 20
2480764.6225
 10
795440.935980551
 20
2480679.99027553
 10
795447.446596859
 20
2480677.04371728
 10
795451.479329609
 20
2480672.86312849
 10
795446.049017857
 20
2480673.67
 10
795444.250543478
 20
2480671.0736413
 10
795451.990217391
 20
2480666.81956522
 10
795442.110365854
 20
2480616.45195122
 10
795442.560447761
 20
2480615.97014925
 10
795442.033208955
 20
2480615.61865672
 10
795441.339473684
 20
2480614.85488722
 10
795440.947557841
 20
2480613.55578406
 10
795442.303877005
 20
2480612.79919786
 10
795441.837295082
 20
2480611.61106557
 10
795441.87994186
 20
2480608.82892442
 10
795439.823753666
 20
2480607.04677419
 10
795441.35109375
 20
2480604.8959375
 10
795431.922062663
 20
2480606.95156658
 10
795440.330882353
 20
2480601.98970588
 10
795441.835263158
 20
2480599.20210526
 10
795441.042
 20
2480596.53836364
 10
795441.622243346
 20
2480594.25646388
 10
795439.745864662
 20
2480593.78383459
 10
795483.309662577
 20
2480520.79003068
 10
795485.712886598
 20
2480517.02061856
 10
795484.275539568
 20
2480513.78093525
 10
795484.550555556
 20
2480512.45111111
 10
795485.067816092
 20
2480510.98275862
 10
795485.003225806
 20
2480508.08830645
 10
795487.313815789
 20
2480504.79802632
 10
795488.043835616
 20
2480502.73356164
 10
795487.375116279
 20
2480501.08534884
 10
795489.9640625
 20
2480494.6984375
 10
795489.540163934
 20
2480491.01721311
 10
795488.741525424
 20
2480487.61694915
 10
795496.694178082
 20
2480475.88767123
 10
795495.494680851
 20
2480471.33085106
 10
795490.861702128
 20
2480468.55106383
 10
795492.820992366
 20
2480462.17099237
 10
795492.773529412
 20
2480461.85588235
 10
795492.893478261
 20
2480461.92391304
 10
795492.883333333
 20
2480461.88333333
 10
795492.765625
 20
2480461.4125
 10
795493.636666667
 20
2480461.88333333
 10
795509.715625
 20
2480435.634375
 10
795530.55
 20
2480401.88571429
 10
795536.9625
 20
2480391.88125
 10
795538.65
 20
2480386.875
 10
795538.2
 20
2480386.2
 10
795538.475
 20
2480385.65
 10
795537.409375
 20
2480380.8375
 10
795535.175
 20
2480383.38125
 10
795533.154545455
 20
2480382.15454545
 10
795531.252941177
 20
2480380.62647059
 10
795531.0475
 20
2480380.365
 10
795539.92
 20
2480359.2075
 10
795539.643283582
 20
2480348.72686567
 10
795538.039130435
 20
2480345.0673913
 10
795560.394827586
 20
2480306.17413793
 10
795562.557692308
 20
2480296.95192308
 10
795564.846
 20
2480291.092
 10
795567.883333333
 20
2480285.06944444
 10
795568.390909091
 20
2480285.39090909
 10
795569.732142857
 20
2480286.18571429
 10
795570.57
 20
2480286.55
 10
795565.725
 20
2480282.725
 10
795564.542105263
 20
2480281.77105263
 10
795564.067857143
 20
2480281.37857143
 10
795563.757142857
 20
2480281.06785714
 10
795575.15
 20
2480264.80714286
 10
795586.25
 20
2480261.4375
 10
795592.91
 20
2480250.06
 10
795604.221428571
 20
2480223.57857143
 10
795616.838068182
 20
2480216.46988636
 10
795616.893085106
 20
2480215.53191489
 10
795617.248780488
 20
2480215.53397213
 10
795617.822169811
 20
2480214.60283019
 10
795633.425
 20
2480172.6375
 10
795634.055681818
 20
2480170.99772727
 10
795632.920454545
 20
2480170.99772727
 10
795643.457692308
 20
2480151.61153846
 10
795643.098076923
 20
2480150.89230769
 10
795651.85
 20
2480129.475
 10
795652.238636364
 20
2480128.35681818
 10
795654.325
 20
2480123.6625
 10
795653.8
 20
2480123.25
 10
795651.511538462
 20
2480119.78461538
 10
795652.365625
 20
2480117.775
 10
795654.076190476
 20
2480115.03809524
 10
795650.984426229
 20
2480110.66557377
 10
795692.316949153
 20
2480069.86440678
 10
795691.895238095
 20
2480073.73571429
 10
795719.980213904
 20
2480056.32700535
 10
795721.033333333
 20
2480056.82222222
 10
795721.062396694
 20
2480055.1268595
 10
795721.229952077
 20
2480054.38602236
 10
795721.479107981
 20
2480054.06502347
 10
795721.501146789
 20
2480053.5206422
 10
795721.239095745
 20
2480050.22067819
 10
795721.87966805
 20
2480051.53506224
 10
795721.849868074
 20
2480050.51418206
 10
795721.506972587
 20
2480048.25619785
 10
795843.765
 20
2479834.1
 10
795846.810294118
 20
2479819.61029412
 10
795874.517713004
 20
2479785.68497758
 10
795875.802631579
 20
2479782.24210526
 10
795875.9125
 20
2479781.9125
 10
795875.608333333
 20
2479781.30416667
 10
795874.304761905
 20
2479780.3047619
 10
795872.239285714
 20
2479778.85892857
 10
795868.655405405
 20
2479775.59324324
 10
795868.469791667
 20
2479775.19270833
 10
795890.050980392
 20
2479750.1245098
 10
795893.747777778
 20
2479747.31222222
 10
795889.293055556
 20
2479762.98055556
 10
795890.061111111
 20
2479764.51666667
 10
795975.941538461
 20
2479681.28307692
 10
795977.538596491
 20
2479674.7754386
 10
795981.429
 20
2479669.032
 10
795971.014166667
 20
2479672.81083333
 10
795988.135897436
 20
2479653.91666667
 10
795986.88
 20
2479642.33
 10
795999.327272727
 20
2479624.99545455
 10
795998.243333333
 20
2479624.08111111
 10
795997.171296296
 20
2479622.70277778
 10
795996.647368421
 20
2479621.37280702
 10
796042.35
 20
2479579.12734375
 10
796047.174166667
 20
2479578.13666667
 10
796018.536956522
 20
2479616.19347826
 10
796023.120588235
 20
2479611.83235294
 10
796065.29
 20
2479571.71
 10
796068.71875
 20
2479568.60625
 10
796071.858823529
 20
2479565.90588235
 10
796055.730769231
 20
2479593.09423077
 10
796065.76097561
 20
2479584.82926829
 10
796066.937804878
 20
2479585.77073171
 10
796070.590178571
 20
2479580.99196429
 10
796069.787234043
 20
2479584.4787234
 10
796076.051101591
 20
2479579.00446756
 10
796079.891528239
 20
2479601.76805094
  0
LWPOLYLINE
  5
20019
100
AcDbEntity
  8
0
100
AcDbPolyline
 70
0
 90
2
 10
796141.427614679
 20
2482983.90577982
 10
796127.918365696
 20
2482968.08171521
  0
LWPOLYLINE
  5
2001A
100
AcDbEntity
  8
0
100
AcDbPolyline
 70
0
 90
390
 10
795967.55979929
 20
2479473.46444072
 10
795909.67208341
 20
2479517.93343479
 10
795910.009493243
 20
2479515.44801051
 10
795909.477161715
 20
2479513.82164667
 10
795889.267538721
 20
2479534.10608619
 10
795885.767680243
 20
2479531.7728472
 10
795885.485098685
 20
2479531.54745501
 10
795885.264938177
 20
2479531.3784217
 10
795863.155046948
 20
2479574.46948357
 10
795867.971361502
 20
2479578.32253521
 10
795867.389067524
 20
2479582.65257235
 10
795867.67275
 20
2479586.32725
 10
795865.81520596
 20
2479590.7022787
 10
795867.61340929
 20
2479592.14084137
 10
795875.602486487
 20
2479589.04443243
 10
795852.987752809
 20
2479627.7541573
 10
795853.069798658
 20
2479627.99228188
 10
795851.774770642
 20
2479627.72844037
 10
795850.913157895
 20
2479627.93486842
 10
795848.835802469
 20
2479626.83580247
 10
795848.7625
 20
2479626.81
 10
795815.740397351
 20
2479658.32450331
 10
795787.202777778
 20
2479685.55925926
 10
795777.171283661
 20
2479695.39282023
 10
795773.948623853
 20
2479698.21146789
 10
795758.539304813
 20
2479712.9723262
 10
795757.851818182
 20
2479711.6525974
 10
795731.304803245
 20
2479740.38634241
 10
795724.747953108
 20
2479748.52838539
 10
795721.721912845
 20
2479746.58869549
 10
795720.507298086
 20
2479747.2087569
 10
795719.597288621
 20
2479747.93916948
 10
795718.777587422
 20
2479748.17449983
 10
795717.956481772
 20
2479748.46079869
 10
795715.688168313
 20
2479746.94858972
 10
795714.906739361
 20
2479747.18620706
 10
795713.823124294
 20
2479747.897925
 10
795706.379701883
 20
2479742.9855136
 10
795704.580327563
 20
2479744.70167076
 10
795703.950926384
 20
2479743.94685391
 10
795703.351570089
 20
2479743.11774799
 10
795696.535170796
 20
2479740.50196564
 10
795695.920533812
 20
2479739.83803274
 10
795695.260856443
 20
2479739.21704326
 10
795691.192630889
 20
2479739.72672033
 10
795683.206144156
 20
2479738.80221955
 10
795672.623668639
 20
2479744.46775148
 10
795671.368506494
 20
2479743.75795455
 10
795672.365605096
 20
2479745.18280255
 10
795672.551923077
 20
2479745.55192308
 10
795672.617335766
 20
2479745.70237226
 10
795672.373781897
 20
2479746.81903753
 10
795672.462022725
 20
2479746.87275348
 10
795670.958312515
 20
2479763.17713176
 10
795671.561000847
 20
2479763.6437446
 10
795675.099284176
 20
2479772.66680689
 10
795676.0399926
 20
2479773.10731657
 10
795675.274591177
 20
2479774.50253221
 10
795675.137060394
 20
2479776.27168928
 10
795680.965186585
 20
2479781.25838264
 10
795680.894669566
 20
2479782.11251174
 10
795680.927635229
 20
2479782.46954447
 10
795680.741294001
 20
2479783.12439973
 10
795680.826585628
 20
2479783.43484261
 10
795680.589902348
 20
2479784.19485673
 10
795675.768102372
 20
2479793.53177278
 10
795677.482360248
 20
2479795.05049689
 10
795675.213716814
 20
2479802.00088496
 10
795678.979955947
 20
2479804.99317181
 10
795681.765198238
 20
2479807.22136564
 10
795662.373360656
 20
2479839.93442623
 10
795663.387780899
 20
2479840.08160112
 10
795654.2
 20
2479855.65
 10
795654.184482759
 20
2479856.09224138
 10
795654.240990991
 20
2479856.19279279
 10
795654.304471545
 20
2479856.26097561
 10
795635.301706485
 20
2479891.71365188
 10
795614.413758389
 20
2479923.5885906
 10
795603.30625
 20
2479940.87083333
 10
795553.106382979
 20
2480010.32659574
 10
795548.612931035
 20
2480016.94913793
 10
795545.115454545
 20
2480021.11545455
 10
795545.182921811
 20
2480021.28744856
 10
795545.772368421
 20
2480024.07392344
 10
795547.574318285
 20
2480027.62458615
 10
795532.653021327
 20
2480051.06658768
 10
795521.464516129
 20
2480066.35241935
 10
795513.60731383
 20
2480078.57473404
 10
795515.657104558
 20
2480080.22211796
 10
795493.692753623
 20
2480108.01956522
 10
795493.010294118
 20
2480108.00514706
 10
795493.009408602
 20
2480108.00752688
 10
795441.769471154
 20
2480176.26346154
 10
795435.620833333
 20
2480184.53214286
 10
795435.286538461
 20
2480184.28653846
 10
795434.290878378
 20
2480184.19391892
 10
795434.304834606
 20
2480184.47862595
 10
795421.068552157
 20
2480209.74223408
 10
795412.047640449
 20
2480231.53842697
 10
795413.552364865
 20
2480232.41283784
 10
795415.966216216
 20
2480234.34391892
 10
795418.107482993
 20
2480235.54591837
 10
795391.798880597
 20
2480275.99906716
 10
795391.669834711
 20
2480276.11322314
 10
795367.091836735
 20
2480313.94387755
 10
795338.485741445
 20
2480359.09144487
 10
795336.394296578
 20
2480358.39429658
 10
795335.788593156
 20
2480358.09144487
 10
795332.223124899
 20
2480365.81173613
 10
795332.125696858
 20
2480366.25883389
 10
795331.413244424
 20
2480367.69587747
 10
795331.405114516
 20
2480368.11030832
 10
795331.049101008
 20
2480369.38747456
 10
795331.160353076
 20
2480369.69111902
 10
795328.918729259
 20
2480382.90239995
 10
795329.607706573
 20
2480391.09396338
 10
795326.100247117
 20
2480402.07018122
 10
795308.723972603
 20
2480444.55205479
 10
795309.532352941
 20
2480444.88788927
 10
795305.425
 20
2480454.7125
 10
795305.148351648
 20
2480454.68901099
 10
795300.260279188
 20
2480461.00203046
 10
795296.054147465
 20
2480465.99101382
 10
795265.75037594
 20
2480506.63994361
 10
795261.113333333
 20
2480513.82666667
 10
795245.812875537
 20
2480535.40643777
 10
795244.335427136
 20
2480535.13417085
 10
795244.338586956
 20
2480535.19347826
 10
795219.094577007
 20
2480585.1489154
 10
795212.651652893
 20
2480599.05495868
 10
795203.245454545
 20
2480624.56022727
 10
795203.21510989
 20
2480624.7032967
 10
795203.03423913
 20
2480625.01956522
 10
795202.039130435
 20
2480625.01956522
 10
795202.051923077
 20
2480625.03028846
 10
795199.65
 20
2480629.45
 10
795154.596062992
 20
2480713.67685039
 10
795154.499512195
 20
2480713.62463415
 10
795154.523529412
 20
2480713.68235294
 10
795154.325
 20
2480713.6625
 10
795154.23974359
 20
2480714.15982906
 10
795149.281177977
 20
2480726.61338028
 10
795149.372393048
 20
2480727.36945187
 10
795146.349258837
 20
2480740.23802737
 10
795141.808020478
 20
2480752.30716724
 10
795140.486363636
 20
2480756.30426136
 10
795141.090438596
 20
2480761.13105263
 10
795130.141534392
 20
2480781.97354497
 10
795130.001358025
 20
2480783.86592593
 10
795118.742982456
 20
2480804.1619883
 10
795116.334327812
 20
2480810.67496632
 10
795115.822210421
 20
2480811.80278917
 10
795117.030446334
 20
2480810.93910733
 10
795118.372262027
 20
2480815.37400205
 10
795115.929241071
 20
2480825.56080357
 10
795085.381173506
 20
2480885.50352772
 10
795086.294365427
 20
2480886.43145514
 10
795087.588730853
 20
2480887.29436543
 10
795088.451641138
 20
2480888.15727571
 10
795076.629538927
 20
2480919.39915188
 10
795076.538558238
 20
2480921.4382598
 10
795077.303683771
 20
2480922.72725459
 10
795076.969960695
 20
2480924.15743781
 10
795076.377378567
 20
2480927.04344719
 10
795075.06249545
 20
2480931.83323809
 10
795075.1436259
 20
2480933.74386722
 10
795078.59372299
 20
2480940.93825629
 10
795076.577583026
 20
2480952.86563653
 10
795079.131180812
 20
2480954.56803506
 10
795081.172067039
 20
2480956.23561453
 10
795082.297660819
 20
2480960.08026316
 10
795085.442690058
 20
2480961.65277778
 10
795086.225344828
 20
2480974.85327586
 10
795088.264705882
 20
2480975.89705882
 10
795081.072439759
 20
2480998.52115964
 10
795079.92826087
 20
2481005.77130435
 10
795079.802845528
 20
2481005.90142276
 10
795076.107733333
 20
2481010.6768
 10
795075.930333333
 20
2481010.61766667
 10
795075.752933333
 20
2481010.55853333
 10
795072.231936416
 20
2481016.66430636
 10
795050.277167183
 20
2481052.10665635
 10
795031.008910891
 20
2481095.00445545
 10
795029.312347188
 20
2481095.26246944
 10
795029.837286064
 20
2481095.52493888
 10
795030.362224939
 20
2481095.78740831
 10
795030.257839388
 20
2481095.82103251
 10
795020.769736842
 20
2481137.73930921
 10
795017.088738019
 20
2481157.43003195
 10
795020.628729282
 20
2481168.65773481
 10
795020.629569893
 20
2481176.91505376
 10
795016.940571429
 20
2481190.72771429
 10
795016.107391304
 20
2481190.55369565
 10
795015.32322335
 20
2481190.32322335
 10
795010.585786802
 20
2481188.96967005
 10
795006.358991437
 20
2481212.81912464
 10
795005.274413408
 20
2481216.9201676
 10
794987.513901345
 20
2481280.817713
 10
794987.341700405
 20
2481280.8354251
 10
794987.550828729
 20
2481281
 10
794987.588867925
 20
2481281.52962264
 10
794984.124417322
 20
2481295.93330606
 10
794984.607547093
 20
2481296.89574469
 10
794984.959717918
 20
2481297.3809451
 10
794985.426694529
 20
2481319.28765304
 10
794985.646615675
 20
2481320.8869477
 10
794984.1583275
 20
2481330.32962732
 10
794968.305689382
 20
2481380.75048242
 10
794960.832417582
 20
2481408.49752747
 10
794959.709375
 20
2481418.90575
 10
794969.969741697
 20
2481389.32343173
 10
794961.62861991
 20
2481426.13348416
 10
794956.55
 20
2481452.01666667
 10
794953.354545454
 20
2481466.15151515
 10
794952.584198113
 20
2481470.24740566
 10
794953.000943396
 20
2481470.38632075
 10
794949.783211009
 20
2481484.48633027
 10
794949.227083333
 20
2481484.40902778
 10
794948.785333333
 20
2481484.39266667
 10
794947.88685567
 20
2481484.29561856
 10
794935.19625
 20
2481533.96625
 10
794925.356299213
 20
2481571.27125984
 10
794924.542519685
 20
2481571.27125984
 10
794923.498648649
 20
2481571.49972973
 10
794918.970886076
 20
2481606.09120253
 10
794919.711759582
 20
2481619.40365854
 10
794921.98030303
 20
2481624.15318979
 10
794922.427455049
 20
2481630.65062241
 10
794918.225314861
 20
2481670.74647355
 10
794917.8
 20
2481671
 10
794917.845378151
 20
2481671.23067227
 10
794918.768571428
 20
2481721.17542857
 10
794918.854432133
 20
2481733.75270083
 10
794920.032530121
 20
2481738.25036145
 10
794918.446714032
 20
2481766.4446714
 10
794917.986464968
 20
2481766.79729299
 10
794918.063970588
 20
2481766.88299632
 10
794917.625498339
 20
2481766.8942691
 10
794907.154019293
 20
2481827.16302251
 10
794905.911904762
 20
2481872
 10
794908
 20
2481912.32588978
 10
794909.584312639
 20
2481913.99872506
 10
794911
 20
2481924.61506944
 10
794912.573567468
 20
2481942.02375231
 10
794916.098955224
 20
2481960.65567164
 10
794918.56796875
 20
2481960.68640625
 10
794917.872608696
 20
2481961
 10
794919.010655738
 20
2481979.46147541
 10
794917.419874477
 20
2482003.82719665
 10
794915.270669291
 20
2482007.32165354
 10
794915.758545035
 20
2482030.33879908
 10
794915.97854019
 20
2482048.11422512
 10
794915.703519669
 20
2482063.28706004
 10
794916.000240385
 20
2482063.33329327
 10
794916.823478261
 20
2482063.39706522
 10
794916.555018248
 20
2482063.49388686
 10
794922.987637699
 20
2482093.47711138
 10
794924.513765643
 20
2482097.81660978
 10
794929.330709343
 20
2482115.37223183
 10
794939.412132353
 20
2482153.09797794
 10
794940.439632546
 20
2482153.35603675
 10
794945.647273243
 20
2482170.0214157
 10
794949.636426593
 20
2482190.20041551
 10
794960.951082251
 20
2482251.51222944
 10
794970.132615716
 20
2482276.21889128
 10
794978.853508772
 20
2482294.78867624
 10
794983.445730453
 20
2482307.20509259
 10
794987.35465587
 20
2482315.77327935
 10
794998.312987988
 20
2482347.76771772
 10
794995.891013825
 20
2482349
 10
794995.834846369
 20
2482349.03303073
 10
794995.710955945
 20
2482349.08293888
 10
794996.722891796
 20
2482351.41191377
 10
794996.8337145
 20
2482351.50047087
 10
794997.198880968
 20
2482352.36438195
 10
795036.684377053
 20
2482437.14591732
 10
795036.413095238
 20
2482437.39126984
 10
795036.338846154
 20
2482437.83057692
 10
795035.961612903
 20
2482438.12817204
 10
795055.121666667
 20
2482470.67233333
 10
795072.227943925
 20
2482502.97196262
 10
795084.383898305
 20
2482521.28983051
 10
795086.635227273
 20
2482524.98863636
 10
795091.916504854
 20
2482532.04174757
 10
795104.114344262
 20
2482551.00881148
 10
795123.02611465
 20
2482584.41496815
 10
795130.49500657
 20
2482598.23751643
 10
795142.671578947
 20
2482620.66421053
 10
795141.596895973
 20
2482621.36124161
 10
795142.461422414
 20
2482621.17952586
 10
795142.714726027
 20
2482621.19018265
 10
795142.471009975
 20
2482621.51739402
 10
795157.642131169
 20
2482642.099521
 10
795158.663552466
 20
2482641.36865163
 10
795168.831439713
 20
2482647.60461986
 10
795169.919943958
 20
2482647.37472272
 10
795170.430562944
 20
2482646.8371024
 10
795175.336145923
 20
2482646.93348195
 10
795180.682662539
 20
2482652.46783282
 10
795182.945065797
 20
2482652.63862612
 10
795184.173156819
 20
2482653.68603119
 10
795188.879231896
 20
2482655.87777356
 10
795192.464611864
 20
2482655.97779032
 10
795213.640469707
 20
2482696.76711214
 10
795213.258431629
 20
2482697.00835513
 10
795235.760788259
 20
2482731.52137027
 10
795237.580295571
 20
2482732.08557173
 10
795238.912309032
 20
2482733.36992995
 10
795239.801659747
 20
2482733.91116079
 10
795240.860547095
 20
2482734.67092174
 10
795241.822868934
 20
2482735.24545516
 10
795242.456165814
 20
2482735.31338302
 10
795243.100605748
 20
2482735.38201716
 10
795244.459287507
 20
2482735.57071955
 10
795247.485428913
 20
2482733.5889043
 10
795249.009872059
 20
2482734.07924798
 10
795252.306007629
 20
2482733.9182136
 10
795254.685142857
 20
2482732.55892063
 10
795257.043686548
 20
2482731.1778236
 10
795265.253345725
 20
2482736.44583643
 10
795267.153417533
 20
2482735.33774146
 10
795277.232328386
 20
2482746.79341373
 10
795291.573655914
 20
2482763.28422939
 10
795294.25390328
 20
2482766.19933095
 10
795294.219560121
 20
2482766.02879895
 10
795294.270109783
 20
2482765.86623328
 10
795319.556669194
 20
2482787.75973294
 10
795320.277143371
 20
2482787.62768908
 10
795320.168319761
 20
2482786.88133176
 10
795322.345870996
 20
2482788.74700757
 10
795323.594573969
 20
2482789.82841908
 10
795324.22422621
 20
2482790.04003891
 10
795324.922990342
 20
2482790.3239427
 10
795325.64508712
 20
2482790.6173264
 10
795326.169537064
 20
2482790.64354342
 10
795328.713988159
 20
2482793.13072316
 10
795337.490819622
 20
2482802.99293083
 10
795331.118889776
 20
2482794.0798722
 10
795343.004070513
 20
2482799.66701923
 10
795349.610509777
 20
2482801.57957402
 10
795352.298502994
 20
2482801.99461078
 10
795381.884307692
 20
2482827.97623077
 10
795381.894512195
 20
2482828.1054878
 10
795382.994274376
 20
2482828.06252834
 10
795425.89156039
 20
2482863.15502626
 10
795443.124505723
 20
2482874.95431842
 10
795460.701440922
 20
2482890.29855908
 10
795461.394354839
 20
2482890.21129032
 10
795461.53540146
 20
2482890.46459854
 10
795468.725618668
 20
2482896.89305639
 10
795469.098099666
 20
2482897.12967136
 10
795468.390909091
 20
2482895.7
 10
795490.612603878
 20
2482914.34307479
 10
795497.799788315
 20
2482914.94902625
 10
795501.549534884
 20
2482917.89569767
 10
795504.658618182
 20
2482919.27181818
 10
795518.117840376
 20
2482927.11784038
 10
795544.694808405
 20
2482947.85605686
 10
795545.57798913
 20
2482947.22934783
 10
795546.365963303
 20
2482946.6340367
 10
795577.531770412
 20
2482966.17716249
 10
795583.065864023
 20
2482969.16638338
 10
795590.448257261
 20
2482971.93344398
 10
795633.549698341
 20
2483001.51463047
 10
795633.648971193
 20
2483001.43878601
 10
795633.526111111
 20
2483001.71083333
 10
795633.303955696
 20
2483002.6960443
 10
795670.561665053
 20
2483032.47705712
 10
795685.201895425
 20
2483040.67568627
 10
795699.227035831
 20
2483048.75399023
 10
795703.628274559
 20
2483050.32764484
 10
795715.6275
 20
2483059.3725
 10
795746.910141509
 20
2483094.08207547
 10
795781.893707483
 20
2483132.48503401
 10
795782.962799793
 20
2483131.91410295
 10
795824.107965905
 20
2483183.53856924
 10
795834.817670515
 20
2483200.68070214
 10
795834.961570502
 20
2483201.03476713
 10
795835.260348369
 20
2483201.44237723
 10
795835.335139761
 20
2483201.6203279
 10
795835.399505308
 20
2483201.72894033
 10
795837.460869565
 20
2483204.53913043
 10
795837.501398601
 20
2483204.62325175
 10
795873.198734177
 20
2483234.23481013
 10
795904.861458333
 20
2483260.31302083
 10
795908.035433071
 20
2483262.46653543
 10
795914.268032787
 20
2483261.50040984
 10
795914.85880829
 20
2483261.49158031
 10
795920.201856764
 20
2483259.35583554
 10
795925.682608696
 20
2483260.89673913
  0
LWPOLYLINE
  5
2001B
100
AcDbEntity
  8
0
100
AcDbPolyline
 70
0
 90
7
 10
795982.103857839
 20
2479479.97009133
 10
795974.405953249
 20
2479478.19073227
 10
795970.57400935
 20
2479476.25182523
 10
795967.89010071
 20
2479473.61599222
 10
795967.777606135
 20
2479473.5377038
 10
795967.735431064
 20
2479473.5183409
 10
795967.670714328
 20
2479473.45574372
  0
LWPOLYLINE
  5
2001C
100
AcDbEntity
  8
0
100
AcDbPolyline
 70
0
 90
7
 10
794902.857353904
 20
2481888.36685878
 10
794904.391287879
 20
2481896.76492424
 10
794904.031741573
 20
2481872
 10
794903.763088643
 20
2481845.03753463
 10
794901.378860775
 20
2481871.91956934
 10
794902.296520802
 20
2481888.73292826
 10
794902.857353904
 20
2481888.36685878
  0
LWPOLYLINE
  5
2001D
100
AcDbEntity
  8
0
100
AcDbPolyline
 70
0
 90
5
 10
795523.503030303
 20
2480374.87727273
 10
795524.251515151
 20
2480375.25151515
 10
795526.9
 20
2480377.425
 10
795525.3859375
 20
2480376.3859375
 10
795523.503030303
 20
2480374.87727273
  0
LWPOLYLINE
  5
2001E
100
AcDbEntity
  8
0
100
AcDbPolyline
 70
0
 90
130
 10
796119.954625689
 20
2482935.87304965
 10
795863.078680203
 20
2482753.82127919
 10
795834.474702703
 20
2482731.77037838
 10
795830.867157895
 20
2482723.13957895
 10
795826.325814889
 20
2482716.95792757
 10
795821.568391167
 20
2482711.7807571
 10
795809.122268041
 20
2482703.70824742
 10
795805.891054384
 20
2482714.71387347
 10
795797.218439716
 20
2482703.30340425
 10
795798.629
 20
2482701.6968
 10
795801.033714286
 20
2482698.96628571
 10
795791.648825711
 20
2482688.03060569
 10
795782.971352601
 20
2482683.3276763
 10
795775.93628692
 20
2482674.21586498
 10
795767.149397828
 20
2482671.63563672
 10
795540.55944629
 20
2482455.10146179
 10
795516.915938865
 20
2482446.969869
 10
795512.351046229
 20
2482442.50875912
 10
795508.593229167
 20
2482439.5490625
 10
795504.972479564
 20
2482438.34490463
 10
795496.281877023
 20
2482429.24291262
 10
795485.425994065
 20
2482442.59086053
 10
795480.247272727
 20
2482432.37636364
 10
795488.141886792
 20
2482427.57207547
 10
795491.1224
 20
2482426.0904
 10
795490.428115942
 20
2482426.23101449
 10
795485.613191489
 20
2482417.83411348
 10
795458.377682927
 20
2482377.15292683
 10
795299.936908078
 20
2482160.14690808
 10
795300.88875576
 20
2482149.17456221
 10
795314.512570357
 20
2482121.87579737
 10
795328.245090909
 20
2482091.62581818
 10
795331.479791667
 20
2482090.93145833
 10
795331.557627119
 20
2482090.88847458
 10
795331.226896552
 20
2482090.92436782
 10
795326.312794118
 20
2482091.18264706
 10
795331.202782609
 20
2481965.17417391
 10
795337.01575
 20
2481971.3805
 10
795344.241867704
 20
2481954.56871595
 10
795346.895330739
 20
2481954.9477821
 10
795352.879020619
 20
2481880.53974227
 10
795355.020494382
 20
2481861.79514607
 10
795436.153619632
 20
2482064.97116564
 10
795524.952385321
 20
2482079.58458716
 10
795471.060689655
 20
2481503.13275862
 10
795488.209612756
 20
2480997.4291344
 10
795517.726418704
 20
2480925.6394474
 10
795525.885493107
 20
2480868.88137858
 10
795527.1325
 20
2480865.268125
 10
795548.438103241
 20
2480845.38208884
 10
795549.06311971
 20
2480843.3931318
 10
795540.59069378
 20
2480841.50246411
 10
795561.792814815
 20
2480750.37659259
 10
795574.647025572
 20
2480739.48462988
 10
795575.897959184
 20
2480737.75771429
 10
795575.399262295
 20
2480736.4504918
 10
795581.703549784
 20
2480727.21350649
 10
795598.758608965
 20
2480720.6488408
 10
795588.191736527
 20
2480722.09826347
 10
795599.154137931
 20
2480717.10106583
 10
795585.335207373
 20
2480713.55493088
 10
795595.18732577
 20
2480705.54191248
 10
795594.687035831
 20
2480703.82605863
 10
795609.042291667
 20
2480694.64041667
 10
795608.979365079
 20
2480689.56433862
 10
795591.251005111
 20
2480688.24248722
 10
795593.003234782
 20
2480683.20003478
 10
795582.430153846
 20
2480681.34451282
 10
795567.625853659
 20
2480686.04126829
 10
795584.765214286
 20
2480669.797
 10
795603.406158833
 20
2480636.07941653
 10
795620.501361257
 20
2480628.34251309
 10
795631.09027933
 20
2480617.36536313
 10
795616.831678571
 20
2480619.484
 10
795612.109347826
 20
2480612.66663043
 10
795632.43173913
 20
2480601.49652174
 10
795630.439756098
 20
2480591.34136585
 10
795632.615820896
 20
2480589.0119403
 10
795630.066716418
 20
2480587.31253731
 10
795626.712631579
 20
2480583.61984962
 10
795624.817789203
 20
2480577.33892031
 10
795631.375347594
 20
2480573.68096257
 10
795629.119508197
 20
2480567.93655738
 10
795629.325697674
 20
2480554.48540698
 10
795621.32
 20
2480547.54666667
 10
795629.588333333
 20
2480552.99166667
 10
795625.105384615
 20
2480549.73692308
 10
795624.684285714
 20
2480549.34214286
 10
795623.6975
 20
2480548.465
 10
795623.029032258
 20
2480547.62322581
 10
795626.870666667
 20
2480550.19333333
 10
795651.551428571
 20
2480510.65619048
 10
795637.773333333
 20
2480521.22121212
 10
795662.313157895
 20
2480479.38789474
 10
795663.429230769
 20
2480479.42923077
 10
795664.312941176
 20
2480479.98470588
 10
795669.855
 20
2480483.90333333
 10
795670.128888889
 20
2480484.19333333
 10
795670.29
 20
2480484.29
 10
795670.490769231
 20
2480484.40153846
 10
795670.318064516
 20
2480484.24322581
 10
795680.016792453
 20
2480468.49320755
 10
795685.084666667
 20
2480454.86266667
 10
795697.519324324
 20
2480436.23466216
 10
795699.849311475
 20
2480429.34819672
 10
795704.753888889
 20
2480416.55944444
 10
795704.810769231
 20
2480396.02564103
 10
795714.558005391
 20
2480389.70226415
 10
795725.78280597
 20
2480423.36895522
 10
795732.731253482
 20
2480411.29682451
 10
795732.61024
 20
2480400.9128
 10
795731.775112108
 20
2480363.65434978
 10
795733.685822785
 20
2480353.48202532
 10
795736.12611465
 20
2480356.47605096
 10
795747.84979405
 20
2480379.57537757
 10
795742.162650602
 20
2480351.0339759
 10
795771.17197861
 20
2480333.05229947
 10
795781.24
 20
2480337.78666667
 10
795781.51785124
 20
2480321.57867769
 10
795783.11971246
 20
2480314.49613419
 10
795785.501690141
 20
2480311.42732394
 10
795785.712385321
 20
2480306.22293578
 10
795783.20712766
 20
2480274.67465426
 10
795789.331120332
 20
2480287.24041494
 10
795789.046226913
 20
2480277.48060686
 10
795785.768081049
 20
2480255.89384982
 10
795889.502252816
 20
2480074.18540676
 10
796000.081168831
 20
2479962.68750649
 10
796021.334516524
 20
2479944.11331701
 10
796132.997408638
 20
2480605.97924695
  0
LWPOLYLINE
  5
2001F
100
AcDbEntity
  8
0
100
AcDbPolyline
 70
0
 90
398
 10
795965.625272469
 20
2479471.11084663
 10
795919.899565712
 20
2479506.23705866
 10
795920.443959459
 20
2479502.22695195
 10
795919.585069388
 20
2479499.60289592
 10
795886.977861976
 20
2479532.33081602
 10
795885.011714226
 20
2479531.02005085
 10
795884.555783134
 20
2479530.65639191
 10
795884.200565258
 20
2479530.3836652
 10
795848.527370892
 20
2479599.90892019
 10
795850.163755869
 20
2479601.21802817
 10
795849.965916399
 20
2479602.68919614
 10
795850.0623
 20
2479603.9377
 10
795849.431183173
 20
2479605.42415425
 10
795850.042138475
 20
2479605.91291849
 10
795852.756497297
 20
2479604.86088649
 10
795845.07294382
 20
2479618.01285393
 10
795845.796510067
 20
2479620.11288591
 10
795844.092011834
 20
2479619.7656213
 10
795843.013763441
 20
2479619.54817204
 10
795842.496393443
 20
2479620.74459016
 10
795839.553651435
 20
2479620.25757724
 10
795797.704124229
 20
2479661.28136418
 10
795789.488140398
 20
2479668.46734253
 10
795769.255830523
 20
2479694.51652178
 10
795752.030128513
 20
2479713.16113889
 10
795739.64216921
 20
2479728.54402779
 10
795737.691970543
 20
2479727.29395167
 10
795735.382808714
 20
2479728.47277987
 10
795733.652746483
 20
2479729.86140193
 10
795732.094373585
 20
2479730.30879965
 10
795730.533330621
 20
2479730.85309602
 10
795728.92437467
 20
2479729.78045872
 10
795727.438762961
 20
2479730.23220432
 10
795725.378650871
 20
2479731.58528513
 10
795719.876645002
 20
2479727.95414412
 10
795716.388358557
 20
2479731.28110487
 10
795715.16819465
 20
2479729.81780879
 10
795714.006276079
 20
2479728.21049513
 10
795708.759789704
 20
2479726.19716436
 10
795707.493779364
 20
2479724.82961579
 10
795706.134996229
 20
2479723.55052079
 10
795703.015842315
 20
2479723.94129589
 10
795696.892513847
 20
2479723.23247083
 10
795666.21112426
 20
2479739.6583432
 10
795664.938894472
 20
2479738.93889447
 10
795664
 20
2479738.91588235
 10
795663.924405286
 20
2479738.92440529
 10
795663.881491713
 20
2479738.90519337
 10
795663.480913032
 20
2479739.86862141
 10
795657.810582693
 20
2479765.86640568
 10
795659.950934042
 20
2479767.1693287
 10
795658.81021239
 20
2479779.5379069
 10
795660.222652021
 20
2479780.63144469
 10
795662.906048739
 20
2479787.47443986
 10
795664.735876762
 20
2479788.3313015
 10
795663.247048835
 20
2479791.0452186
 10
795662.979529511
 20
2479794.48651145
 10
795667.140710093
 20
2479798.04692365
 10
795667.005352836
 20
2479799.68642251
 10
795667.068630352
 20
2479800.371746
 10
795666.710948791
 20
2479801.62873919
 10
795666.874665872
 20
2479802.22463358
 10
795666.42035286
 20
2479803.68347894
 10
795657.164918852
 20
2479821.60566792
 10
795657.961937888
 20
2479822.3117764
 10
795653.635221239
 20
2479835.56743363
 10
795654.711629956
 20
2479836.42264317
 10
795655.507665198
 20
2479837.05947137
 10
795647.409333333
 20
2479850.72095238
 10
795647.159760956
 20
2479850.72780877
 10
795645.951052631
 20
2479849.95105263
 10
795645.167356322
 20
2479849.62551724
 10
795631.518660714
 20
2479872.08665179
 10
795631.534225053
 20
2479876.3092569
 10
795621.070724638
 20
2479894.84413044
 10
795614.063157895
 20
2479907.91789474
 10
795595.747860262
 20
2479935.16524017
 10
795567.034378378
 20
2479977.33189189
 10
795556.122978723
 20
2479995.34370821
 10
795540.51559322
 20
2480017.26299435
 10
795539.999106145
 20
2480016.99910614
 10
795539.892806192
 20
2480017.46312684
 10
795542.507553243
 20
2480022.61537054
 10
795510.503530806
 20
2480072.89507109
 10
795487.83362069
 20
2480103.86689655
 10
795487.777917808
 20
2480103.84136986
 10
795485.278007968
 20
2480107.50629482
 10
795431.943688525
 20
2480181.96245902
 10
795430.375977012
 20
2480181.37597701
 10
795430.000184162
 20
2480181.20014733
 10
795422.421115891
 20
2480192.40207041
 10
795421.679002448
 20
2480193.77953834
 10
795421.63363717
 20
2480194.34240269
 10
795420.235513343
 20
2480196.79793992
 10
795417.807401544
 20
2480200.92968165
 10
795416.670677297
 20
2480203.47346377
 10
795400.005611927
 20
2480235.28146443
 10
795385.307357758
 20
2480270.79516785
 10
795386.107218935
 20
2480271.44201183
 10
795385.833402062
 20
2480271.41670103
 10
795385.820938417
 20
2480272.01495601
 10
795372.037058824
 20
2480298.65120588
 10
795334.22358156
 20
2480356.53414894
 10
795332.534148936
 20
2480355.68943262
 10
795326.241747477
 20
2480366.28723182
 10
795326.234804777
 20
2480366.76542714
 10
795315.974552759
 20
2480388.98190148
 10
795315.545722594
 20
2480390.94980521
 10
795312.409858508
 20
2480397.27496201
 10
795312.374074663
 20
2480399.09908213
 10
795310.807078863
 20
2480404.72053776
 10
795311.296755575
 20
2480406.05703083
 10
795310.132041307
 20
2480412.92141515
 10
795310.490023633
 20
2480417.1776292
 10
795303.336771005
 20
2480439.5629654
 10
795298.676
 20
2480450.95771429
 10
795290.19518797
 20
2480462.3337218
 10
795278.791035461
 20
2480480.0084539
 10
795241.161716738
 20
2480533.08085837
 10
795241.105842697
 20
2480533.0705618
 10
795240.537903226
 20
2480532.92274194
 10
795213.430065934
 20
2480581.42101099
 10
795193.655925926
 20
2480619.19355556
 10
795193.387111111
 20
2480619.19355556
 10
795193.271904762
 20
2480619.42396825
 10
795193.430892857
 20
2480619.71544643
 10
795193.653869969
 20
2480619.99232198
 10
795173.732917237
 20
2480662.58136432
 10
795176.726875
 20
2480660.91444079
 10
795150.329448819
 20
2480710.26355906
 10
795149.213073171
 20
2480709.65980488
 10
795149.490773994
 20
2480710.32718266
 10
795149.309005848
 20
2480710.30900585
 10
795136.984344842
 20
2480729.69612561
 10
795136.014452328
 20
2480732.17893942
 10
795137.784277879
 20
2480733.40946984
 10
795129.854699104
 20
2480753.32478873
 10
795130.175481283
 20
2480755.98371658
 10
795128.431425313
 20
2480763.40763968
 10
795118.69112628
 20
2480789.29419795
 10
795115.856363636
 20
2480797.86738636
 10
795115.898701754
 20
2480798.20568421
 10
795114.3190625
 20
2480801.21270833
 10
795113.5684
 20
2480800.94104
 10
795106.485789488
 20
2480819.52812401
 10
795106.923857813
 20
2480820.09951965
 10
795102.473328985
 20
2480832.133705
 10
795100.024743139
 20
2480837.5261621
 10
795105.801679065
 20
2480833.39664187
 10
795106.725322416
 20
2480836.44941658
 10
795105.043660714
 20
2480843.46153571
 10
795084.015795536
 20
2480884.72331173
 10
795085.405098468
 20
2480886.13503282
 10
795085.810196937
 20
2480886.40509847
 10
795086.080262582
 20
2480886.67516411
 10
795068.094469133
 20
2480934.20562204
 10
795067.956053827
 20
2480937.30785997
 10
795069.120092978
 20
2480939.26889817
 10
795068.612376651
 20
2480941.44473624
 10
795067.710839887
 20
2480945.83542477
 10
795065.710415958
 20
2480953.12246968
 10
795065.833845404
 20
2480956.0292438
 10
795067.97396449
 20
2480960.4919731
 10
795065.080553506
 20
2480977.60924354
 10
795066.134538745
 20
2480978.31190037
 10
795069.063463687
 20
2480980.7050838
 10
795070.678830409
 20
2480986.22263158
 10
795071.711345029
 20
2480986.73888889
 10
795072.639615385
 20
2481002.39538462
 10
795073.027628866
 20
2481002.75690722
 10
795071.957866667
 20
2481002.7342
 10
795065.794829721
 20
2481012.68340557
 10
795061.651953353
 20
2481021.90688047
 10
795053.800298507
 20
2481030.62268657
 10
795027.105451134
 20
2481093.85216788
 10
795027.592278897
 20
2481094.07779166
 10
795028.622751323
 20
2481094.52455026
 10
795027.29032538
 20
2481094.64516269
 10
795026.369494618
 20
2481094.34488976
 10
795016.532536082
 20
2481124.34321649
 10
795015.805089974
 20
2481132.42575835
 10
795008.886842105
 20
2481162.99046053
 10
795004.517272727
 20
2481186.36454545
 10
795002.769066667
 20
2481186.19226667
 10
795002.547594937
 20
2481186.18253165
 10
795001.443835616
 20
2481207.44995434
 10
794996.563235014
 20
2481234.98846813
 10
794994.376670391
 20
2481243.25637989
 10
794984.274080717
 20
2481279.60278027
 10
794983.387867299
 20
2481279.69393365
 10
794981.981875
 20
2481279.32729167
 10
794981.969753086
 20
2481279.38790123
 10
794981.056635399
 20
2481293.56733413
 10
794980.673249542
 20
2481295.82543695
 10
794979.119621872
 20
2481301.41894002
 10
794979.239685575
 20
2481302.46772002
 10
794973.527212228
 20
2481326.21770726
 10
794975.060437056
 20
2481329.27203116
 10
794976.178060282
 20
2481330.81182722
 10
794976.453994276
 20
2481343.75638434
 10
794976.830857964
 20
2481346.49698521
 10
794975.990576081
 20
2481351.82828646
 10
794967.040236469
 20
2481380.29571083
 10
794945.946153846
 20
2481458.61461538
 10
794943.329452055
 20
2481482.86589041
 10
794932.55
 20
2481520.27
 10
794921.571304348
 20
2481570.39282609
 10
794921.943803681
 20
2481570.65730061
 10
794921.110689655
 20
2481571
 10
794921.057837838
 20
2481571.01156757
 10
794912.111898734
 20
2481639.35729114
 10
794913.575714286
 20
2481665.66
 10
794913.77030303
 20
2481666.06740032
 10
794913.808658368
 20
2481666.62473029
 10
794913.448211587
 20
2481670.06403023
 10
794913.35635514
 20
2481670.11878505
 10
794911.562823529
 20
2481670.26047059
 10
794909.033984169
 20
2481717.77182058
 10
794913.630904523
 20
2481716.01281407
 10
794913.731565217
 20
2481766
 10
794914.079705882
 20
2481766.38496324
 10
794911.774850498
 20
2481766.44421927
 10
794906.573247588
 20
2481796.38212219
 10
794905.269344262
 20
2481843.4495082
 10
794904.888836565
 20
2481805.26110803
 10
794898.987272155
 20
2481871.80091387
 10
794901.258711821
 20
2481913.41821143
 10
794902.646914988
 20
2481912.51209727
 10
794906.443787879
 20
2481933.29942424
 10
794905.972828947
 20
2481900.86059211
 10
794908
 20
2481940.00989667
 10
794908.683215078
 20
2481940.73128603
 10
794911
 20
2481958.10502778
 10
794911.261675978
 20
2481961
 10
794911.378614319
 20
2481966.5169515
 10
794912.028492544
 20
2482019.02657284
 10
794911.216066253
 20
2482063.84799172
 10
794912.092596154
 20
2482063.98456731
 10
794912.111652174
 20
2482063.98604348
 10
794912.105437956
 20
2482063.98828467
 10
794924.977331701
 20
2482123.98575275
 10
794925.746666667
 20
2482126.17333333
 10
794933.405116279
 20
2482154.08498339
 10
794933.366831683
 20
2482154.12663366
 10
794935.207231335
 20
2482160.07906585
 10
794948.937326614
 20
2482204.01781934
 10
794958.446973785
 20
2482252.12205392
 10
794958.457380952
 20
2482252.13565476
 10
794961.246529831
 20
2482260.09521906
 10
794962.123254818
 20
2482261.56496788
 10
794978.298428418
 20
2482305.0908719
 10
794983.606666667
 20
2482316.39393939
 10
794990.41409465
 20
2482334.79981481
 10
794991.742186235
 20
2482337.71093117
 10
794995.465375375
 20
2482348.58132132
 10
794994.642488479
 20
2482349
 10
794993.942877095
 20
2482349.41142458
 10
794992.399721021
 20
2482350.03307122
 10
795005.004205725
 20
2482379.04234922
 10
795006.384592706
 20
2482380.1454
 10
795010.933038293
 20
2482390.90611566
 10
795033.215341559
 20
2482438.74970558
 10
795032.280449026
 20
2482439.59524046
 10
795031.698246618
 20
2482440.07613107
 10
795031.70354617
 20
2482440.09032068
 10
795031.572451945
 20
2482440.1441543
 10
795033.897815791
 20
2482445.25258671
 10
795033.995117106
 20
2482445.36876038
 10
795035.629002217
 20
2482447.73135255
 10
795046.754735043
 20
2482467.69815385
 10
795064.152666667
 20
2482497.24927619
 10
795084.453126214
 20
2482535.58007767
 10
795085.336133333
 20
2482535.33193333
 10
795095.104881192
 20
2482553.35240346
 10
795104.830419259
 20
2482566.49816705
 10
795138.548108716
 20
2482622.76006769
 10
795139.312457338
 20
2482622.4125256
 10
795139.474478261
 20
2482622.35034783
 10
795140
 20
2482622.39116505
 10
795140.859041096
 20
2482622.42730594
 10
795140.781920199
 20
2482622.53084788
 10
795166.085697291
 20
2482656.85959304
 10
795167.78931672
 20
2482655.64058258
 10
795175.692407081
 20
2482660.48755021
 10
795177.224616216
 20
2482660.16394054
 10
795177.943377837
 20
2482659.40717108
 10
795181.746958745
 20
2482659.4818997
 10
795189.070588235
 20
2482667.06282353
 10
795192.169615959
 20
2482667.29677527
 10
795193.851848386
 20
2482668.73150505
 10
795196.941625155
 20
2482670.17049499
 10
795199.295608793
 20
2482670.23616106
 10
795213.198632555
 20
2482697.01641784
 10
795212.692434966
 20
2482697.33606298
 10
795242.507888796
 20
2482743.0655493
 10
795244.918722343
 20
2482743.813112
 10
795246.683630194
 20
2482745.51487701
 10
795247.862013224
 20
2482746.23200382
 10
795249.265031021
 20
2482747.23868139
 10
795250.540100242
 20
2482747.99993386
 10
795251.37921386
 20
2482748.08993777
 10
795252.233091941
 20
2482748.18087748
 10
795254.033335087
 20
2482748.43090673
 10
795256.082681959
 20
2482747.08879269
 10
795258.101964118
 20
2482747.73830346
 10
795262.468035601
 20
2482747.52499682
 10
795263.974171429
 20
2482746.66448254
 10
795265.467271574
 20
2482745.79016497
 10
795276.332267658
 20
2482752.76206691
 10
795277.217682021
 20
2482752.2457058
 10
795288.646492537
 20
2482765.23567164
 10
795291.535304563
 20
2482768.35316259
 10
795309.654912505
 20
2482788.0604844
 10
795309.385901198
 20
2482786.72470054
 10
795309.781858675
 20
2482785.45131736
 10
795328.940337633
 20
2482802.03902887
 10
795330.006509268
 20
2482801.84362781
 10
795329.845469984
 20
2482800.7391538
 10
795333.067852452
 20
2482803.50001698
 10
795334.915707283
 20
2482805.10031067
 10
795335.847478857
 20
2482805.41346978
 10
795336.881523546
 20
2482805.8335961
 10
795337.950096335
 20
2482806.26775098
 10
795338.726187515
 20
2482806.30654744
 10
795342.491515498
 20
2482809.98712417
 10
795355.479640591
 20
2482824.58140998
 10
795346.050335463
 20
2482811.39169329
 10
795353.250782051
 20
2482814.77657692
 10
795361.908310056
 20
2482817.28291899
 10
795363.294331337
 20
2482817.49692615
 10
795378.549784615
 20
2482830.89393846
 10
795378.569554455
 20
2482831.14435644
 10
795378.681596958
 20
2482831.31840304
 10
795391.557912107
 20
2482842.99628983
 10
795393.762297887
 20
2482845.16364072
 10
795395.438251301
 20
2482846.66877084
 10
795397.93924612
 20
2482847.93924612
 10
795436.66372093
 20
2482879.61813954
 10
795457.213333333
 20
2482893.68833333
 10
795456.983888889
 20
2482894.01611111
 10
795456.593011152
 20
2482894.67249071
 10
795474.329065215
 20
2482906.92763137
 10
795475.795756327
 20
2482907.97620408
 10
795474.667129767
 20
2482906.36657442
 10
795476.622394556
 20
2482908.21323888
 10
795477.93370032
 20
2482909.28468369
 10
795480.076737893
 20
2482911.18718114
 10
795483.165053253
 20
2482913.98676988
 10
795484.914393456
 20
2482915.30591238
 10
795487.766838451
 20
2482917.66264468
 10
795497.353613417
 20
2482926.23375971
 10
795499.311581872
 20
2482927.47754037
 10
795495.594192673
 20
2482919.96238806
 10
795508.874736842
 20
2482931.10421053
 10
795513.170076207
 20
2482931.46635055
 10
795515.411069767
 20
2482933.22739535
 10
795517.269178182
 20
2482934.04981818
 10
795535.925446009
 20
2482944.92544601
 10
795542.685438813
 20
2482950.20032138
 10
795543.078832685
 20
2482949.92116731
 10
795556.697405851
 20
2482959.60825094
 10
795559.370336146
 20
2482961.71168461
 10
795560.31914513
 20
2482962.33240676
 10
795560.855441538
 20
2482962.54469675
 10
795563.788757225
 20
2482963.22127168
 10
795593.301341956
 20
2482981.72771221
 10
795602.253541077
 20
2482986.56321058
 10
795606.411767635
 20
2482988.12179253
 10
795630.689200603
 20
2483004.78377074
 10
795631.41909465
 20
2483004.22613169
 10
795631.126928105
 20
2483004.8730719
 10
795630.523977901
 20
2483005.72202578
 10
795646.645098316
 20
2483018.20575483
 10
795647.228539733
 20
2483018.18718237
 10
795656.650673317
 20
2483025.98573566
 10
795688.396360116
 20
2483051.36085189
 10
795710.989179104
 20
2483064.01298507
 10
795710.990491803
 20
2483064.01426229
 10
795711.223809524
 20
2483064.33142857
 10
795739.679074733
 20
2483095.95067616
 10
795779.232788461
 20
2483134.76721154
 10
795778.7171501
 20
2483135.40690349
 10
795779.940962115
 20
2483134.75334693
 10
795804.293991668
 20
2483165.30887196
 10
795810.632859085
 20
2483175.45496952
 10
795811.870358609
 20
2483178.49982907
 10
795814.439764461
 20
2483182.00516158
 10
795815.082949455
 20
2483183.53548743
 10
795815.6364751
 20
2483184.4695239
 10
795833.36362949
 20
2483208.63637051
 10
795833.661234568
 20
2483209.25407407
 10
795833.714338855
 20
2483209.3286188
 10
795886.891353013
 20
2483269.08564195
 10
795884.911230482
 20
2483273.29707668
 10
795887.901189002
 20
2483283.18012599
 10
795888.368520524
 20
2483284.15538791
 10
795888.672885135
 20
2483284.75208216
 10
795893.666788991
 20
2483294.33321101
  0
LWPOLYLINE
  5
20020
100
AcDbEntity
  8
0
100
AcDbPolyline
 70
0
 90
7
 10
795975.879654466
 20
2479475.71595864
 10
795971.291095073
 20
2479474.65532004
 10
795969.006953724
 20
2479473.49957824
 10
795967.407132103
 20
2479471.92841349
 10
795966.800263558
 20
2479471.50607508
 10
795966.572743931
 20
2479471.4016191
 10
795966.22361997
 20
2479471.06392939
  0
LWPOLYLINE
  5
20021
100
AcDbEntity
  8
0
100
AcDbPolyline
 70
0
 90
8
 10
795639.342545455
 20
2480462.17127273
 10
795639.768979592
 20
2480462.57673469
 10
795639.96122449
 20
2480462.76897959
 10
795631.397894737
 20
2480472.90736842
 10
795631.863636364
 20
2480470.99181818
 10
795638.314909091
 20
2480461.48618182
 10
795638.807755102
 20
2480461.8077551
 10
795639.342545455
 20
2480462.17127273
  0
LWPOLYLINE
  5
20022
100
AcDbEntity
  8
0
100
AcDbPolyline
 70
0
 90
22
 10
794891.762632299
 20
2481764.74107662
 10
794892.290365799
 20
2481781.01138473
 10
794892.513538481
 20
2481781.89258813
 10
794892.583768867
 20
2481783.01675249
 10
794892.711975986
 20
2481783.60816691
 10
794892.868035532
 20
2481783.91909
 10
794893.023017359
 20
2481784.36685934
 10
794893.375770762
 20
2481784.70508892
 10
794893.73920369
 20
2481785.19230108
 10
794894.150226797
 20
2481790.71168999
 10
794894.43277918
 20
2481793.43436544
 10
794896.800478663
 20
2481780.45080485
 10
794898.750662651
 20
2481765.19451807
 10
794898.761272727
 20
2481765
 10
794898.440515022
 20
2481764.80506438
 10
794896.962433862
 20
2481764.49624339
 10
794905.293070866
 20
2481694.58062992
 10
794895.190136054
 20
2481733.69370748
 10
794893.531504069
 20
2481737.28001731
 10
794892.892996484
 20
2481739.58897709
 10
794889.770362414
 20
2481763.96193448
 10
794891.762632299
 20
2481764.74107662
  0
LWPOLYLINE
  5
20023
100
AcDbEntity
  8
0
100
AcDbPolyline
 70
0
 90
8
 10
795602.880540541
 20
2480534.88054054
 10
795605.218235294
 20
2480536.60911765
 10
795607.137878788
 20
2480537.88272727
 10
795609.25968254
 20
2480539.28730159
 10
795581.181148825
 20
2480545.40872063
 10
795600.772467532
 20
2480533.84831169
 10
795601.929
 20
2480534.44675
 10
795602.880540541
 20
2480534.88054054
  0
LWPOLYLINE
  5
20024
100
AcDbEntity
  8
0
100
AcDbPolyline
 70
0
 90
53
 10
796183.790772262
 20
2482926.26560284
 10
795828.696700508
 20
2482674.60519797
 10
795828.128594595
 20
2482674.16724324
 10
795827.746615385
 20
2482673.25338462
 10
795826.791441264
 20
2482672.97290227
 10
795812.927454546
 20
2482659.72418182
 10
795821.981146789
 20
2482661.21412844
 10
795676.593793103
 20
2481106.08017241
 10
795685.081298405
 20
2480855.7926082
 10
795699.690031881
 20
2480820.26178533
 10
795703.728197243
 20
2480792.17055143
 10
795705.806163793
 20
2480786.14955819
 10
795741.309039616
 20
2480753.01219688
 10
795742.350544135
 20
2480749.69787183
 10
795728.232404306
 20
2480746.54733254
 10
795736.057666667
 20
2480712.91466667
 10
795758.062624495
 20
2480694.26885599
 10
795760.204081633
 20
2480691.31257143
 10
795759.350368852
 20
2480689.0747541
 10
795770.142597403
 20
2480673.26207792
 10
795796.294130435
 20
2480663.19608696
 10
795797.753888889
 20
2480664.00222222
 10
795807.726
 20
2480646.764
 10
795795.355714286
 20
2480662.57047619
 10
795781.249640719
 20
2480664.50535928
 10
795791.351
 20
2480659.90066667
 10
795790.894893617
 20
2480659.24574468
 10
795822.71902439
 20
2480621.02512195
 10
795808.357
 20
2480629.558
 10
795826.5425
 20
2480602.36166667
 10
795824.371290323
 20
2480600.68564516
 10
795821.9546875
 20
2480598.56375
 10
795822.680714286
 20
2480599.085
 10
795838.010833333
 20
2480610.55333333
 10
795831.033793103
 20
2480605.52534483
 10
795834.462051282
 20
2480608.46205128
 10
795834.484895833
 20
2480608.18791667
 10
795839.824054054
 20
2480611.91202703
 10
795840.406875
 20
2480612.406875
 10
795841.027894737
 20
2480612.85657895
 10
795841.541842105
 20
2480613.19921053
 10
795841.973305785
 20
2480588.03049587
 10
795845.009472843
 20
2480574.60624601
 10
795849.5242723
 20
2480568.78962441
 10
795849.923623853
 20
2480558.92522936
 10
795845.175159574
 20
2480499.12863032
 10
795856.782572614
 20
2480522.94576763
 10
795856.242585752
 20
2480504.44703166
 10
795850.029189511
 20
2480463.53150179
 10
795901.370275344
 20
2480373.59866083
 10
795956.099025974
 20
2480318.41507792
 10
795966.617931457
 20
2480309.22216646
 10
796186.103289037
 20
2481610.19044297
  0
LWPOLYLINE
  5
20025
100
AcDbEntity
  8
0
100
AcDbPolyline
 70
0
 90
484
 10
795963.690745648
 20
2479468.75725253
 10
795930.127048013
 20
2479494.54068254
 10
795930.878425676
 20
2479489.00589339
 10
795929.69297706
 20
2479485.38414517
 10
795884.688185231
 20
2479530.55554585
 10
795884.255748208
 20
2479530.26725451
 10
795883.626467583
 20
2479529.76532882
 10
795883.136192338
 20
2479529.3889087
 10
795859.504290922
 20
2479575.44629159
 10
795855.838183295
 20
2479582.08330718
 10
795852.914943207
 20
2479587.50424071
 10
795852.250236772
 20
2479588.26899738
 10
795850.694147681
 20
2479591.10026506
 10
795849.383570777
 20
2479592.40040746
 10
795835.115067119
 20
2479610.63496455
 10
795835.195049037
 20
2479610.90072148
 10
795835.33498681
 20
2479611.12906417
 10
795835.357554956
 20
2479611.34028286
 10
795835.586381211
 20
2479611.63405058
 10
795835.751346696
 20
2479611.93308207
 10
795835.743884015
 20
2479612.07847457
 10
795835.846682441
 20
2479612.4270325
 10
795834.403633926
 20
2479612.51103534
 10
795833.589674308
 20
2479612.75630565
 10
795834.115861319
 20
2479614.17673956
 10
795832.128641282
 20
2479615.07732195
 10
795830.797660618
 20
2479614.85704957
 10
795818.236964797
 20
2479627.16990813
 10
795815.771023587
 20
2479629.32670402
 10
795789.794709645
 20
2479662.77131129
 10
795767.228879517
 20
2479692.79862162
 10
795754.536385312
 20
2479708.55967018
 10
795753.662028241
 20
2479707.99920785
 10
795750.258319342
 20
2479709.73680284
 10
795747.708204345
 20
2479711.78363438
 10
795745.411159749
 20
2479712.44309946
 10
795743.110179469
 20
2479713.24539334
 10
795742.160581027
 20
2479712.61232771
 10
795739.970786561
 20
2479713.27820158
 10
795736.934177447
 20
2479715.27264525
 10
795733.373588121
 20
2479712.92277463
 10
795728.196389551
 20
2479717.86053899
 10
795726.385462917
 20
2479715.68876368
 10
795724.66098207
 20
2479713.30324227
 10
795720.984408612
 20
2479711.89236307
 10
795719.067024917
 20
2479709.82119885
 10
795717.009136014
 20
2479707.88399832
 10
795714.83905374
 20
2479708.15587144
 10
795710.578883537
 20
2479707.6627221
 10
795681.344130153
 20
2479723.31410994
 10
795660.939234248
 20
2479735.96806673
 10
795661.060873839
 20
2479736.30543591
 10
795660.833111111
 20
2479736.22207407
 10
795660.139364641
 20
2479735.91149171
 10
795647.089743767
 20
2479767.29701297
 10
795643.247383489
 20
2479784.91377383
 10
795647.43984536
 20
2479787.46590391
 10
795646.662112264
 20
2479795.89868205
 10
795648.884303196
 20
2479797.61914478
 10
795650.712813301
 20
2479802.28207283
 10
795653.431760923
 20
2479803.55528642
 10
795651.219506493
 20
2479807.58790499
 10
795650.821998629
 20
2479812.70133363
 10
795653.3162336
 20
2479814.83546466
 10
795653.116036106
 20
2479817.26033327
 10
795653.209625474
 20
2479818.27394754
 10
795652.68060358
 20
2479820.13307864
 10
795652.922746117
 20
2479821.01442456
 10
795652.250803372
 20
2479823.17210114
 10
795640.60243053
 20
2479845.72796823
 10
795640.625774036
 20
2479845.75106531
 10
795640.718830422
 20
2479845.82280667
 10
795641.500267402
 20
2479846.77552808
 10
795618.237837859
 20
2479877.8322578
 10
795615.786271889
 20
2479882.89965543
 10
795605.601390374
 20
2479904.79048128
 10
795596.442901786
 20
2479919.86225446
 10
795596.445626327
 20
2479920.60142251
 10
795590.474102564
 20
2479931.17928205
 10
795590.1498
 20
2479931.1498
 10
795589.737326733
 20
2479931.15821782
 10
795563.485219941
 20
2479969.15870968
 10
795534.727823473
 20
2480013.41882267
 10
795534.99147438
 20
2480013.71677598
 10
795535.205339683
 20
2480014.0208544
 10
795535.819180143
 20
2480014.56866949
 10
795536.63716589
 20
2480015.43337851
 10
795536.544156736
 20
2480015.83938219
 10
795537.440788201
 20
2480017.60615493
 10
795488.354040284
 20
2480094.7235545
 10
795483.940948276
 20
2480100.75275862
 10
795482.582
 20
2480100.13
 10
795443.372982456
 20
2480157.61131579
 10
795428.515230769
 20
2480179.67682051
 10
795427.505432781
 20
2480179.20434622
 10
795401.014990716
 20
2480218.35742993
 10
795398.421147718
 20
2480223.17197085
 10
795398.262586502
 20
2480225.13930046
 10
795393.375848858
 20
2480233.72192098
 10
795384.889086021
 20
2480248.16322973
 10
795380.915995037
 20
2480257.05428471
 10
795378.942671697
 20
2480260.82069478
 10
795377.20224
 20
2480265.0259
 10
795381.832189349
 20
2480268.77011834
 10
795381.293801917
 20
2480268.72035144
 10
795369.6460376
 20
2480287.85339976
 10
795368.858497389
 20
2480289.30797083
 10
795368.455482464
 20
2480290.28351115
 10
795368.103952977
 20
2480291.22179211
 10
795367.40612084
 20
2480292.69919863
 10
795362.126755162
 20
2480303.08212389
 10
795348.131470588
 20
2480330.12689706
 10
795331.821719858
 20
2480355.09303191
 10
795331.093031915
 20
2480354.72868794
 10
795305.334995294
 20
2480398.11093263
 10
795305.306575252
 20
2480400.06843212
 10
795299.725980618
 20
2480412.15206683
 10
795298.965748329
 20
2480415.64077654
 10
795293.406472592
 20
2480426.85404655
 10
795293.34303481
 20
2480430.08785593
 10
795290.565056719
 20
2480440.05360096
 10
795291.433158073
 20
2480442.42294264
 10
795291.345353356
 20
2480442.94043035
 10
795291.372340694
 20
2480443.26129503
 10
795290.543138493
 20
2480445.8561943
 10
795292.388915094
 20
2480447.23334906
 10
795293.268461538
 20
2480447.84564103
 10
795288.974856115
 20
2480452.10122302
 10
795235.635937477
 20
2480529.49471422
 10
795235.646877745
 20
2480529.52370528
 10
795235.561702182
 20
2480529.55736727
 10
795234.902415992
 20
2480529.22385011
 10
795208.114164126
 20
2480577.86045706
 10
795187.715420102
 20
2480615.8051815
 10
795187.490338783
 20
2480615.75629337
 10
795186.970849826
 20
2480615.62528327
 10
795186.904416723
 20
2480615.66862899
 10
795159.972987367
 20
2480667.08162112
 10
795146.135582852
 20
2480690.98045329
 10
795151.942521883
 20
2480684.78013082
 10
795147.889382565
 20
2480694.86698818
 10
795145.324278862
 20
2480700.35092822
 10
795151.3271875
 20
2480697.00873355
 10
795146.062834646
 20
2480706.85026772
 10
795145.599911111
 20
2480706.59991111
 10
795142.555931681
 20
2480704.37010717
 10
795140.505582701
 20
2480703.01452354
 10
795140.315888804
 20
2480702.92444235
 10
795118.658209078
 20
2480748.15756057
 10
795117.359044586
 20
2480752.41404423
 10
795110.720259547
 20
2480762.85708365
 10
795107.932875133
 20
2480769.99246867
 10
795113.019195613
 20
2480773.52890311
 10
795110.428220231
 20
2480780.03619718
 10
795110.978569519
 20
2480784.59798128
 10
795110.51359179
 20
2480786.57725199
 10
795106.707628866
 20
2480796.69226804
 10
795106.141086956
 20
2480796.60581522
 10
795102.785315167
 20
2480794.94973614
 10
795102.169947156
 20
2480806.36768172
 10
795102.47958867
 20
2480806.31803825
 10
795102.047573982
 20
2480807.66779677
 10
795101.97125267
 20
2480808.31001235
 10
795100.292203599
 20
2480812.27900622
 10
795100.120506739
 20
2480813.42668193
 10
795096.346292612
 20
2480827.14821647
 10
795096.389357078
 20
2480828.55312459
 10
795089.883533665
 20
2480845.62653081
 10
795091.013325101
 20
2480847.1001774
 10
795088.612330158
 20
2480853.59244367
 10
795084.227275857
 20
2480863.24953504
 10
795094.572911796
 20
2480855.85417641
 10
795095.078382805
 20
2480857.52483112
 10
795094.158080357
 20
2480861.36226786
 10
795082.650417567
 20
2480883.94309575
 10
795083.757810526
 20
2480885.06835789
 10
795084.200487805
 20
2480885.6002439
 10
795076.676999286
 20
2480903.77598036
 10
795059.559399339
 20
2480949.0120922
 10
795059.373549417
 20
2480953.17746014
 10
795060.936502184
 20
2480955.81054174
 10
795060.254792606
 20
2480958.73203467
 10
795059.044301208
 20
2480964.62740234
 10
795056.358336467
 20
2480974.41170127
 10
795056.524064907
 20
2480978.31462039
 10
795057.35420599
 20
2480980.04568992
 10
795054.964712308
 20
2480994.18181154
 10
795055.785602052
 20
2480994.56720058
 10
795056.333854028
 20
2480994.8329653
 10
795058.724191925
 20
2480996.04071873
 10
795051.8021679
 20
2481017.15692017
 10
795049.171063621
 20
2481024.31067188
 10
795047.767634191
 20
2481034.48725682
 10
795023.191399185
 20
2481092.69858766
 10
795024.167492642
 20
2481093.1509651
 10
795026.233597884
 20
2481094.04671958
 10
795026.114924078
 20
2481094.05746204
 10
795023.66896385
 20
2481093.25986092
 10
794997.539505155
 20
2481172.94303093
 10
794996.6296875
 20
2481183.051875
 10
794996.685932203
 20
2481183.22864407
 10
794996.449666667
 20
2481183.22483333
 10
794996.564193548
 20
2481183.85473118
 10
794995.422820513
 20
2481183.60829837
 10
794983.182102831
 20
2481226.95879308
 10
794986.348542373
 20
2481223.82435593
 10
794989.628135048
 20
2481222.70319936
 10
794989.662845691
 20
2481232.77837675
 10
794989.07260274
 20
2481244.15127854
 10
794986.767478592
 20
2481257.15781161
 10
794983.478927374
 20
2481269.59259218
 10
794981.03426009
 20
2481278.38784753
 10
794980.819810427
 20
2481278.40990521
 10
794980.265306748
 20
2481278.26530675
 10
794978.588825503
 20
2481278.19627517
 10
794970.87952372
 20
2481307.50994897
 10
794971.597864759
 20
2481307.25324902
 10
794970.80004349
 20
2481319.64229075
 10
794969.621200977
 20
2481326.58555055
 10
794964.844075493
 20
2481343.78456585
 10
794965.213249771
 20
2481347.0093756
 10
794962.930007134
 20
2481356.50210847
 10
794965.513327018
 20
2481361.64831763
 10
794967.396402646
 20
2481364.24270934
 10
794967.481294022
 20
2481368.22511563
 10
794968.015100252
 20
2481372.10702272
 10
794967.822824662
 20
2481373.3269456
 10
794965.774783556
 20
2481379.84093924
 10
794955.962929493
 20
2481416.2707606
 10
794952.362237984
 20
2481425.86422039
 10
794935.306453674
 20
2481481.07661342
 10
794935.892258065
 20
2481481.48204301
 10
794926.117325581
 20
2481530.73011628
 10
794917.644782609
 20
2481569.41119565
 10
794918.619509202
 20
2481570.10325153
 10
794918.480857143
 20
2481570.16028571
 10
794914.15881519
 20
2481569.37941056
 10
794908.642620462
 20
2481617.93524802
 10
794908.032720025
 20
2481624.56244737
 10
794904.973428723
 20
2481668.88855266
 10
794905.344222222
 20
2481669
 10
794905.369584906
 20
2481669.22826415
 10
794904.976947368
 20
2481669.28242105
 10
794905.101556886
 20
2481669.38769461
 10
794899.797789116
 20
2481689.9210034
 10
794895.743522394
 20
2481698.68717741
 10
794894.182790371
 20
2481704.3310688
 10
794886.549999309
 20
2481763.90695479
 10
794887.388479959
 20
2481764.23487
 10
794888.947955682
 20
2481812.31434667
 10
794889.60744078
 20
2481814.91834149
 10
794889.814974661
 20
2481818.24029668
 10
794890.193832342
 20
2481819.98795232
 10
794890.654995171
 20
2481820.90674372
 10
794891.112973292
 20
2481822.22992184
 10
794892.155375123
 20
2481823.22940512
 10
794893.229335424
 20
2481824.66913851
 10
794894.443926797
 20
2481840.97917571
 10
794895.278881528
 20
2481849.0248015
 10
794895.96343444
 20
2481845.27097451
 10
794905.679654617
 20
2481769.26099683
 10
794896.595683535
 20
2481871.68225839
 10
794900.220902841
 20
2481938.10349459
 10
794902.436476072
 20
2481936.65733575
 10
794906.903868857
 20
2481961.11566165
 10
794907.249756884
 20
2481961.09692705
 10
794907.723209073
 20
2481961.23616076
 10
794908.078444897
 20
2481989.93892056
 10
794907.529523568
 20
2482020.22281598
 10
794906.781517675
 20
2482021.64806513
 10
794905.348261749
 20
2482019.87518671
 10
794904.573711312
 20
2482026.53152621
 10
794904.239139408
 20
2482026.7614171
 10
794907.833450581
 20
2482064.40223498
 10
794908.017426649
 20
2482064.39027502
 10
794905.834666235
 20
2482064.87749654
 10
794907.077399251
 20
2482073.33403939
 10
794907.575278648
 20
2482075.38543142
 10
794907.915924205
 20
2482076.76228833
 10
794908.292719148
 20
2482078.16900706
 10
794925.299301261
 20
2482147.70751189
 10
794926.749628253
 20
2482153.48107807
 10
794926.967025704
 20
2482154.49439412
 10
794926.979567691
 20
2482154.53005688
 10
794927.104418605
 20
2482154.98508306
 10
794927.090707071
 20
2482155
 10
794926.328544847
 20
2482155.40754858
 10
794932.499707578
 20
2482175.70500142
 10
794933.139331541
 20
2482176.85766133
 10
794934.264888039
 20
2482180.08148052
 10
794938.17460968
 20
2482194.78011818
 10
794939.839985332
 20
2482198.09401398
 10
794947.993595116
 20
2482224.46535636
 10
794952.227379985
 20
2482238.01422299
 10
794955.15975587
 20
2482252.84754907
 10
794955.23202381
 20
2482252.94199405
 10
794974.600025379
 20
2482308.21364158
 10
794980.688051392
 20
2482318.41965739
 10
794986.46424112
 20
2482333.96285253
 10
794988.359824561
 20
2482337.99920255
 10
794992.600957447
 20
2482349.46634752
 10
794992.050907821
 20
2482349.78981844
 10
794989.088486098
 20
2482350.98320356
 10
795013.285519653
 20
2482406.67278467
 10
795015.935470911
 20
2482408.79032913
 10
795024.667195617
 20
2482429.44784937
 10
795029.746306065
 20
2482440.35349384
 10
795029.53320321
 20
2482440.54622818
 10
795029.400493845
 20
2482440.65584417
 10
795029.446147742
 20
2482440.77808297
 10
795028.316814103
 20
2482441.24184188
 10
795048.349058967
 20
2482485.24930722
 10
795049.1872778
 20
2482486.25010525
 10
795063.262660754
 20
2482506.60305987
 10
795067.132376068
 20
2482513.54784615
 10
795073.183666667
 20
2482523.82621905
 10
795080.244504854
 20
2482537.15831068
 10
795082.03227907
 20
2482536.65590698
 10
795083.261675393
 20
2482536.3691623
 10
795101.007227298
 20
2482568.47550657
 10
795119.876777772
 20
2482603.28428407
 10
795122.963849578
 20
2482607.45700087
 10
795133.666489139
 20
2482625.31560427
 10
795137.000767918
 20
2482623.79953925
 10
795137.707543478
 20
2482623.52830435
 10
795138.281377953
 20
2482623.57287402
 10
795138.758976546
 20
2482623.62051173
 10
795149.110671408
 20
2482638.62727531
 10
795149.890037963
 20
2482638.19249378
 10
795174.529263414
 20
2482671.61966508
 10
795176.915080974
 20
2482669.91251352
 10
795182.55337445
 20
2482673.37048056
 10
795184.529288474
 20
2482672.95315836
 10
795185.45619273
 20
2482671.97723977
 10
795188.157771569
 20
2482672.03031744
 10
795197.458513932
 20
2482681.65781424
 10
795201.394166122
 20
2482681.95492442
 10
795203.530539954
 20
2482683.77697892
 10
795205.004018414
 20
2482684.46321642
 10
795206.126605723
 20
2482684.4945318
 10
795212.756795402
 20
2482697.26572353
 10
795212.126438302
 20
2482697.66377084
 10
795249.254989333
 20
2482754.60972833
 10
795252.257149116
 20
2482755.54065227
 10
795254.454951355
 20
2482757.65982408
 10
795255.9223667
 20
2482758.55284685
 10
795257.669514946
 20
2482759.80644103
 10
795259.25733155
 20
2482760.75441255
 10
795260.302261907
 20
2482760.86649251
 10
795261.365578135
 20
2482760.9797378
 10
795263.607382666
 20
2482761.29109392
 10
795264.679935006
 20
2482760.58868108
 10
795267.194056176
 20
2482761.39735893
 10
795272.630063573
 20
2482761.13178004
 10
795273.2632
 20
2482760.77004444
 10
795273.890856599
 20
2482760.40250635
 10
795285.103636364
 20
2482767.59757576
 10
795285.158292683
 20
2482767.63128049
 10
795290.417834291
 20
2482773.36779326
 10
795290.346890402
 20
2482772.36541444
 10
795313.286098271
 20
2482797.12049451
 10
795325.05592173
 20
2482809.92163784
 10
795324.552242275
 20
2482807.42060214
 10
795325.293607567
 20
2482805.03640144
 10
795338.324006073
 20
2482816.3183248
 10
795339.735875165
 20
2482816.05956654
 10
795339.522620206
 20
2482814.59697584
 10
795343.789833908
 20
2482818.25302639
 10
795346.236840597
 20
2482820.37220225
 10
795347.470731504
 20
2482820.78690065
 10
795348.840056749
 20
2482821.3432495
 10
795350.255105551
 20
2482821.91817557
 10
795351.282837965
 20
2482821.96955146
 10
795356.269042837
 20
2482826.84352517
 10
795367.393279088
 20
2482839.34342659
 10
795369.317450148
 20
2482838.07530444
 10
795368.143197863
 20
2482838.72090762
 10
795360.98178115
 20
2482828.70351438
 10
795363.49749359
 20
2482829.88613462
 10
795374.206110335
 20
2482832.98626397
 10
795374.290159681
 20
2482832.99924152
 10
795375.215261538
 20
2482833.81164615
 10
795375.216460396
 20
2482833.82683168
 10
795375.248085106
 20
2482833.87595745
 10
795373.487867299
 20
2482835.3414218
 10
795387.86736809
 20
2482847.96193831
 10
795387.770472339
 20
2482847.21744547
 10
795387.786557617
 20
2482846.65674258
 10
795390.028778519
 20
2482848.82639321
 10
795391.92120667
 20
2482850.75559077
 10
795393.037668621
 20
2482851.3172363
 10
795394.004675738
 20
2482852.02907577
 10
795395.436163607
 20
2482852.80820755
 10
795396.830864758
 20
2482853.878877
 10
795398.524083004
 20
2482855.20737977
 10
795418.650706076
 20
2482873.46077159
 10
795426.022372005
 20
2482880.70858949
 10
795431.626912185
 20
2482885.74188111
 10
795439.990465632
 20
2482889.99046563
 10
795447.43588147
 20
2482896.08125281
 10
795451.386881721
 20
2482898.78647849
 10
795451.221401515
 20
2482899.02287879
 10
795451.264509804
 20
2482899.15699346
 10
795450.524950292
 20
2482899.98727562
 10
795460.039228997
 20
2482906.82162796
 10
795460.477235261
 20
2482906.46842516
 10
795460.870715934
 20
2482906.56248931
 10
795461.609795432
 20
2482906.81926581
 10
795464.222518423
 20
2482908.82494943
 10
795475.565922841
 20
2482916.99372596
 10
795492.606439639
 20
2482928.76826891
 10
795496.084319246
 20
2482931.2546886
 10
795493.408072514
 20
2482927.4378671
 10
795498.044478557
 20
2482931.81675547
 10
795501.153901898
 20
2482934.35741044
 10
795506.235562659
 20
2482938.86869235
 10
795513.558705838
 20
2482945.50719484
 10
795517.70681485
 20
2482948.63520097
 10
795524.470652307
 20
2482954.22358367
 10
795525.981608165
 20
2482955.57446303
 10
795529.525064078
 20
2482957.82540938
 10
795522.797476255
 20
2482944.22477612
 10
795527.136869806
 20
2482947.86534626
 10
795528.540364098
 20
2482947.98367485
 10
795529.272604651
 20
2482948.55909302
 10
795529.879738182
 20
2482948.82781818
 10
795538.544967742
 20
2482953.87919355
 10
795541.570889423
 20
2482951.42911058
 10
795558.490589575
 20
2482966.97051469
 10
795558.91998058
 20
2482967.06795841
 10
795559.677887305
 20
2482967.14052361
 10
795575.953561927
 20
2482978.71764106
 10
795583.026644156
 20
2482984.28372684
 10
795585.537373286
 20
2482985.92627578
 10
795586.956515641
 20
2482986.4880355
 10
795594.718627168
 20
2482988.2783815
 10
795609.0709135
 20
2482997.27826192
 10
795621.44121813
 20
2483003.96003777
 10
795622.375278008
 20
2483004.31014108
 10
795627.828702866
 20
2483008.05291101
 10
795628.330338983
 20
2483007.66966102
 10
795628.337383966
 20
2483008.07827004
 10
795627.530276243
 20
2483009.21467772
 10
795676.34862045
 20
2483047.01819048
 10
795678.115411045
 20
2483046.96194896
 10
795705.978582293
 20
2483070.02386204
 10
795773.677197282
 20
2483132.20921099
 10
795773.817999931
 20
2483132.48136694
 10
795777.659719985
 20
2483136.3725601
 10
795777.740467656
 20
2483136.30518835
 10
795776.539167122
 20
2483137.79550083
 10
795776.919124436
 20
2483137.59259092
 10
795784.48001743
 20
2483147.07917469
 10
795786.448047656
 20
2483150.2292369
 10
795788.779146716
 20
2483155.96489101
 10
795793.619180553
 20
2483162.56794594
 10
795794.830759149
 20
2483165.45064697
 10
795795.873444892
 20
2483167.21010747
 10
795822.793140932
 20
2483203.90884381
 10
795822.985846233
 20
2483204.29827322
 10
795823.658387195
 20
2483205.18973214
 10
795824.492689798
 20
2483206.21553659
 10
795825.024084599
 20
2483207.00041222
 10
795825.464182497
 20
2483207.64030671
 10
795825.262793553
 20
2483207.64443644
 10
795825.108087522
 20
2483207.7926849
 10
795824.878643755
 20
2483208.06245111
 10
795828.855839959
 20
2483213.36543721
 10
795829.082482143
 20
2483213.17329143
 10
795829.1982375
 20
2483213.10304765
 10
795829.445939706
 20
2483212.94204518
 10
795829.953689006
 20
2483213.65479422
 10
795852.953399226
 20
2483239.50043896
 10
795852.096971968
 20
2483241.32193608
 10
795853.390165665
 20
2483245.59647601
 10
795855.848911613
 20
2483250.72756855
 10
795857.450248609
 20
2483253.86692363
 10
795862.298815144
 20
2483263.16921338
 10
795862.666049586
 20
2483265.39293558
 10
795863.389411312
 20
2483267.27129648
 10
795863.636384195
 20
2483269.10927027
 10
795863.94570292
 20
2483270.40164776
 10
795864.413504881
 20
2483271.77449876
 10
795887.285505226
 20
2483301.5002439
  0
LWPOLYLINE
  5
20026
100
AcDbEntity
  8
0
100
AcDbPolyline
 70
0
 90
7
 10
795969.655451093
 20
2479471.46182594
 10
795968.176236897
 20
2479471.11990781
 10
795967.439898098
 20
2479470.74733125
 10
795966.924163495
 20
2479470.24083476
 10
795965.822920982
 20
2479469.47444636
 10
795965.410056798
 20
2479469.2848973
 10
795964.776525613
 20
2479468.67211507
  0
LWPOLYLINE
  5
20027
100
AcDbEntity
  8
0
100
AcDbPolyline
 70
0
 90
15
 10
795383.725882353
 20
2482124.20823529
 10
795368.267314815
 20
2482096.37305556
 10
795367.910707965
 20
2482095.97584071
 10
795365.838021978
 20
2482092.30884615
 10
795365.277511737
 20
2482091.47258216
 10
795364.559361702
 20
2482090.2201773
 10
795364.212987805
 20
2482089.70280488
 10
795362.197980501
 20
2482086.9429805
 10
795362.270746269
 20
2482086.1041791
 10
795362.551285714
 20
2482086.04985714
 10
795362.77483871
 20
2482086
 10
795362.965
 20
2482085.345
 10
795362.220526316
 20
2482085.25421053
 10
795363.544134831
 20
2482073.66849438
 10
795383.725882353
 20
2482124.20823529
  0
LWPOLYLINE
  5
20028
100
AcDbEntity
  8
0
100
AcDbPolyline
 70
0
 90
7
 10
795536.504514319
 20
2482956.22738684
 10
795534.956582011
 20
2482957.32596426
 10
795534.331845268
 20
2482957.97700334
 10
795532.421295371
 20
2482960.01186326
 10
795541.08615047
 20
2482965.43348691
 10
795544.491668712
 20
2482967.19536223
 10
795536.504514319
 20
2482956.22738684
  0
LWPOLYLINE
  5
20029
100
AcDbEntity
  8
0
100
AcDbPolyline
 70
0
 90
4
 10
796155.580578035
 20
2482857.12023121
 10
795901.84744186
 20
2480855.90976744
 10
795934.633488372
 20
2480809.07255814
 10
796239.209169435
 20
2482614.40163898
  0
LWPOLYLINE
  5
2002A
100
AcDbEntity
  8
0
100
AcDbPolyline
 70
0
 90
2
 10
796247.626918834
 20
2482916.65815603
 10
796224.290704225
 20
2482900.11943662
  0
LWPOLYLINE
  5
2002B
100
AcDbEntity
  8
0
100
AcDbPolyline
 70
0
 90
4
 10
795858.226386424
 20
2483298.79594095
 10
795863.076672844
 20
2483307.11367222
 10
795862.877387092
 20
2483307.8080307
 10
795871.538408414
 20
2483318.12863586
  0
LWPOLYLINE
  5
2002C
100
AcDbEntity
  8
0
100
AcDbPolyline
 70
0
 90
438
 10
795961.756218828
 20
2479466.40365844
 10
795940.354530314
 20
2479482.84430642
 10
795941.312891892
 20
2479475.78483483
 10
795939.800884733
 20
2479471.16539442
 10
795910.615290514
 20
2479500.45903443
 10
795907.679655991
 20
2479502.7741534
 10
795900.781108712
 20
2479509.2226126
 10
795890.269279631
 20
2479519.18955076
 10
795881.318148575
 20
2479527.82731475
 10
795877.461483874
 20
2479534.97921551
 10
795875.427384128
 20
2479537.31948373
 10
795870.665521958
 20
2479545.9835805
 10
795866.654963301
 20
2479549.96220802
 10
795822.991237255
 20
2479605.76264264
 10
795823.235993723
 20
2479606.57589805
 10
795823.664223953
 20
2479607.27466038
 10
795823.733285807
 20
2479607.92102071
 10
795824.433527903
 20
2479608.81999329
 10
795824.938346622
 20
2479609.73507374
 10
795824.915509716
 20
2479610.17999625
 10
795825.157569613
 20
2479611.0007471
 10
795822.056211587
 20
2479615.37408048
 10
795820.744166067
 20
2479617.17365146
 10
795790.11821399
 20
2479655.88507487
 10
795785.079070734
 20
2479662.5618476
 10
795779.465056294
 20
2479671.61375353
 10
795765.0817448
 20
2479691.0426316
 10
795761.763662207
 20
2479693.70586683
 10
795758.727945913
 20
2479694.57739928
 10
795755.687028318
 20
2479695.63769066
 10
795755.396787384
 20
2479695.44419671
 10
795752.50281016
 20
2479696.32419885
 10
795748.489704023
 20
2479698.96000538
 10
795746.87053124
 20
2479697.89140515
 10
795740.004420546
 20
2479704.43997311
 10
795737.602731184
 20
2479701.55971857
 10
795735.31568806
 20
2479698.39598941
 10
795733.20902752
 20
2479697.58756179
 10
795730.64027047
 20
2479694.81278191
 10
795727.8832758
 20
2479692.21747585
 10
795726.662265166
 20
2479692.370447
 10
795724.265253227
 20
2479692.09297337
 10
795707.816132758
 20
2479700.89932657
 10
795673.619234586
 20
2479722.10629935
 10
795655.426402621
 20
2479732.11309839
 10
795655.379912185
 20
2479732.0840367
 10
795641.059815507
 20
2479769.80568057
 10
795630.698574502
 20
2479794.72540452
 10
795628.684184285
 20
2479803.96114198
 10
795634.928756677
 20
2479807.76247912
 10
795634.514012139
 20
2479812.25945719
 10
795637.54595437
 20
2479814.60684487
 10
795638.519577864
 20
2479817.0897058
 10
795642.127645085
 20
2479818.77927135
 10
795639.191964151
 20
2479824.13059137
 10
795638.664467746
 20
2479830.9161558
 10
795639.491757108
 20
2479831.62400567
 10
795639.226719376
 20
2479834.83424404
 10
795639.350620596
 20
2479836.17614907
 10
795638.65025837
 20
2479838.63741809
 10
795638.970826361
 20
2479839.80421553
 10
795638.081253883
 20
2479842.66072335
 10
795637.569101988
 20
2479843.65245243
 10
795637.6075555
 20
2479843.6905
 10
795608.689266274
 20
2479882.10384235
 10
795591.54381535
 20
2479904.72664923
 10
795577.35988592
 20
2479921.5055984
 10
795575.976245673
 20
2479925.5799132
 10
795576.102678562
 20
2479925.76777279
 10
795566.971345522
 20
2479948.07143122
 10
795568.226677999
 20
2479948.76731114
 10
795563.90202
 20
2479954.68967414
 10
795559.016776246
 20
2479963.86191821
 10
795541.111353365
 20
2479989.9267268
 10
795528.350980398
 20
2480009.56604116
 10
795528.895354683
 20
2480010.18124146
 10
795527.23047948
 20
2480012.79424147
 10
795526.587881422
 20
2480013.87588571
 10
795513.237096563
 20
2480034.50842588
 10
795511.143115579
 20
2480039.48118828
 10
795500.85192106
 20
2480054.82930163
 10
795493.749560153
 20
2480066.01361985
 10
795486.732189321
 20
2480077.26310606
 10
795474.742064225
 20
2480094.04626921
 10
795440.514525482
 20
2480140.22651766
 10
795434.250222432
 20
2480149.47084838
 10
795429.612526704
 20
2480155.92445596
 10
795419.902784948
 20
2480171.66991546
 10
795419.683170465
 20
2480171.98331047
 10
795419.484819926
 20
2480172.29690185
 10
795419.132779294
 20
2480172.83150765
 10
795414.428705241
 20
2480182.22869876
 10
795415.703050631
 20
2480184.92544731
 10
795416.447734543
 20
2480184.90879752
 10
795409.63404794
 20
2480198.8575603
 10
795405.353470628
 20
2480204.86753484
 10
795401.409069925
 20
2480212.09191427
 10
795379.608865541
 20
2480244.31278945
 10
795375.163292988
 20
2480252.56440336
 10
795374.891535835
 20
2480255.93619824
 10
795371.940715755
 20
2480261.11874962
 10
795362.752732771
 20
2480276.00734593
 10
795363.77823159
 20
2480275.4162689
 10
795353.81982507
 20
2480292.49568589
 10
795365.563442023
 20
2480283.88560303
 10
795367.990446877
 20
2480281.72117579
 10
795362.31586738
 20
2480290.26787015
 10
795362.269123118
 20
2480291.3520252
 10
795360.996407918
 20
2480293.77742065
 10
795342.547026041
 20
2480324.08305745
 10
795340.161341354
 20
2480328.48936949
 10
795338.940493803
 20
2480331.44456033
 10
795337.875610382
 20
2480334.28688189
 10
795335.761677122
 20
2480338.76236906
 10
795328.538645018
 20
2480352.9679019
 10
795317.865440433
 20
2480372.31368065
 10
795311.219639697
 20
2480383.62274249
 10
795306.089918179
 20
2480393.45156984
 10
795284.428243111
 20
2480429.93463344
 10
795284.378345728
 20
2480433.37143709
 10
795283.477408478
 20
2480435.32223218
 10
795282.385774064
 20
2480440.33174786
 10
795282.133880058
 20
2480440.83982763
 10
795280.773769057
 20
2480443.09131912
 10
795279.861164735
 20
2480444.52725139
 10
795264.879504925
 20
2480467.10435147
 10
795229.601291455
 20
2480525.90613
 10
795183.276215941
 20
2480605.23187922
 10
795179.71289409
 20
2480611.3296806
 10
795164.186742368
 20
2480640.17618739
 10
795150.443324385
 20
2480664.91163111
 10
795149.384831042
 20
2480668.74657463
 10
795141.730696251
 20
2480685.68923954
 10
795139.757674743
 20
2480689.49463138
 10
795134.318021927
 20
2480699.10975869
 10
795104.759478003
 20
2480750.07412668
 10
795101.003420721
 20
2480760.22858931
 10
795100.777857771
 20
2480761.73936044
 10
795087.687791889
 20
2480785.92715111
 10
795084.377632583
 20
2480794.21783958
 10
795081.730817546
 20
2480804.80204252
 10
795077.612423656
 20
2480816.48439578
 10
795077.555662069
 20
2480819.04386913
 10
795081.732464632
 20
2480815.33231112
 10
795084.791533454
 20
2480812.58970857
 10
795083.697999816
 20
2480832.87985585
 10
795084.988709924
 20
2480832.67292191
 10
795083.187899311
 20
2480838.29925716
 10
795082.86976145
 20
2480840.97626949
 10
795075.870811026
 20
2480857.5206289
 10
795075.155109601
 20
2480862.30460189
 10
795074.315962019
 20
2480865.35540721
 10
795074.419633496
 20
2480868.73752045
 10
795073.281277842
 20
2480871.72493761
 10
795075.102792388
 20
2480874.10083516
 10
795074.751331331
 20
2480875.05118234
 10
795072.936695056
 20
2480879.04750875
 10
795065.347104481
 20
2480899.59485581
 10
795065.979846682
 20
2480903.89707175
 10
795066.539315109
 20
2480906.25665261
 10
795077.120841423
 20
2480895.56836996
 10
795077.762917062
 20
2480895.49692263
 10
795078.211140043
 20
2480895.78788449
 10
795061.39023511
 20
2480936.42492862
 10
795051.024329545
 20
2480963.81856237
 10
795050.791045007
 20
2480969.04706031
 10
795052.752911391
 20
2480972.35218532
 10
795051.897208562
 20
2480976.01933309
 10
795050.377762528
 20
2480983.41937992
 10
795048.209467392
 20
2480991.31793772
 10
795044.558027219
 20
2481002.0525014
 10
795042.926936044
 20
2481010.36864788
 10
795044.477076036
 20
2481012.81163908
 10
795042.973253678
 20
2481017.2332368
 10
795042.06484769
 20
2481019.98007042
 10
795041.892247242
 20
2481023.87161948
 10
795040.192521394
 20
2481031.36200846
 10
795029.935799452
 20
2481060.20898988
 10
795024.269644967
 20
2481077.49405839
 10
795019.15125637
 20
2481091.41052741
 10
794993.356528099
 20
2481156.78878568
 10
794987.815506449
 20
2481171.00543877
 10
794982.416059711
 20
2481178.15439327
 10
794980.231176049
 20
2481177.46029679
 10
794982.924713558
 20
2481178.66304712
 10
794983.562317421
 20
2481185.63946675
 10
794983.477276663
 20
2481186.19121869
 10
794983.375407592
 20
2481186.85210377
 10
794981.246138932
 20
2481193.6989526
 10
794974.238874651
 20
2481222.64092366
 10
794970.124153124
 20
2481237.570927
 10
794967.015428804
 20
2481250.21761157
 10
794964.926476221
 20
2481264.48240636
 10
794963.306336272
 20
2481270.22013107
 10
794969.817220339
 20
2481263.77505085
 10
794976.560771704
 20
2481261.46971061
 10
794976.612682927
 20
2481276.53756098
 10
794977.104251969
 20
2481276.77606299
 10
794977.251578947
 20
2481277
 10
794976.584444444
 20
2481277.31688889
 10
794975.861342282
 20
2481277.28711409
 10
794959.431397803
 20
2481339.75996138
 10
794960.962315091
 20
2481339.21288643
 10
794960.543451581
 20
2481345.71724737
 10
794958.569152412
 20
2481357.34566414
 10
794953.420350688
 20
2481375.88282
 10
794931.043765594
 20
2481447.64599063
 10
794920.549894494
 20
2481477.48091844
 10
794918.234834774
 20
2481493.98489385
 10
794912.896447782
 20
2481519.29473138
 10
794912.272159358
 20
2481528.04554083
 10
794910.565961488
 20
2481543.2090244
 10
794911.027401001
 20
2481543.60793201
 10
794905.707479339
 20
2481567.46150678
 10
794898.783891774
 20
2481609.81469577
 10
794899.259874484
 20
2481614.74278946
 10
794899.540049735
 20
2481621.46194336
 10
794898.988205452
 20
2481630.79729268
 10
794896.726386231
 20
2481659.48642613
 10
794895.985311331
 20
2481666.00967525
 10
794895.818498182
 20
2481667.82227273
 10
794895.472584257
 20
2481669.07316051
 10
794894.178921572
 20
2481679.17052857
 10
794888.682820434
 20
2481712.10869732
 10
794884.404726173
 20
2481736.55997082
 10
794883.188243798
 20
2481743.29646387
 10
794880.603499605
 20
2481763.57161086
 10
794880.89723942
 20
2481769.83775076
 10
794882.895061315
 20
2481780.34641166
 10
794883.856017141
 20
2481778.58967967
 10
794883.837694718
 20
2481789.11351463
 10
794885.605545565
 20
2481843.61730861
 10
794886.701343079
 20
2481847.94409485
 10
794887.046180456
 20
2481853.46384087
 10
794887.675688698
 20
2481856.36773773
 10
794888.44195481
 20
2481857.89439744
 10
794889.202929225
 20
2481860.09298435
 10
794890.934979485
 20
2481861.75372133
 10
794892.719467159
 20
2481864.14597595
 10
794893.275993631
 20
2481871.61924446
 10
794894.992001144
 20
2481926.31638924
 10
794898.679094
 20
2481961.8250935
 10
794897.130319107
 20
2481975.13497109
 10
794896.33680555
 20
2481975.68020973
 10
794904.861534049
 20
2482064.95399196
 10
794905.297875243
 20
2482064.92562619
 10
794905.07337596
 20
2482064.97573745
 10
794912.916651146
 20
2482118.3476136
 10
794916.05892311
 20
2482131.29458774
 10
794918.208843334
 20
2482139.98436063
 10
794920.586913595
 20
2482148.86260074
 10
794922.332862352
 20
2482156.00164052
 10
794923.375041163
 20
2482155.82490242
 10
794923.01096036
 20
2482155.91970234
 10
794933.490320327
 20
2482209.02205931
 10
794935.922372075
 20
2482215.68929977
 10
794937.404691996
 20
2482219.77677499
 10
794938.552410868
 20
2482221.96961186
 10
794942.53225201
 20
2482235.05963094
 10
794945.005473688
 20
2482239.51659884
 10
794949.357641361
 20
2482251.98207854
 10
794949.905726604
 20
2482254.0426105
 10
794970.312241967
 20
2482321.95637981
 10
794974.328397321
 20
2482334.24359247
 10
794977.245627586
 20
2482335.84886069
 10
794980.483377715
 20
2482341.10475276
 10
794983.668824935
 20
2482345.40863169
 10
794986.116700455
 20
2482351.91424409
 10
794992.700683104
 20
2482368.259156
 10
795005.922356926
 20
2482403.25133096
 10
795008.934912825
 20
2482408.08720669
 10
795011.236724953
 20
2482410.52842884
 10
795021.566833581
 20
2482434.30322012
 10
795025.486349117
 20
2482437.43525825
 10
795027.17897273
 20
2482441.43966835
 10
795027.188749314
 20
2482441.46584526
 10
795025.061176261
 20
2482442.33952946
 10
795062.800302143
 20
2482525.24602774
 10
795064.379438494
 20
2482527.13145012
 10
795073.654881118
 20
2482540.54370777
 10
795073.93871224
 20
2482540.42916295
 10
795073.782600747
 20
2482540.59271473
 10
795073.698461289
 20
2482540.74008789
 10
795073.076117419
 20
2482541.17389548
 10
795093.094651289
 20
2482576.56244933
 10
795094.428107743
 20
2482578.07356807
 10
795105.357994635
 20
2482596.14883784
 10
795108.148567349
 20
2482599.85908248
 10
795116.385280186
 20
2482611.32290419
 10
795117.501299588
 20
2482610.32739335
 10
795128.18050332
 20
2482628.471526
 10
795129.866537701
 20
2482627.66607496
 10
795134.774859666
 20
2482625.40025438
 10
795135.409438202
 20
2482625
 10
795136.244465116
 20
2482624.75553488
 10
795136.448272921
 20
2482624.77586354
 10
795166.074139241
 20
2482667.72422879
 10
795168.304634798
 20
2482666.47991278
 10
795182.972829536
 20
2482686.37973712
 10
795186.040845228
 20
2482684.18444446
 10
795189.414341818
 20
2482686.25341091
 10
795191.833960733
 20
2482685.74237619
 10
795192.969007623
 20
2482684.54730845
 10
795194.568584391
 20
2482684.57873519
 10
795205.846439629
 20
2482696.25280495
 10
795210.618716284
 20
2482696.61307357
 10
795211.9479776
 20
2482697.746764
 10
795211.560441638
 20
2482697.9914787
 10
795256.002089871
 20
2482766.15390736
 10
795259.595575888
 20
2482767.26819254
 10
795262.226272516
 20
2482769.80477114
 10
795263.982720176
 20
2482770.87368988
 10
795266.073998872
 20
2482772.37420068
 10
795267.974562859
 20
2482773.50889125
 10
795269.225309954
 20
2482773.64304726
 10
795270.498064328
 20
2482773.77859812
 10
795273.181430245
 20
2482774.1512811
 10
795273.277188053
 20
2482774.08856946
 10
795275.16216381
 20
2482774.69488
 10
795281.60511075
 20
2482780.89592313
 10
795295.007068658
 20
2482793.84392496
 10
795305.959015138
 20
2482805.81031281
 10
795311.315345897
 20
2482808.32378237
 10
795325.101225899
 20
2482823.35986016
 10
795324.47331801
 20
2482814.48803786
 10
795335.03689198
 20
2482825.88782642
 10
795340.456930955
 20
2482831.78279129
 10
795339.718583352
 20
2482828.11650373
 10
795340.805356458
 20
2482824.62148552
 10
795347.707674513
 20
2482830.59762073
 10
795349.465241061
 20
2482830.27550527
 10
795349.199770428
 20
2482828.45479788
 10
795354.511815363
 20
2482833.0060358
 10
795357.55797391
 20
2482835.64409383
 10
795359.093984151
 20
2482836.16033152
 10
795360.798589953
 20
2482836.85290291
 10
795362.560114766
 20
2482837.56860015
 10
795363.839488415
 20
2482837.63255548
 10
795366.404185946
 20
2482840.13952595
 10
795367.091024345
 20
2482839.70286756
 10
795366.696806472
 20
2482840.04201528
 10
795396.313405778
 20
2482870.96289642
 10
795397.764660513
 20
2482870.7487271
 10
795397.138877213
 20
2482867.99716778
 10
795411.705891582
 20
2482880.78226012
 10
795411.396446518
 20
2482878.40465703
 10
795411.44781626
 20
2482876.61400325
 10
795418.608545048
 20
2482883.54297252
 10
795424.652180057
 20
2482889.70403387
 10
795428.217699061
 20
2482891.49769806
 10
795431.305920963
 20
2482893.77101973
 10
795435.877502819
 20
2482896.25924528
 10
795440.33160307
 20
2482899.67852194
 10
795445.739043802
 20
2482903.92121186
 10
795445.743500046
 20
2482903.92525335
 10
795445.749955758
 20
2482903.93160061
 10
795459.079835086
 20
2482917.41378609
 10
795459.489556947
 20
2482917.0260362
 10
795465.349292726
 20
2482922.16120052
 10
795481.586379738
 20
2482933.82471985
 10
795483.365127582
 20
2482932.39035974
 10
795484.96305655
 20
2482932.7723552
 10
795487.964465826
 20
2482933.81512712
 10
795498.574760162
 20
2482941.96022847
 10
795503.493973943
 20
2482945.50272388
 10
795510.883814063
 20
2482950.60890645
 10
795516.372882165
 20
2482954.53317313
 10
795512.149015261
 20
2482948.50915977
 10
795519.466562559
 20
2482955.42027207
 10
795524.374103476
 20
2482959.4301372
 10
795528.890518222
 20
2482963.43961778
 10
795536.408854405
 20
2482968.61271174
 10
795551.632866021
 20
2482979.20582979
 10
795556.715037647
 20
2482982.27411202
 10
795562.599892302
 20
2482986.12915089
 10
795565.336687185
 20
2482987.58130492
 10
795572.120119539
 20
2482991.82571719
 10
795574.033606769
 20
2482992.81567692
 10
795562.808287133
 20
2482977.40104695
 10
795564.077938794
 20
2482976.34615422
 10
795547.581948694
 20
2482958.19999746
 10
795583.518853727
 20
2482991.20944555
 10
795584.599944384
 20
2482991.45478252
 10
795586.508148958
 20
2482991.63748211
 10
795595.209718003
 20
2482997.82703119
 10
795606.682952165
 20
2483006.85576907
 10
795610.755601442
 20
2483009.5201448
 10
795613.057589745
 20
2483010.43137425
 10
795623.341692198
 20
2483012.80342232
 10
795623.11988334
 20
2483013.09813655
 10
795623.179310937
 20
2483013.05767495
 10
795621.886246279
 20
2483014.82352186
 10
795622.275922953
 20
2483014.5247302
 10
795645.807048573
 20
2483031.32878017
 10
795646.112775869
 20
2483030.82545132
 10
795651.91104216
 20
2483035.03550011
 10
795656.900047439
 20
2483039.08741895
 10
795661.747275057
 20
2483042.83886654
 10
795666.18979464
 20
2483046.07313303
 10
795672.200971879
 20
2483050.50399425
 10
795679.722055059
 20
2483056.00339529
 10
795702.771634634
 20
2483073.54600919
 10
795728.696657512
 20
2483099.46098323
 10
795772.166260317
 20
2483142.2680604
 10
795772.798596645
 20
2483143.1307303
 10
795774.578568843
 20
2483147.3658065
 10
795776.110414685
 20
2483149.95069103
 10
795782.542587906
 20
2483158.71946126
 10
795783.811558868
 20
2483161.28386721
 10
795788.240263975
 20
2483167.15415447
 10
795793.734174993
 20
2483173.90911168
 10
795797.233427838
 20
2483179.07754441
 10
795800.131487464
 20
2483183.29127142
 10
795798.805334419
 20
2483183.31846583
 10
795797.786589941
 20
2483184.29468694
 10
795796.275694934
 20
2483186.07110665
 10
795822.465667213
 20
2483220.99145049
 10
795823.958113703
 20
2483219.72616397
 10
795824.423062162
 20
2483219.44401946
 10
795826.227612083
 20
2483222.98176509
 10
795826.615510577
 20
2483223.72597354
 10
795827.423944199
 20
2483228.62129812
 10
795829.016360035
 20
2483232.75634085
 10
795829.560048644
 20
2483236.80247498
 10
795830.24098602
 20
2483239.64752789
 10
795831.27081
 20
2483242.669736
 10
795842.605314286
 20
2483257.40069878
 10
795843.228517183
 20
2483259.73087594
 10
795848.64502089
 20
2483267.21597247
 10
795849.582975248
 20
2483268.91099776
 10
795853.864680737
 20
2483274.57781598
 10
795858.066110585
 20
2483280.26575345
 10
795862.1065306
 20
2483284.89537936
 10
795858.464024018
 20
2483293.09789579
 10
795857.983915497
 20
2483293.32059704
 10
795856.097057935
 20
2483291.65240144
 10
795855.139900785
 20
2483291.86556356
 10
795854.170216808
 20
2483292.1060439
  0
LWPOLYLINE
  5
2002D
100
AcDbEntity
  8
0
100
AcDbPolyline
 70
0
 90
5
 10
795872.202352941
 20
2480713.60117647
 10
795871.831034483
 20
2480713.06482759
 10
795882.3225
 20
2480699.31
 10
795876.568421053
 20
2480716.14105263
 10
795872.202352941
 20
2480713.60117647
  0
LWPOLYLINE
  5
2002E
100
AcDbEntity
  8
0
100
AcDbPolyline
 70
0
 90
6
 10
794903.424584
 20
2481961.536916
 10
794902.366635309
 20
2481963.55272963
 10
794900.862718
 20
2481961.692446
 10
794902.226037156
 20
2481960.80257424
 10
794902.370594385
 20
2481961.59400405
 10
794903.424584
 20
2481961.536916
  0
LWPOLYLINE
  5
2002F
100
AcDbEntity
  8
0
100
AcDbPolyline
 70
0
 90
10
 10
795078.473775678
 20
2480881.79319092
 10
795083.344144527
 20
2480878.31171095
 10
795083.431443193
 20
2480878.60024565
 10
795083.2725
 20
2480879.263
 10
795081.285039597
 20
2480883.16287977
 10
795081.476294737
 20
2480883.35722105
 10
795082.067169811
 20
2480884.06716981
 10
795080.228205035
 20
2480882.74454803
 10
795079.613256657
 20
2480882.40970982
 10
795078.473775678
 20
2480881.79319092
  0
LWPOLYLINE
  5
20030
100
AcDbEntity
  8
0
100
AcDbPolyline
 70
0
 90
4
 10
795807.683685506
 20
2483249.88192795
 10
795808.329697228
 20
2483250.98977014
 10
795806.99228987
 20
2483255.64961224
 10
795809.890029562
 20
2483259.10260307
  0
LWPOLYLINE
  5
20031
100
AcDbEntity
  8
0
100
AcDbPolyline
 70
0
 90
3
 10
795816.953482238
 20
2483269.70435265
 10
795821.250691365
 20
2483276.27183857
 10
795816.477497217
 20
2483278.46807816
  0
LWPOLYLINE
  5
20032
100
AcDbEntity
  8
0
100
AcDbPolyline
 70
0
 90
80
 10
795442.267985943
 20
2482938.31948623
 10
795434.868815054
 20
2482928.45334634
 10
795444.311577823
 20
2482932.33356543
 10
795441.690239498
 20
2482928.27042377
 10
795440.33388799
 20
2482925.00250814
 10
795445.216818544
 20
2482925.78925626
 10
795436.931300506
 20
2482914.735206
 10
795435.459417241
 20
2482912.94950603
 10
795435.022420696
 20
2482909.59186859
 10
795435.109074904
 20
2482906.57126393
 10
795438.734555639
 20
2482910.0794047
 10
795461.540158393
 20
2482931.84516187
 10
795473.210406652
 20
2482943.20188758
 10
795476.790411488
 20
2482945.57608014
 10
795479.337844818
 20
2482947.70732843
 10
795481.306866302
 20
2482945.81820212
 10
795484.274472794
 20
2482947.63878025
 10
795486.544412509
 20
2482949.47118724
 10
795488.64251269
 20
2482951.19919544
 10
795493.523420336
 20
2482956.13587195
 10
795495.055094329
 20
2482954.68633635
 10
795497.1973707
 20
2482956.56371472
 10
795503.133530479
 20
2482960.82781174
 10
795506.253019903
 20
2482958.31229432
 10
795509.055397165
 20
2482958.98222109
 10
795514.319136219
 20
2482960.81098844
 10
795523.967870874
 20
2482968.21793863
 10
795564.340013736
 20
2482993.78185571
 10
795581.406074471
 20
2483004.38112068
 10
795562.816095216
 20
2482990.71678005
 10
795585.379021199
 20
2483006.39828727
 10
795590.610155065
 20
2483009.88616587
 10
795595.288483586
 20
2483013.10515374
 10
795598.641656926
 20
2483015.43834699
 10
795599.761033529
 20
2483016.11415323
 10
795601.05720554
 20
2483016.96324701
 10
795601.659999854
 20
2483017.28309203
 10
795603.154088607
 20
2483018.21794747
 10
795603.575544825
 20
2483018.43599161
 10
795601.103105662
 20
2483015.04083351
 10
795604.414948753
 20
2483012.28918179
 10
795600.908723804
 20
2483008.4322137
 10
795608.547117878
 20
2483015.4483764
 10
795610.279908188
 20
2483015.84160664
 10
795613.33841061
 20
2483016.13444061
 10
795614.46587408
 20
2483016.93642131
 10
795617.646261392
 20
2483019.43919281
 10
795670.365714092
 20
2483068.8969892
 10
795670.567593743
 20
2483064.21526116
 10
795675.014078197
 20
2483067.82304943
 10
795676.573908205
 20
2483068.92737366
 10
795678.588220767
 20
2483070.51165223
 10
795680.070572283
 20
2483068.61874483
 10
795680.606364789
 20
2483068.83050802
 10
795686.325952756
 20
2483072.9149808
 10
795687.257100591
 20
2483071.38200164
 10
795697.749037752
 20
2483079.00006627
 10
795738.377616644
 20
2483119.3589106
 10
795766.957721798
 20
2483147.48423306
 10
795769.442771077
 20
2483151.15467661
 10
795774.798792431
 20
2483158.94223613
 10
795772.347875284
 20
2483158.99249522
 10
795770.46509236
 20
2483160.79668899
 10
795767.672746113
 20
2483164.07976218
 10
795776.441123407
 20
2483175.7710594
 10
795777.575471644
 20
2483177.84020469
 10
795778.443293963
 20
2483180.26227241
 10
795779.385497897
 20
2483182.44704163
 10
795780.865337261
 20
2483185.46196274
 10
795781.522223257
 20
2483187.62094376
 10
795782.457902029
 20
2483189.57084159
 10
795789.43726
 20
2483200.87295
 10
795809.365095238
 20
2483233.52929322
 10
795810.085581636
 20
2483234.50469486
 10
795821.601220135
 20
2483247.69963456
 10
795820.674654516
 20
2483249.78615645
 10
795819.165790842
 20
2483250.48605201
 10
795813.23585894
 20
2483245.24332117
 10
795810.227748087
 20
2483245.9132376
 10
795807.180268473
 20
2483246.66900849
  0
LWPOLYLINE
  5
20033
100
AcDbEntity
  8
0
100
AcDbPolyline
 70
0
 90
54
 10
795087.613748415
 20
2482632.45112463
 10
795088.955488138
 20
2482629.24830669
 10
795089.668730246
 20
2482626.94346427
 10
795091.331589905
 20
2482627.93583814
 10
795095.053552841
 20
2482625.46788125
 10
795096.674598698
 20
2482626.51294479
 10
795091.093279959
 20
2482608.42002575
 10
795060.58350339
 20
2482547.2504322
 10
795043.65964871
 20
2482507.08209542
 10
795043.871768115
 20
2482505.69449005
 10
795054.860576426
 20
2482527.71547031
 10
795057.306950303
 20
2482532.63093331
 10
795060.977892773
 20
2482530.24016915
 10
795062.003778468
 20
2482531.85291955
 10
795062.520164864
 20
2482532.44909338
 10
795067.622461326
 20
2482543.82642046
 10
795083.498758149
 20
2482571.84125591
 10
795116.385926851
 20
2482635.6893234
 10
795140.292576874
 20
2482656.43206105
 10
795148.682713148
 20
2482663.48564986
 10
795158.75221966
 20
2482673.93323707
 10
795161.346882172
 20
2482676.16611025
 10
795162.528247714
 20
2482676.83102571
 10
795164.419092672
 20
2482678.39315813
 10
795168.048232432
 20
2482681.56208573
 10
795170.609135
 20
2482678.8037325
 10
795183.037607075
 20
2482696.82118226
 10
795186.719231632
 20
2482694.76733179
 10
795191.416395659
 20
2482701.13980916
 10
795195.166609482
 20
2482698.45637541
 10
795196.275309187
 20
2482699.13634126
 10
795199.138632991
 20
2482698.53159401
 10
795200.481822516
 20
2482697.11737714
 10
795200.979397215
 20
2482697.12715294
 10
795205.433263454
 20
2482701.73749277
 10
795206.453936493
 20
2482701.10260414
 10
795206.944092343
 20
2482700.80294369
 10
795207.229056625
 20
2482700.69608961
 10
795209.648688596
 20
2482704.23389576
 10
795240.139441964
 20
2482749.06131875
 10
795243.900946946
 20
2482754.17097817
 10
795244.925382111
 20
2482753.35896343
 10
795246.554388591
 20
2482755.20964509
 10
795248.249967225
 20
2482756.52934135
 10
795249.431544992
 20
2482757.7789164
 10
795250.358706667
 20
2482758.69416782
 10
795262.749190408
 20
2482777.69808639
 10
795266.934002661
 20
2482778.99573282
 10
795267.755872888
 20
2482779.78819912
 10
795282.254280883
 20
2482793.87285551
 10
795305.271343813
 20
2482817.70718787
 10
795306.838073791
 20
2482819.74878587
 10
795305.95132472
 20
2482820.23031194
 10
795288.776924424
 20
2482810.58898936
  0
LWPOLYLINE
  5
20034
100
AcDbEntity
  8
0
100
AcDbPolyline
 70
0
 90
2
 10
795203.363374436
 20
2480489.91143591
 10
795202.644756603
 20
2480489.39238986
  0
LWPOLYLINE
  5
20035
100
AcDbEntity
  8
0
100
AcDbPolyline
 70
0
 90
8
 10
795488.799005538
 20
2479945.71182436
 10
795573.638910111
 20
2479788.85511111
 10
795583.551250861
 20
2479778.67421468
 10
795588.012972706
 20
2479785.4150998
 10
795612.330685857
 20
2479754.25485204
 10
795613.392481165
 20
2479700.5506343
 10
795640.108503485
 20
2479693.63686687
 10
795628.403939907
 20
2479689.1155661
  0
LWPOLYLINE
  5
20036
100
AcDbEntity
  8
0
100
AcDbPolyline
 70
0
 90
308
 10
795959.821692007
 20
2479464.05006434
 10
795950.582012616
 20
2479471.1479303
 10
795951.747358108
 20
2479462.56377628
 10
795949.908792405
 20
2479456.94664367
 10
795947.622276434
 20
2479459.24162438
 10
795947.392287105
 20
2479459.42300004
 10
795946.85182737
 20
2479459.92819808
 10
795946.028288712
 20
2479460.70904781
 10
795944.474455343
 20
2479462.20848356
 10
795943.951100688
 20
2479462.60856839
 10
795941.402427299
 20
2479464.9918608
 10
795937.763073709
 20
2479467.84772107
 10
795913.74235406
 20
2479488.88250043
 10
795874.207892796
 20
2479522.0134043
 10
795868.353647627
 20
2479531.88065669
 10
795860.402616646
 20
2479542.0052632
 10
795839.261347976
 20
2479569.75195655
 10
795813.831752654
 20
2479601.73936761
 10
795783.594826357
 20
2479638.69693644
 10
795788.404265651
 20
2479636.37712813
 10
795783.059241778
 20
2479645.57688536
 10
795781.201217143
 20
2479649.17896455
 10
795785.24779283
 20
2479648.63313085
 10
795782.845040985
 20
2479653.07077554
 10
795782.127899673
 20
2479655.19029463
 10
795757.924952586
 20
2479685.18959611
 10
795751.81245154
 20
2479691.01940723
 10
795748.81999945
 20
2479687.43067346
 10
795745.970394051
 20
2479683.48873655
 10
795745.433646427
 20
2479683.2827605
 10
795742.213516023
 20
2479679.80436497
 10
795738.757415585
 20
2479676.55095338
 10
795738.485476592
 20
2479676.58502255
 10
795737.951622917
 20
2479676.52322465
 10
795734.288135363
 20
2479678.48454321
 10
795726.671928095
 20
2479683.20768212
 10
795722.273299816
 20
2479685.62710694
 10
795721.375197852
 20
2479685.97793973
 10
795712.983277388
 20
2479691.30081034
 10
795710.752407344
 20
2479692.00112688
 10
795709.904424986
 20
2479692.15193827
 10
795706.78851177
 20
2479693.27059211
 10
795704.660059036
 20
2479694.12372572
 10
795648.206879482
 20
2479726.69184626
 10
795619.589445938
 20
2479806.1940675
 10
795619.281371188
 20
2479807.51969948
 10
795618.9158227
 20
2479809.35549029
 10
795618.898425328
 20
2479809.80928362
 10
795618.699343866
 20
2479811.03936888
 10
795616.749592352
 20
2479815.75207822
 10
795616.656511942
 20
2479816.18550037
 10
795615.266278123
 20
2479819.84761986
 10
795614.307405237
 20
2479822.15379608
 10
795614.120985081
 20
2479823.00851012
 10
795622.417667995
 20
2479828.05905433
 10
795622.365912014
 20
2479828.62023233
 10
795626.207605545
 20
2479831.59454496
 10
795626.326342426
 20
2479831.89733876
 10
795630.823529247
 20
2479834.00325627
 10
795629.037335656
 20
2479837.2592278
 10
795612.290688735
 20
2479859.3432015
 10
795592.862843348
 20
2479881.99640734
 10
795595.925575427
 20
2479874.135314
 10
795567.04318685
 20
2479913.758725
 10
795543.483929242
 20
2479944.70010158
 10
795525.837934916
 20
2479969.26195882
 10
795529.72392617
 20
2479970.15847253
 10
795524.506834946
 20
2479977.75693563
 10
795524.667290026
 20
2479981.58834507
 10
795524.702743714
 20
2479982.49375998
 10
795522.235961879
 20
2479988.53656192
 10
795521.529132634
 20
2479989.83943409
 10
795521.2322976
 20
2479990.71350477
 10
795523.985606467
 20
2479994.80449294
 10
795523.140554444
 20
2479996.86856744
 10
795527.447818258
 20
2479999.25625233
 10
795522.987427037
 20
2480005.36449394
 10
795482.461056021
 20
2480057.41252076
 10
795473.28902388
 20
2480070.16995996
 10
795480.887404951
 20
2480068.31041947
 10
795475.512941512
 20
2480075.59261326
 10
795466.448233893
 20
2480087.81995941
 10
795422.715641224
 20
2480144.81924668
 10
795407.613250655
 20
2480164.18366366
 10
795365.353394356
 20
2480221.69519653
 10
795352.446003746
 20
2480239.47299527
 10
795350.653549059
 20
2480241.78179479
 10
795361.368365029
 20
2480241.7028673
 10
795361.181212518
 20
2480242.42236384
 10
795361.032338639
 20
2480242.89534668
 10
795360.819985481
 20
2480243.29493004
 10
795363.026915157
 20
2480249.81644599
 10
795362.923532879
 20
2480250.08564135
 10
795362.755098886
 20
2480250.42211701
 10
795362.798839783
 20
2480250.51468077
 10
795368.889501757
 20
2480250.37850456
 10
795368.364247199
 20
2480251.453789
 10
795365.124425017
 20
2480256.00253265
 10
795330.235267373
 20
2480308.00752915
 10
795322.803950836
 20
2480320.07560339
 10
795318.31106624
 20
2480326.74870801
 10
795322.63886363
 20
2480330.86423671
 10
795322.171870338
 20
2480332.07186088
 10
795320.094618603
 20
2480335.43792747
 10
795325.425019732
 20
2480332.36559079
 10
795323.601543799
 20
2480335.49298931
 10
795325.751908201
 20
2480333.91640385
 10
795335.369950073
 20
2480325.33893777
 10
795320.578777805
 20
2480347.61647017
 10
795300.394849343
 20
2480380.30147422
 10
795298.715481847
 20
2480385.05501752
 10
795301.312939228
 20
2480384.12122301
 10
795296.718257052
 20
2480392.62457274
 10
795291.723483717
 20
2480401.39655304
 10
795272.484628791
 20
2480435.12436491
 10
795269.99020976
 20
2480439.70906471
 10
795260.608676079
 20
2480460.2258348
 10
795223.850638478
 20
2480522.50086545
 10
795205.029294705
 20
2480552.3825248
 10
795180.510029832
 20
2480590.55765398
 10
795172.051739538
 20
2480600.79429484
 10
795169.213781787
 20
2480605.11228556
 10
795167.153860299
 20
2480608.68299068
 10
795163.004896952
 20
2480618.8873864
 10
795163.705469587
 20
2480619.19302847
 10
795143.80520255
 20
2480657.28483289
 10
795143.811847403
 20
2480658.82866753
 10
795145.389740033
 20
2480660.89793135
 10
795144.177283619
 20
2480664.43420578
 10
795132.56928558
 20
2480687.28737018
 10
795132.405687888
 20
2480688.09279118
 10
795128.934210876
 20
2480695.92064217
 10
795089.474636324
 20
2480760.57635327
 10
795077.428740091
 20
2480779.66498037
 10
795067.822877771
 20
2480805.66008556
 10
795056.508068524
 20
2480838.34473841
 10
795055.337655824
 20
2480836.85932888
 10
795054.135389411
 20
2480835.14951727
 10
795055.096542901
 20
2480815.40109808
 10
795054.608263018
 20
2480791.5043182
 10
794999.376620869
 20
2481003.70789359
 10
795044.959867989
 20
2480888.1990244
 10
795050.817537361
 20
2480866.59918944
 10
795056.828078452
 20
2480861.25814888
 10
795065.546758828
 20
2480853.44143196
 10
795065.226052476
 20
2480859.39202998
 10
795067.497831179
 20
2480859.02780558
 10
795064.32822464
 20
2480868.93071755
 10
795063.768270231
 20
2480873.64252662
 10
795063.684494735
 20
2480873.84055801
 10
795045.720792337
 20
2480934.08380644
 10
795044.947471808
 20
2480938.74772438
 10
795044.698699492
 20
2480941.62993369
 10
795045.195547424
 20
2480943.4283116
 10
795040.987026779
 20
2480954.82206644
 10
795041.197488842
 20
2480956.2530651
 10
795041.383578659
 20
2480957.03790647
 10
795044.903195119
 20
2480953.48278083
 10
795049.063829678
 20
2480953.01980386
 10
795051.968303713
 20
2480954.90522963
 10
795046.103470935
 20
2480969.07387688
 10
795042.489259751
 20
2480978.62503253
 10
795042.208540597
 20
2480984.91666048
 10
795044.569320598
 20
2480988.8938289
 10
795044.413983206
 20
2480989.55953333
 10
795034.258227043
 20
2481013.45503625
 10
795023.846839202
 20
2481038.23158281
 10
795027.875334326
 20
2481040.50597239
 10
795022.508802093
 20
2481056.28259182
 10
795021.912487137
 20
2481059.32291391
 10
795022.479206935
 20
2481060.21605355
 10
795017.245701389
 20
2481075.60381266
 10
795014.084325479
 20
2481085.16316578
 10
795014.075482698
 20
2481085.36254021
 10
795013.257621025
 20
2481088.96671089
 10
795010.756695957
 20
2481093.58526732
 10
795009.904488183
 20
2481095.23842298
 10
795003.11318428
 20
2481109.91946742
 10
794994.566957468
 20
2481128.64220873
 10
794992.237749728
 20
2481132.01765588
 10
794989.359492057
 20
2481134.86223273
 10
794985.414238378
 20
2481133.77375329
 10
794977.58937286
 20
2481148.55652719
 10
794966.34751525
 20
2481172.32423038
 10
794943.625166265
 20
2481237.71249475
 10
794949.721079047
 20
2481226.85048448
 10
794959.127502205
 20
2481201.83373603
 10
794955.610578621
 20
2481219.08518033
 10
794953.228047597
 20
2481237.28982471
 10
794953.121031416
 20
2481240.52390444
 10
794952.593407565
 20
2481243.6264628
 10
794954.85325205
 20
2481241.64288195
 10
794950.834160657
 20
2481256.32203565
 10
794950.228518424
 20
2481259.0011081
 10
794951.139373421
 20
2481259.16755218
 10
794951.251097215
 20
2481260.38999155
 10
794950.163314
 20
2481267.447625
 10
794934.753130571
 20
2481338.32048857
 10
794929.089437898
 20
2481364.36832068
 10
794928.425116389
 20
2481367.21211034
 10
794928.39435296
 20
2481367.38017594
 10
794928.47696441
 20
2481367.33693401
 10
794932.744297477
 20
2481362.23217251
 10
794947.620848193
 20
2481334.58061543
 10
794949.548556654
 20
2481339.02231303
 10
794951.567812201
 20
2481339.69539821
 10
794956.103430713
 20
2481338.48487996
 10
794949.518938605
 20
2481366.17078958
 10
794947.983271886
 20
2481372.00997379
 10
794950.326765423
 20
2481371.17252384
 10
794950.286859673
 20
2481371.79220399
 10
794949.789117679
 20
2481374.72385257
 10
794946.35550608
 20
2481384.68355596
 10
794945.573968583
 20
2481386.19876699
 10
794945.269958408
 20
2481380.90814362
 10
794936.383362629
 20
2481406.57989108
 10
794915.673530092
 20
2481476.24150355
 10
794904.020229288
 20
2481539.17005233
 10
794904.161002117
 20
2481542.32593189
 10
794902.301957765
 20
2481557.21126081
 10
794902.029843367
 20
2481559.15115433
 10
794900.514865121
 20
2481566.3338208
 10
794888.688029666
 20
2481639.02560154
 10
794887.412947335
 20
2481650.43321486
 10
794888.037166557
 20
2481651.81337507
 10
794888.037434906
 20
2481654.05528239
 10
794886.014313765
 20
2481666.33528823
 10
794884.049694916
 20
2481679.70730332
 10
794883.071823778
 20
2481680.75378082
 10
794881.19528093
 20
2481691.32306125
 10
794879.869103749
 20
2481695.51892098
 10
794877.46456503
 20
2481698.74132072
 10
794869.608826495
 20
2481762.67054945
 10
794868.03811215
 20
2481824.83805981
 10
794868.87102858
 20
2481830.59786662
 10
794871.993859654
 20
2481830.41361728
 10
794872.761707112
 20
2481830.22566898
 10
794873.785173469
 20
2481831.77189971
 10
794877.035724384
 20
2481829.14461553
 10
794877.408252004
 20
2481837.09147892
 10
794878.084485155
 20
2481840.64850515
 10
794882.561807296
 20
2481832.46347224
 10
794882.493757643
 20
2481871.5490953
 10
794882.974072566
 20
2481891.15779004
 10
794884.468323747
 20
2481909.86891024
 10
794888.204299752
 20
2481929.40736342
 10
794889.087210706
 20
2481939.62874311
 10
794889.454177579
 20
2481942.55878373
 10
794889.706669152
 20
2481943.7580726
 10
794889.937038693
 20
2481945.19706745
 10
794890.846055571
 20
2481962.29974415
 10
794894.583438917
 20
2482000.34042947
 10
794896.819936526
 20
2482049.64455624
 10
794897.060126379
 20
2482058.52593447
 10
794897.868080248
 20
2482065.90458661
 10
794901.564652623
 20
2482105.25723333
 10
794900.501365105
 20
2482103.50981026
 10
794900.286111099
 20
2482113.99427698
 10
794898.58517187
 20
2482112.79634904
 10
794896.288260979
 20
2482114.14776484
 10
794895.551464045
 20
2482116.11737653
 10
794894.489617037
 20
2482112.38585117
 10
794893.035249189
 20
2482108.45248967
 10
794889.880150838
 20
2482106.45807681
 10
794886.965268602
 20
2482106.64970365
 10
794885.739449385
 20
2482106.51096221
 10
794880.875051831
 20
2482095.79269992
 10
794878.715505848
 20
2482100.14901453
 10
794912.388272963
 20
2482225.39196295
 10
794912.317285981
 20
2482221.06887828
 10
794913.929623978
 20
2482219.89689555
 10
794913.502225773
 20
2482215.75652132
 10
794914.729150499
 20
2482217.57390061
 10
794915.409850177
 20
2482215.10389949
 10
794916.455066102
 20
2482213.32582809
 10
794918.986481166
 20
2482212.25058459
 10
794919.477293718
 20
2482209.99773245
 10
794917.164784168
 20
2482187.93266419
 10
794918.376458065
 20
2482186.48832274
 10
794916.584464728
 20
2482170.42943001
 10
794914.348467506
 20
2482157.3037012
 10
794909.395368552
 20
2482114.04092069
 10
794911.898053558
 20
2482128.45907046
 10
794912.854118239
 20
2482133.40749783
 10
794917.155835654
 20
2482156.85514722
 10
794922.139736123
 20
2482183.00123238
 10
794922.658872487
 20
2482179.17911015
 10
794929.866198193
 20
2482208.52900611
 10
794931.681107286
 20
2482215.83748142
 10
794935.76712039
 20
2482230.06525682
 10
794936.692976227
 20
2482233.50931032
 10
794941.404411686
 20
2482255.99946105
 10
794960.903754183
 20
2482325.41125631
 10
794970.393038103
 20
2482357.24961431
 10
794992.850305114
 20
2482417.43881333
 10
794989.970027241
 20
2482419.02393793
 10
794975.622891145
 20
2482380.48844832
 10
794967.362173385
 20
2482358.27850646
 10
794957.374432666
 20
2482329.24136049
 10
794954.68643225
 20
2482325.37401101
 10
794950.934831889
 20
2482324.09816297
 10
794948.822662125
 20
2482323.23889694
 10
794944.547624837
 20
2482319.17192345
 10
794942.374869671
 20
2482319.17094533
 10
794939.413285798
 20
2482319.22176825
 10
794937.95563801
 20
2482317.13634741
 10
794936.390742892
 20
2482316.63365425
 10
794932.986937519
 20
2482314.15205223
  0
LWPOLYLINE
  5
20037
100
AcDbEntity
  8
0
100
AcDbPolyline
 70
0
 90
17
 10
795619.525198808
 20
2479785.85632115
 10
795619.997754713
 20
2479793.7461483
 10
795618.739361461
 20
2479800.02212769
 10
795617.247802776
 20
2479808.56990345
 10
795617.331839605
 20
2479809.81289638
 10
795618.81089109
 20
2479807.31111671
 10
795647.956067013
 20
2479726.50348
 10
795706.051271985
 20
2479692.48512761
 10
795709.567723255
 20
2479689.08444213
 10
795707.149959469
 20
2479689.29620656
 10
795693.8115373
 20
2479694.06197012
 10
795685.70395959
 20
2479697.2523959
 10
795675.288190195
 20
2479697.85214156
 10
795636.492118929
 20
2479707.06034388
 10
795625.951768
 20
2479709.98074875
 10
795623.570727743
 20
2479734.50774743
 10
795619.525198808
 20
2479785.85632115
  0
LWPOLYLINE
  5
20038
100
AcDbEntity
  8
0
100
AcDbPolyline
 70
0
 90
13
 10
795384.778443077
 20
2482879.42268462
 10
795361.396000342
 20
2482856.29635418
 10
795354.988681614
 20
2482849.3276148
 10
795354.884924429
 20
2482848.81240533
 10
795356.31710535
 20
2482844.2065696
 10
795357.091342953
 20
2482844.87691666
 10
795359.194606958
 20
2482844.491444
 10
795358.87692065
 20
2482842.31261992
 10
795361.21521381
 20
2482844.31601571
 10
795406.774378887
 20
2482899.57105051
 10
795391.03055328
 20
2482881.70415573
 10
795400.933322598
 20
2482894.33881299
 10
795384.778443077
 20
2482879.42268462
  0
ENDSEC
  0
SECTION
  2
OBJECTS
  0
DICTIONARY
  5
C
330
0
100
AcDbDictionary
281
     1
  3
ACAD_GROUP
350
D
  3
ACAD_LAYOUT
350
1A
  3
ACAD_MLEADERSTYLE
350
43
  3
ACAD_PLOTSETTINGS
350
19
  3
ACAD_PLOTSTYLENAME
350
E
  3
ACAD_TABLESTYLE
350
42
  0
DICTIONARY
  5
D
102
{ACAD_REACTORS
330
C
102
}
330
C
100
AcDbDictionary
281
     1
  0
DICTIONARY
  5
1A
102
{ACAD_REACTORS
330
C
102
}
330
C
100
AcDbDictionary
281
     1
  3
Layout1
350
1E
  3
Model
350
22
  0
DICTIONARY
  5
43
102
{ACAD_REACTORS
330
C
102
}
330
C
100
AcDbDictionary
281
     1
  0
DICTIONARY
  5
19
102
{ACAD_REACTORS
330
C
102
}
330
C
100
AcDbDictionary
281
     1
  0
ACDBDICTIONARYWDFLT
  5
E
102
{ACAD_REACTORS
330
C
102
}
330
C
100
AcDbDictionary
281
     1
  3
Normal
350
F
100
AcDbDictionaryWithDefault
340
F
  0
DICTIONARY
  5
42
102
{ACAD_REACTORS
330
C
102
}
330
C
100
AcDbDictionary
281
     1
  0
LAYOUT
  5
1E
102
{ACAD_REACTORS
330
1A
102
}
330
1A
100
AcDbPlotSettings
  1

  2
none_device
  4

  6

 40
0.0
 41
0.0
 42
0.0
 43
0.0
 44
0.0
 45
0.0
 46
0.0
 47
0.0
 48
0.0
 49
0.0
140
0.0
141
0.0
142
1.0
143
1.0
 70
   688
 72
     0
 73
     0
 74
     5
  7

 75
    16
 76
     0
 77
     2
 78
   300
147
1.0
148
0.0
149
0.0
100
AcDbLayout
  1
Layout1
 70
     1
 71
     1
 10
0.0
 20
0.0
 11
12.0
 21
9.0
 12
0.0
 22
0.0
 32
0.0
 14
1.000000000000000E+20
 24
1.000000000000000E+20
 34
1.000000000000000E+20
 15
-1.000000000000000E+20
 25
-1.000000000000000E+20
 35
-1.000000000000000E+20
146
0.0
 13
0.0
 23
0.0
 33
0.0
 16
1.0
 26
0.0
 36
0.0
 17
0.0
 27
1.0
 37
0.0
 76
     0
330
1B
  0
LAYOUT
  5
22
102
{ACAD_REACTORS
330
1A
102
}
330
1A
100
AcDbPlotSettings
  1

  2
none_device
  4

  6

 40
0.0
 41
0.0
 42
0.0
 43
0.0
 44
0.0
 45
0.0
 46
0.0
 47
0.0
 48
0.0
 49
0.0
140
0.0
141
0.0
142
1.0
143
1.0
 70
  1712
 72
     0
 73
     0
 74
     0
  7

 75
     0
 76
     0
 77
     2
 78
   300
147
1.0
148
0.0
149
0.0
100
AcDbLayout
  1
Model
 70
     1
 71
     0
 10
0.0
 20
0.0
 11
12.0
 21
9.0
 12
0.0
 22
0.0
 32
0.0
 14
30.0
 24
49.75
 34
0.0
 15
130.5
 25
163.1318914119703
 35
0.0
146
0.0
 13
0.0
 23
0.0
 33
0.0
 16
1.0
 26
0.0
 36
0.0
 17
0.0
 27
1.0
 37
0.0
 76
     0
330
1F
331
29
  0
ENDSEC
  0
EOF
